<svg width="80" height="80" viewBox="0 0 80 80" fill="none" xmlns="http://www.w3.org/2000/svg">
<path fill-rule="evenodd" clip-rule="evenodd" d="M22.5 25.5C23.8807 25.5 25 26.6193 25 28V36.5C25 37.8807 23.8807 39 22.5 39C21.1193 39 20 37.8807 20 36.5V28C20 26.6193 21.1193 25.5 22.5 25.5ZM42.0833 25.5C43.464 25.5 44.5833 26.6193 44.5833 28V40.75C44.5833 43.0365 43.6695 45.4303 42.2848 47.2591C40.9174 49.065 38.7412 50.75 36 50.75C34.6193 50.75 33.5 49.6307 33.5 48.25C33.5 46.8693 34.6193 45.75 36 45.75C36.5921 45.75 37.4576 45.3516 38.2985 44.2409C39.1222 43.1531 39.5833 41.7968 39.5833 40.75V28C39.5833 26.6193 40.7026 25.5 42.0833 25.5ZM56.6667 25.5C58.0474 25.5 59.1667 26.6193 59.1667 28V36.5C59.1667 37.8807 58.0474 39 56.6667 39C55.286 39 54.1667 37.8807 54.1667 36.5V28C54.1667 26.6193 55.286 25.5 56.6667 25.5ZM24.4822 55.7322C25.4585 54.7559 27.0415 54.7559 28.0178 55.7322C34.5415 62.2559 44.9585 62.2559 51.4822 55.7322C52.4585 54.7559 54.0415 54.7559 55.0178 55.7322C55.9941 56.7085 55.9941 58.2915 55.0178 59.2678C46.5415 67.7441 32.9585 67.7441 24.4822 59.2678C23.5059 58.2915 23.5059 56.7085 24.4822 55.7322Z" fill="#0056B3"/>
<path fill-rule="evenodd" clip-rule="evenodd" d="M24.5 2.5C24.5 1.11929 23.3807 0 22 0H16C7.16344 0 0 7.16344 0 16V21.9961C0 23.3768 1.11929 24.4961 2.5 24.4961C3.88071 24.4961 5 23.3768 5 21.9961V16C5 9.92487 9.92487 5 16 5H22C23.3807 5 24.5 3.88071 24.5 2.5ZM58 5C56.6193 5 55.5 3.88071 55.5 2.5C55.5 1.11929 56.6193 0 58 0H64C72.8366 0 80 7.16344 80 16V21.9961C80 23.3768 78.8807 24.4961 77.5 24.4961C76.1193 24.4961 75 23.3768 75 21.9961V16C75 9.92487 70.0751 5 64 5H58ZM77.5 55.4961C76.1193 55.4961 75 56.6154 75 57.9961V64C75 70.0751 70.0751 75 64 75H58C56.6193 75 55.5 76.1193 55.5 77.5C55.5 78.8807 56.6193 80 58 80H64C72.8366 80 80 72.8366 80 64V57.9961C80 56.6154 78.8807 55.4961 77.5 55.4961ZM22 80C23.3807 80 24.5 78.8807 24.5 77.5C24.5 76.1193 23.3807 75 22 75H16C9.92487 75 5 70.0751 5 64V57.9961C5 56.6154 3.88071 55.4961 2.5 55.4961C1.11929 55.4961 0 56.6154 0 57.9961V64C0 72.8366 7.16344 80 16 80H22Z" fill="#0056B3"/>
</svg>
