<svg width="350" height="200" viewBox="0 0 350 200" fill="none" xmlns="http://www.w3.org/2000/svg">
<g clip-path="url(#clip0_10238_38682)">
<rect width="350" height="200" fill="url(#paint0_linear_10238_38682)"/>
<g opacity="0.1">
<path fill-rule="evenodd" clip-rule="evenodd" d="M7.29996 -64.0252C-8.1823 -48.1368 -21.1021 -30.3753 -31.6682 -10.7396C-32.0186 -10.0654 -32.3668 -9.40527 -32.7108 -8.75323C-33.4028 -7.44172 -34.0776 -6.16275 -34.7179 -4.86674C-52.8478 31.8274 -61.0071 70.6089 -59.067 111.504C-58.0588 132.758 -54.2323 153.499 -47.4996 173.673C-33.2584 216.346 -8.94605 252.29 25.8477 280.766C83.0246 327.562 148.409 343.901 220.814 330.395C272.554 320.743 316.289 295.736 351.032 256.145C397.122 203.623 415.871 142.111 408.53 72.7321C405.582 44.8643 397.431 18.3937 384.575 -6.52602C360.921 -52.374 326.141 -87.1761 279.979 -110.267C245.636 -127.445 209.076 -135.212 170.679 -134.416C145.724 -133.898 121.455 -129.599 97.8824 -121.427C63.1931 -109.401 32.9437 -90.3414 7.29996 -64.0252ZM215.996 165.882C216.063 153.973 219.828 143.214 226.714 133.394C230.301 128.312 234.412 123.868 239.427 120.391C256.802 108.345 275.009 106.605 293.879 116.604C300.951 120.351 305.638 126.221 306.873 134.339C307.594 139.084 307.114 143.746 303.76 147.523C298.4 153.559 288.503 153.072 283.583 146.68C282.677 145.502 281.969 144.207 281.26 142.912C280.584 141.676 279.908 140.44 279.06 139.306C276.509 135.892 273.267 133.695 268.952 133.254C267.328 133.089 265.716 133.26 264.109 133.431C263.896 133.454 263.684 133.477 263.472 133.498C257.141 134.149 251.221 135.937 246.609 140.568C237.507 149.709 233.709 160.871 236.142 173.45C238.531 185.801 245.031 196.271 254.108 204.944C267.758 217.986 284.15 223.621 302.96 222.134C321.996 220.629 338.685 213.59 352.694 200.549C363.459 190.526 371.695 178.589 378.386 165.552C385.635 151.425 389.741 136.333 392.208 120.717C395.152 102.088 395.977 83.4031 393.93 64.6328C391.399 41.4179 384.697 19.4545 373.947 -1.27287C363.718 -20.9939 350.626 -38.6436 335.041 -54.4225C324.267 -65.3297 312.072 -74.4991 299.152 -82.7227C271.848 -100.102 242.696 -112.863 210.567 -118.181C204.05 -119.26 197.512 -120.199 190.898 -120.439C190.801 -120.442 190.696 -120.451 190.587 -120.461C190.061 -120.506 189.445 -120.56 189.246 -120.026C188.981 -119.317 189.673 -118.889 190.2 -118.563C190.229 -118.545 190.257 -118.528 190.284 -118.511C190.746 -118.223 191.206 -117.933 191.667 -117.643C193.603 -116.424 195.541 -115.204 197.556 -114.13C209.798 -107.603 220.027 -98.7188 228.629 -87.8861C254.361 -55.48 252.62 -16.7065 232.504 13.1586C216.653 36.6927 191.697 44.2321 166.956 36.8406C144.011 29.9856 129.601 10.0703 130.525 -13.0076C130.893 -22.1813 135.233 -28.9163 143.418 -33.0965C151.82 -37.3882 160.872 -32.8399 162.569 -23.5173C163.343 -19.2663 161.732 -15.6544 159.408 -12.2899C155.031 -5.95244 155.156 0.402252 159.434 6.64717C166.679 17.2241 177.126 20.8424 189.419 19.6981C198.808 18.8242 206.398 14.3643 212.513 7.16267C223.813 -6.1441 230.041 -21.203 228.49 -38.8819C226.649 -59.8772 217.53 -77.0423 200.388 -89.4802C182.877 -102.186 162.907 -108.005 141.475 -108.937C123.675 -109.711 106.563 -106.164 90.0717 -99.6205C57.8091 -86.8198 30.096 -67.321 6.19694 -42.2698C-13.7235 -21.389 -28.0263 2.77307 -36.6516 30.3573C-46.2047 60.9089 -49.3729 92.0007 -45.2762 123.781C-42.0776 148.593 -34.7794 172.217 -24.458 194.95C-24.1153 195.705 -23.6811 196.423 -23.2358 197.124C-23.185 197.204 -23.137 197.295 -23.0878 197.389C-22.8936 197.759 -22.681 198.163 -22.2059 198.04C-21.7833 197.931 -21.6992 197.48 -21.6211 197.062C-21.6021 196.96 -21.5834 196.86 -21.5603 196.767C-21.2065 195.347 -21.279 193.896 -21.3523 192.457C-22.0615 178.548 -20.4258 164.998 -15.4796 151.891C-9.62064 136.364 -0.933109 122.791 12.0975 112.352C30.8538 97.325 52.4406 91.7899 76.0993 94.6584C93.205 96.7324 106.984 104.871 116.362 119.559C123.771 131.165 128.165 143.77 126.16 157.774C123.682 175.088 114.809 188.148 99.0697 196.124C90.9671 200.229 82.9961 199.248 75.5645 194.229C69.3379 190.023 68.0716 182.229 72.3393 176.051C75.5763 171.365 80.2091 170.108 85.5679 170.307C91.6724 170.533 97.287 169.291 100.877 163.768C104.858 157.646 106.806 150.856 105.316 143.617C102.363 129.266 93.5506 119.795 79.7444 115.321C69.3425 111.951 58.6785 112.428 48.1849 115.243C32.4516 119.464 19.1972 127.58 10.5514 141.678C-1.14927 160.758 -5.01485 181.422 0.159389 203.405C4.27785 220.902 12.7897 236.279 23.7877 250.337C35.7189 265.587 50.3677 277.825 66.4706 288.417C89.6629 303.671 114.744 314.28 142.146 319.176C160.46 322.449 178.894 322.867 197.396 321.397C217.109 319.829 236.275 315.701 254.68 308.433C298.389 291.172 332.46 261.964 359.145 223.688C359.207 223.598 359.283 223.505 359.362 223.41C359.714 222.982 360.111 222.5 359.526 221.965C359.002 221.485 358.489 221.829 358.021 222.145C357.921 222.212 357.824 222.277 357.729 222.333C356.265 223.196 354.807 224.069 353.35 224.942C351.283 226.18 349.217 227.418 347.133 228.626C329.761 238.697 311.101 243.43 291.066 241.061C261.701 237.589 239.477 222.817 224.509 197.35C218.839 187.703 215.933 177.127 215.996 165.882Z" fill="url(#paint1_linear_10238_38682)"/>
<path fill-rule="evenodd" clip-rule="evenodd" d="M131.768 25.3055C142.483 38.397 155.757 47.2168 172.417 50.2824C193.289 54.1231 212.259 49.7431 228.792 36.1689C238.856 27.9064 245.77 17.3683 250.282 5.20866C255.868 -9.84684 258.67 -25.3759 258.097 -41.4571C257.563 -56.4437 254.103 -70.7831 248.283 -84.5662C247.141 -87.2716 245.912 -89.9406 244.684 -92.6097L244.681 -92.615C244.031 -94.0291 243.38 -95.4432 242.742 -96.8628C242.703 -96.9502 242.658 -97.039 242.612 -97.1289L242.612 -97.1298L242.611 -97.131C242.378 -97.5921 242.13 -98.0825 242.542 -98.5647C243.002 -99.1023 243.552 -98.8453 244.046 -98.6148C244.107 -98.5863 244.167 -98.5582 244.226 -98.532C245.302 -98.0551 246.379 -97.5788 247.456 -97.1025L247.456 -97.1025L247.456 -97.1025C261.556 -90.8654 275.654 -84.6298 288.981 -76.7853C302.783 -68.6617 314.813 -58.4105 325.816 -46.8527C351.572 -19.7995 368.639 11.7909 375.776 48.5775C378.77 64.0101 379.83 79.6112 379.336 95.3016C378.6 118.693 373.732 141.091 362.645 161.899C356.924 172.635 350.176 182.651 341.256 191.033C327.669 203.799 311.556 209.456 292.961 207.836C281.952 206.876 271.992 203.092 263.35 196.159C255.437 189.81 251.277 181.265 249.472 171.447C248.88 168.221 248.566 164.955 248.493 161.682C248.352 155.433 252.971 149.205 259.027 147.639C263.296 146.535 266.788 148.292 269.632 151.349C273.009 154.979 274.244 159.266 272.854 164.125C271.801 167.807 271.333 171.555 271.921 175.326C272.875 181.435 276.263 185.954 281.669 188.871C288.185 192.388 295.244 193.778 302.471 192.371C322.41 188.492 337.431 177.939 345.259 158.732C350.817 145.094 349.836 131.16 344.522 117.747C331.426 84.6925 306.991 64.7614 272.434 57.1724C259.136 54.2519 245.901 55.2152 232.692 58.4963C218.073 62.1276 203.139 64.0439 188.154 65.4701C169.232 67.2708 152.431 61.7205 137.196 50.7161C129.604 45.2325 122.647 39.0254 116.352 32.1267C108.447 23.4627 104.292 13.158 103.424 1.4219C102.432 -11.9809 104.858 -24.5658 111.787 -36.1427C118.63 -47.5754 128.098 -56.3283 140.356 -61.4627C154.181 -67.2539 167.564 -66.0329 179.492 -56.3301C184.976 -51.8693 188.514 -46.0977 189.013 -38.8354C189.281 -34.9268 188.804 -31.1346 186.007 -28.0834C181.715 -23.4018 174.374 -24.0778 170.987 -29.434C169.773 -31.3533 168.781 -33.3914 167.79 -35.4294C167.348 -36.3372 166.907 -37.245 166.445 -38.1422C165.401 -40.1735 164.229 -42.1208 162.635 -43.7776C159.598 -46.936 155.891 -48.1656 151.585 -47.437C143.784 -46.1167 137.399 -42.2126 132.02 -36.5324C127.659 -31.9277 124.28 -26.6688 121.804 -20.8461C116.691 -8.82535 117.526 2.86768 123.963 14.175C126.191 18.0892 128.852 21.7193 131.768 25.3055ZM274.407 -36.1094C274.661 -45.7879 273.993 -55.2378 272.409 -64.6255C272.007 -67.0113 272.327 -67.3133 274.602 -66.4959C282.623 -63.6147 289.765 -59.1557 296.536 -54.0655C305.658 -47.2084 313.273 -38.859 320.314 -29.9453C333.119 -13.7329 343.796 3.73123 351.365 23.0095C358.215 40.4592 362.096 58.5362 363.152 77.2759C363.762 88.097 362.666 98.7771 361.561 109.484C361.467 110.398 361.379 111.313 361.291 112.229C361.082 114.407 360.872 116.586 360.577 118.753C360.555 118.914 360.537 119.089 360.519 119.271V119.271C360.415 120.311 360.29 121.568 359.183 121.644C358.311 121.704 358.158 120.751 358.018 119.874C357.972 119.592 357.928 119.318 357.862 119.088C351.594 97.3137 339.125 79.7743 321.402 65.8787C310.11 57.0262 297.956 49.6168 284.318 44.909C272.092 40.6883 259.566 39.3561 246.741 41.4621C246.358 41.5251 245.973 41.5865 245.586 41.6155C245.48 41.6234 245.366 41.6498 245.25 41.6765C244.913 41.7545 244.565 41.8349 244.377 41.4642C244.19 41.0957 244.467 40.7908 244.72 40.5118L244.721 40.5115C244.737 40.4935 244.753 40.4756 244.769 40.4579C244.781 40.4452 244.792 40.4325 244.803 40.4199C244.822 40.3989 244.84 40.378 244.857 40.3572C244.867 40.3454 244.877 40.3336 244.886 40.3219C247.915 36.5559 250.748 32.6496 253.418 28.6204C265.212 10.8213 272.197 -8.66576 274.023 -29.9671C274.147 -31.4154 274.226 -32.8675 274.31 -34.382C274.341 -34.9481 274.372 -35.5228 274.407 -36.1094ZM124.947 63.3594C124.736 63.3575 124.709 63.4361 124.798 63.5123C124.801 63.5595 124.821 63.618 124.85 63.6942C125.257 64.2191 125.6 64.6543 125.961 65.0742C128.012 67.4579 130.091 69.8172 132.171 72.1765C138.558 79.4227 144.946 86.669 150.484 94.6224C151.304 95.8003 152.283 96.8768 153.26 97.9342C157.233 102.234 163.8 102.326 168.155 98.1736C172.453 94.0753 172.683 87.6007 168.653 83.407C166.467 81.1326 163.816 79.5236 160.943 78.288C156.512 76.3828 152.068 74.5081 147.611 72.6653C140.107 69.5625 132.589 66.4946 124.954 63.3983C124.962 63.38 124.961 63.3658 124.947 63.3594ZM194.687 102.427C189.252 104.383 184.022 102.01 181.602 96.5941C179.302 91.4466 181.108 85.9349 185.901 83.2573C189.045 81.5016 192.503 80.9916 195.955 80.4827C196.391 80.4184 196.827 80.3541 197.262 80.2874C207.268 78.7522 217.282 77.2695 227.297 75.7867L230.99 75.2398C231.085 75.2256 231.182 75.2057 231.281 75.1853C231.714 75.0961 232.184 74.9992 232.753 75.349C231.946 75.9218 231.147 76.4879 230.353 77.05C228.64 78.2631 226.952 79.458 225.272 80.6621C223.15 82.1821 221.015 83.6844 218.88 85.1866L218.88 85.1868C212.668 89.5583 206.456 93.9298 200.562 98.739C198.799 100.178 196.874 101.401 194.687 102.427ZM185.163 119.064C185.05 121.021 184.35 122.7 183.659 124.356C183.495 124.75 183.331 125.144 183.175 125.54C179.284 135.441 175.365 145.331 171.446 155.222L171.445 155.224L171.443 155.227C170.622 157.3 169.8 159.374 168.979 161.447C168.8 161.9 168.565 162.33 167.996 162.733C167.996 162.05 168.01 161.365 168.024 160.681C168.055 159.19 168.085 157.699 167.97 156.22C167.575 151.126 166.88 146.068 166.185 141.009V141.009V141.009V141.008V141.008V141.008C165.777 138.044 165.37 135.08 165.023 132.109C164.489 127.536 163.991 122.966 164.134 118.342C164.359 111.073 167.951 107.108 174.287 107.141C180.556 107.173 185.756 112.719 185.163 119.064ZM43.9489 130.205C38.5291 133.202 33.5526 136.81 29.122 141.332C26.9379 143.485 24.9924 145.698 23.3438 148.139C11.6487 165.455 9.16849 184.216 15.57 203.914C22.8341 226.266 35.938 244.944 53.2386 260.733C66.8174 273.125 82.4083 282.444 98.8883 290.365C120.821 300.908 143.843 307.573 168.175 309.268C195.254 311.153 221.541 307.248 247.003 297.873C271.558 288.833 293.349 275.1 313.438 258.509C313.48 258.475 313.523 258.441 313.568 258.407L313.568 258.407C313.826 258.21 314.103 257.999 314.061 257.521C311.859 256.81 309.562 256.657 307.271 256.504C306.923 256.48 306.576 256.457 306.23 256.432C295.438 255.65 284.895 253.639 274.64 250.161C255.468 243.658 239.22 232.653 225.276 218.098C218.78 211.317 213.25 203.868 209.305 195.293C203.362 182.374 202.378 168.905 204.832 155.074C208.287 135.595 218.112 120.335 235.134 109.983C245.553 103.648 257.005 100.32 269.034 98.8153C277.198 97.7942 285.097 98.6138 292.56 102.321C309.459 110.714 319.584 130.256 316.681 148.873C315.55 156.129 311.914 160.16 305.4 161.311C303.87 161.582 302.313 161.638 300.754 161.567C299.636 161.516 298.519 161.439 297.402 161.363C294.864 161.19 292.325 161.016 289.777 161.139C285.991 161.321 283.233 163.074 281.768 166.635C280.229 170.378 280.422 173.893 283.278 177.013C285.697 179.657 288.594 181.557 292.053 182.509C302.629 185.42 312.117 182.914 320.072 175.752C329.105 167.62 332.724 156.743 333.333 144.907C333.954 132.837 330.322 121.757 324.106 111.539C311.674 91.1026 288.793 77.4566 260.987 83.5471C251.978 85.5204 243.503 88.955 235.251 92.9637C218.497 101.102 205.573 113.149 197.974 130.368C192.549 142.661 187.791 155.217 184.14 168.172C177.315 192.386 163.702 211.464 141.933 224.578C119.168 238.291 95.1173 243.071 69.1236 236.094C58.6591 233.285 49.167 228.685 41.9866 220.416C27.8645 204.154 25.1503 185.607 31.9024 165.466C33.7352 159.999 36.5084 154.984 40.8413 151.024C47.0995 145.303 54.2435 143.724 62.2688 146.68C65.9204 148.025 68.958 150.321 71.8709 152.859C76.4728 156.868 81.7165 157.49 87.2477 155.136C91.4023 153.369 93.7465 149.574 93.1344 145.288C92.2947 139.409 89.6419 134.561 84.087 131.747C81.5095 130.441 78.8656 129.287 76.1388 128.329C65.1483 124.468 54.3691 124.444 43.9489 130.205ZM183.265 205.862C175.649 217.502 165.304 226.162 153.37 233.27C146.891 237.078 140.31 240.411 133.468 243.215C115.365 250.634 96.6736 253.481 77.2259 250.404C73.7697 249.858 70.3561 249.116 66.967 248.251C66.8464 248.22 66.72 248.178 66.5911 248.134C66.0622 247.956 65.4925 247.765 65.1248 248.315C64.6944 248.959 65.1569 249.416 65.5851 249.84C65.6863 249.94 65.7856 250.038 65.8707 250.136C66.3398 250.678 66.8788 251.167 67.4285 251.63C98.5486 277.851 134.63 291.19 175.12 292.962C189.13 293.575 203.085 292.721 216.954 290.638C230.367 288.624 243.363 285.18 255.501 278.963C261.041 276.125 266.421 273.01 271.085 268.815C272.378 267.652 272.355 267.628 270.698 266.957C269.93 266.647 269.16 266.34 268.391 266.033L268.39 266.033L268.39 266.033C266.427 265.25 264.465 264.468 262.529 263.623C247.207 256.936 233.451 247.905 221.68 235.983C208.895 223.033 199.608 207.823 192.9 190.974C192.826 190.786 192.759 190.592 192.692 190.398C192.494 189.824 192.293 189.242 191.87 188.763C191.386 189.067 191.267 189.494 191.153 189.902C191.131 189.98 191.109 190.058 191.085 190.134C191.073 190.173 191.06 190.212 191.046 190.25C189.028 195.742 186.471 200.962 183.265 205.862ZM148.02 -92.8267C160.137 -92.3769 171.696 -90.1537 182.295 -84.373C196.425 -76.6662 207.147 -65.8325 212.375 -50.2418C215.305 -41.5034 215.893 -32.5071 214.722 -23.4289C213.487 -13.8653 208.461 -6.37345 201.287 -0.181168C198.463 2.25711 195.406 4.37362 192.194 6.26013C187.704 8.89702 179.48 8.34394 175.409 5.09419C171.782 2.19957 171.227 -1.66117 172.265 -5.89758C173.536 -11.0832 177.958 -15.7869 184.071 -16.6104C191.59 -17.6234 195.952 -22.6409 198.051 -29.6849C199.656 -35.0723 199.36 -40.4379 197.278 -45.6776C192.674 -57.2675 184.274 -65.2038 173.249 -70.6094C166.293 -74.0202 159.009 -76.2303 151.224 -76.5328C138.264 -77.0364 126.624 -73.2275 116.544 -65.1713C104.442 -55.5001 96.0318 -42.9802 90.8661 -28.5197C79.2125 4.10303 83.0055 34.8241 103.491 63.0661C107.36 68.4 111.847 73.2334 116.333 78.0652L116.333 78.0655C117.934 79.7904 119.535 81.5152 121.108 83.2625C121.714 83.935 122.32 84.6066 122.927 85.2781C128.832 91.8146 134.737 98.3509 139.484 105.834C150.464 123.141 154.299 141.981 151.663 162.23C150.541 170.856 148.59 179.297 145.383 187.367C138.871 203.758 126.894 214.645 110.319 220.151C90.9007 226.601 72.3207 224.172 55.2955 212.749C46.4064 206.784 40.2192 198.406 37.8339 187.816C35.6688 178.203 37.5605 169.269 44.0977 161.623C46.9087 158.336 50.4389 156.116 54.6806 155.06C59.093 153.961 62.384 155.672 64.972 159.105C67.4196 162.352 67.4913 165.77 65.3981 169.21C64.2693 171.065 63.1087 172.9 61.9481 174.736C61.151 175.997 60.3538 177.257 59.567 178.524C58.419 180.373 57.4955 182.329 57.023 184.467C55.9147 189.482 57.9532 193.409 61.5164 196.645C69.848 204.211 79.7958 207.62 90.9475 207.455C107.825 207.207 120.846 199.988 128.482 184.796C140.631 160.626 140.772 136.191 126.357 113.044C115.679 95.8984 99.7292 85.3105 79.3364 82.3631C68.6387 80.817 58.088 81.9668 47.6497 84.5736C25.6269 90.0734 6.21885 100.269 -9.82823 116.506C-14.6383 121.373 -18.931 126.675 -22.8699 132.271C-24.3459 134.369 -25.8861 136.421 -27.4263 138.473C-27.9852 139.218 -28.5441 139.963 -29.1 140.71L-29.1243 140.742C-29.4456 141.175 -29.7846 141.631 -30.4504 141.473C-31.0274 141.336 -31.0522 140.892 -31.0761 140.464C-31.0797 140.398 -31.0834 140.333 -31.089 140.269C-31.4852 135.777 -31.9658 131.293 -32.4464 126.808C-33.497 117.003 -34.5476 107.198 -34.7166 97.3205C-35.1613 71.3295 -29.7955 46.4923 -19.6944 22.6291C-13.7507 8.58759 -6.71017 -4.88493 2.12468 -17.3434C11.6168 -30.7288 23.457 -41.8375 36.2803 -51.9578C50.0098 -62.7932 64.4923 -72.4148 80.5197 -79.5742C98.8329 -87.7546 117.971 -92.3216 138.046 -92.8938C141.323 -92.9872 144.593 -93.0434 148.02 -92.8267ZM76.7449 -59.4647L101.213 -70.389L94.6126 -62.1196C64.1366 -23.9371 62.3505 29.7263 90.2202 69.8508C54.4309 60.2793 16.2261 69.2492 -11.5639 93.7483L-17.7078 99.1646C-22.9018 31.6429 14.9072 -31.8556 76.7449 -59.4647Z" fill="url(#paint2_linear_10238_38682)"/>
</g>
</g>
<defs>
<linearGradient id="paint0_linear_10238_38682" x1="99.569" y1="76.9232" x2="425.116" y2="95.4435" gradientUnits="userSpaceOnUse">
<stop stop-color="#363C4A"/>
<stop offset="1" stop-color="#030321"/>
</linearGradient>
<linearGradient id="paint1_linear_10238_38682" x1="74.1959" y1="46.084" x2="511.772" y2="60.3083" gradientUnits="userSpaceOnUse">
<stop stop-color="#92FFC0"/>
<stop offset="1" stop-color="#00A5E6"/>
</linearGradient>
<linearGradient id="paint2_linear_10238_38682" x1="83.089" y1="58.276" x2="469.173" y2="70.9985" gradientUnits="userSpaceOnUse">
<stop stop-color="#92FFC0"/>
<stop offset="1" stop-color="#00A5E6"/>
</linearGradient>
<clipPath id="clip0_10238_38682">
<rect width="350" height="200" fill="white"/>
</clipPath>
</defs>
</svg>
