<svg width="350" height="200" viewBox="0 0 350 200" fill="none" xmlns="http://www.w3.org/2000/svg">
<g clip-path="url(#clip0_10238_38702)">
<rect width="350" height="200" fill="url(#paint0_linear_10238_38702)"/>
<g opacity="0.12">
<path fill-rule="evenodd" clip-rule="evenodd" d="M165.209 137.363C170.952 134.821 176.141 132.17 179.024 126.557C179.334 125.961 180.753 125.607 181.574 125.74C182.062 125.806 182.793 127.021 182.749 127.684C182.315 133.716 181.801 139.732 181.248 146.208C181.151 147.347 181.052 148.5 180.953 149.67C180.725 149.5 180.421 149.326 180.092 149.138C179.271 148.668 178.298 148.111 177.981 147.306C176.074 142.555 174.744 142.224 169.378 142.909C154.587 144.809 139.641 146.4 125.671 139.175C112.233 132.214 105.425 121.011 105.093 105.809C104.893 96.2408 105.337 86.8718 109.86 78.1658C116.047 66.2336 125.959 58.9638 138.909 55.7819C151.283 52.7326 163.701 53.8595 176.54 55.6714C176.921 54.6684 177.284 53.6467 177.65 52.6186C178.606 49.9324 179.577 47.2021 180.909 44.6452C181.561 43.386 183.575 42.6849 185.181 42.1255L185.432 42.0378C186.075 41.8169 187.738 42.6123 187.827 43.1648C188.005 44.0707 187.605 45.4628 186.918 46.0815C180.952 51.4977 179.338 58.719 177.723 65.9422C177.447 67.1766 177.171 68.411 176.873 69.6365C176.697 70.382 176.327 71.0791 175.955 71.7791L175.955 71.7792C175.765 72.1373 175.574 72.4962 175.409 72.8626C175.108 72.6669 174.768 72.4933 174.428 72.3195C173.694 71.9437 172.957 71.5666 172.593 70.9623C167.737 62.9191 160.242 58.7871 151.239 58.5882C146.959 58.4998 141.859 60.3559 138.444 63.0075C129.374 70.0563 126.292 80.4196 124.828 91.6668C141.659 93.2136 158.002 94.5394 174.544 86.8277C173.274 92.3993 172.139 97.4331 170.984 102.556L170.982 102.567L170.98 102.575C170.583 104.333 170.184 106.103 169.777 107.908C169.005 107.231 168.309 106.529 167.645 105.859C166.25 104.452 164.997 103.189 163.479 102.605C160.264 101.345 156.649 100.726 153.19 100.616C148.591 100.464 143.984 100.486 139.375 100.508C135.917 100.524 132.457 100.54 128.997 100.483C126.048 100.439 124.828 101.301 124.961 104.394C125.516 118.05 132.811 134.114 146.227 137.805C152.613 139.572 158.689 138.976 165.209 137.407V137.363ZM218.027 106.01C229.025 104.618 237.829 107.225 244.947 115.357V115.313C246.632 117.263 248.266 119.214 249.885 121.146L249.885 121.147L249.885 121.147C253.273 125.191 256.595 129.157 260.181 132.88C261.206 133.94 262.221 135.015 263.237 136.091L263.237 136.091L263.237 136.091C270.095 143.351 276.989 150.65 287.013 153.96C293.687 156.169 300.273 156.744 306.682 153.297C309.986 151.529 310.274 149.629 308.034 147.353C307.479 147.698 306.945 148.073 306.416 148.445C305.316 149.217 304.235 149.977 303.023 150.424C295.528 153.164 289.097 150.469 284.396 144.922C279.405 139.062 275.149 132.546 270.924 126.076C270.624 125.619 270.326 125.161 270.027 124.704C269.334 123.642 269.153 122.268 268.97 120.876L268.97 120.875L268.97 120.875C268.849 119.951 268.727 119.018 268.452 118.163C268.232 117.466 268.038 116.725 267.844 115.977L267.843 115.977L267.843 115.977C267.235 113.642 266.61 111.243 265.082 109.921C261.721 107.01 257.425 105.075 253.292 103.213L253.174 103.16C251.585 102.443 249.794 102.17 247.739 101.857C246.753 101.707 245.706 101.548 244.592 101.326C252.353 97.282 258.385 92.8627 263.086 86.5872C270.67 76.4891 268.652 61.7065 258.496 55.3647C252.109 51.3653 245.102 49.3987 238.073 49.9069C232.738 50.2963 227.474 51.6498 222.205 53.0046L222.205 53.0046C219.7 53.6488 217.194 54.2932 214.678 54.8344C214.098 54.9608 213.515 55.0938 212.932 55.2272C210.352 55.8169 207.751 56.4114 205.165 56.4475C201.401 56.5145 197.624 56.2261 193.854 55.9383C192.649 55.8463 191.445 55.7544 190.242 55.6741C187.359 55.4752 185.784 56.3812 186.738 60.005C187.686 60.0922 188.651 60.1488 189.622 60.2058C191.851 60.3366 194.11 60.4693 196.273 60.9773C198.313 61.4413 200.863 62.5903 201.75 64.2255C202.821 66.2317 202.796 68.9594 202.773 71.413L202.77 71.672C202.744 73.9737 202.719 76.2754 202.693 78.577L202.693 78.5815L202.693 78.586C202.502 95.8808 202.311 113.174 201.861 130.449C201.684 137.387 200.22 138.558 194.189 139.243C192.792 139.409 191.395 139.58 189.998 139.752C188.601 139.923 187.204 140.094 185.807 140.26C184.831 144.083 186.805 144.657 189.732 144.392C191.622 144.221 193.51 144.019 195.398 143.818L195.399 143.818C199.866 143.34 204.329 142.863 208.802 142.801C213.551 142.735 218.3 142.942 223.048 143.149C226.305 143.29 229.561 143.432 232.817 143.486C233.564 143.501 234.322 142.973 235.076 142.448C235.418 142.209 235.76 141.971 236.099 141.785C235.762 141.524 235.438 141.227 235.114 140.931C234.395 140.274 233.681 139.62 232.839 139.376C232.108 139.166 231.298 139.227 230.489 139.288C229.68 139.348 228.87 139.409 228.138 139.199C227.307 138.963 226.372 138.86 225.429 138.755C222.576 138.438 219.657 138.115 219.357 134.095C218.875 127.552 218.622 120.988 218.368 114.409V114.409C218.26 111.612 218.152 108.812 218.027 106.01ZM228.87 100.464C221.863 100.464 218.359 96.9064 218.359 89.7913L218.337 89.7692C219.18 80.8421 220 72.7106 220.865 64.6011C221.656 57.251 227.415 55.9811 232.995 54.7508C233.202 54.7051 233.409 54.6594 233.616 54.6135C238.516 53.5307 242.197 56.4254 244.548 59.9829C251.954 71.1859 251.444 86.7419 241.776 96.5086C239.159 99.1381 236.188 100.795 232.329 100.464C231.561 100.405 230.792 100.425 230.023 100.444C229.639 100.454 229.255 100.464 228.87 100.464ZM94.7853 142.047C95.7838 143.471 96.792 144.91 97.7952 146.379L97.8618 146.401C98.5416 146.982 99.1868 147.563 99.8169 148.13C101.201 149.375 102.512 150.556 103.96 151.528C109.747 155.395 115.801 158.842 123.119 158.09C124.627 157.936 126.179 156.256 127.266 154.931C127.687 154.4 127.066 152.08 126.623 151.992C125.248 151.682 123.54 151.66 122.298 152.257C118.285 154.157 114.759 152.655 112.187 150.136C102.785 140.921 96.2208 130.403 96.2208 116.416C96.2208 103.578 85.2221 92.6181 72.4716 92.7286H67.7483C71.7816 89.1027 75.8715 85.6425 79.9221 82.2156L79.9223 82.2154C90.2134 73.5087 100.251 65.0167 108.461 54.5678C97.1743 53.9491 86.3752 53.927 75.5761 54.0153C74.6669 54.0153 73.3142 54.5899 72.9373 55.2969C72.3829 56.2913 72.0724 57.9927 72.5825 58.7882C73.0925 59.5616 74.7778 59.9593 75.9087 59.9151C77.8961 59.8177 79.8835 59.5415 81.8973 59.2615C82.6247 59.1604 83.3556 59.0588 84.0912 58.965C84.446 69.3283 61.5172 95.2255 51.3833 97.3689C51.3833 93.7196 51.376 90.0532 51.3686 86.3755C51.3538 78.9855 51.3389 71.5495 51.3833 64.1135C51.4055 59.7605 54.1552 58.3242 58.1245 58.2358C60.0759 58.1916 62.1159 58.059 63.9121 57.3961C64.7025 57.1084 65.3261 56.3327 65.9473 55.5601L65.9474 55.56C66.2325 55.2055 66.5171 54.8515 66.817 54.5457C66.3736 54.396 65.921 54.1843 65.4688 53.9728C64.5189 53.5285 63.571 53.0851 62.7147 53.2199C52.9799 54.7666 43.2895 55.5842 33.4217 54.0595C30.6711 53.6332 27.8467 53.742 25.0212 53.8508H25.0212L25.0211 53.8508C23.7466 53.8999 22.4718 53.9491 21.2034 53.9491C21.1036 54.17 21.0093 54.3855 20.9151 54.6009L20.9151 54.601C20.8208 54.8164 20.7266 55.0318 20.6268 55.2528C20.9748 55.5587 21.308 55.9085 21.6414 56.2585L21.6414 56.2585L21.6414 56.2585C22.3917 57.0461 23.1428 57.8346 24.0639 58.1253C25.2254 58.503 26.4677 58.6254 27.7128 58.7481H27.7129C28.7262 58.848 29.7414 58.948 30.7164 59.1859C31.8916 59.4732 33.5769 60.2024 33.8652 61.1084C34.5748 63.3622 34.8853 65.837 34.8631 68.2014C34.6413 87.6685 34.3531 107.136 33.9983 126.603C33.9539 129.276 33.6213 131.972 33.0891 134.602C32.6234 136.922 31.9138 139.087 28.7428 139.33C26.9604 139.465 25.1952 139.795 23.4326 140.123C21.7306 140.441 20.031 140.758 18.3206 140.899C16.0145 141.076 14.3957 141.805 15.2162 144.125C15.5266 145.031 17.8106 145.871 19.0968 145.738C22.4809 145.404 25.8584 144.959 29.2356 144.515C34.5553 143.814 39.8746 143.114 45.2187 142.844C50.1198 142.614 55.0528 143 59.9588 143.383L59.9592 143.383C62.1339 143.553 64.3033 143.723 66.4622 143.838C67.327 140.524 66.5066 139.109 63.513 139.242L63.1921 139.257C61.4318 139.342 59.6377 139.428 57.9027 139.22C54.4434 138.778 51.2059 138.292 51.2059 133.408C51.2059 128.151 51.019 122.885 50.8321 117.621C50.7103 114.19 50.5885 110.761 50.5185 107.334C50.4963 106.495 51.1616 105.523 51.7603 104.815C56.2618 99.6006 61.6724 99.4018 67.3492 103.976C75.8746 110.839 81.1787 120.04 86.5002 129.272C86.7983 129.789 87.0965 130.306 87.3952 130.823C89.6112 134.663 92.1644 138.307 94.7853 142.047ZM326.989 138.234C324.583 137.597 322.153 136.954 319.678 136.127C319.566 135.084 319.434 134.065 319.305 133.065C318.975 130.506 318.661 128.068 318.725 125.653C319.19 106.253 319.745 86.874 320.432 67.4952C320.742 58.8997 320.964 58.8555 329.346 58.281C329.512 58.2645 329.702 58.2818 329.886 58.2986C330.194 58.3267 330.485 58.3532 330.61 58.2147C331.269 57.482 331.875 56.6861 332.479 55.8925C332.749 55.5372 333.019 55.1824 333.293 54.8339C332.918 54.6607 332.543 54.442 332.167 54.2233C331.345 53.7442 330.523 53.265 329.701 53.265C317.328 53.1325 304.954 53.0883 292.58 53.265C291.714 53.2802 290.869 54.0423 290.023 54.805C289.635 55.1554 289.246 55.5058 288.855 55.784C289.171 56.0388 289.481 56.3424 289.792 56.6467C290.506 57.3453 291.223 58.0473 292.026 58.1705C293.14 58.3451 294.292 58.3 295.439 58.2551C296.76 58.2034 298.076 58.1519 299.322 58.4356C300.763 58.7671 302.714 60.3138 302.958 61.5954C303.69 65.4624 303.912 69.4618 303.956 73.4171C304.178 91.5142 304.156 109.589 301.339 127.51C301.06 129.285 300.917 130.794 300.795 132.076C300.243 137.91 300.135 139.052 289.609 139.287C286.992 139.331 285.196 140.171 286.238 143.839C288.437 143.721 290.629 143.576 292.817 143.431C297.624 143.111 302.409 142.794 307.194 142.778C311.318 142.767 315.449 142.944 319.58 143.122C323.31 143.282 327.04 143.442 330.765 143.463C331.723 143.463 332.69 142.779 333.661 142.092C334.107 141.776 334.554 141.46 335.001 141.209C334.563 141.002 334.131 140.771 333.7 140.54C332.801 140.059 331.902 139.578 330.943 139.309C329.629 138.933 328.313 138.584 326.989 138.234Z" fill="url(#paint1_linear_10238_38702)"/>
</g>
</g>
<defs>
<linearGradient id="paint0_linear_10238_38702" x1="99.569" y1="76.9232" x2="425.116" y2="95.4435" gradientUnits="userSpaceOnUse">
<stop stop-color="#363C4A"/>
<stop offset="1" stop-color="#030321"/>
</linearGradient>
<linearGradient id="paint1_linear_10238_38702" x1="106.035" y1="86.6901" x2="402.267" y2="113.212" gradientUnits="userSpaceOnUse">
<stop stop-color="#92FFC0"/>
<stop offset="1" stop-color="#00A5E6"/>
</linearGradient>
<clipPath id="clip0_10238_38702">
<rect width="350" height="200" fill="white"/>
</clipPath>
</defs>
</svg>
