<svg xmlns="http://www.w3.org/2000/svg" width="90" height="30" viewBox="0 0 90 30" fill="none">
  <g clip-path="url(#clip0_3266_24529)" filter="url(#filter0_d_3266_24529)">
    <path d="M69.1152 15.921C67.7806 14.3963 66.1299 13.9074 64.0676 14.1684C64.1466 15.9293 64.1882 17.686 64.3171 19.4344C64.392 20.437 65.3358 20.2133 65.9636 20.3914C66.238 20.4701 66.5706 20.3458 66.845 20.4246C67.0737 20.4909 67.2525 20.7187 67.4562 20.8762C67.2525 20.988 67.0446 21.1993 66.8409 21.1952C65.3399 21.1703 63.839 21.046 62.338 21.0667C61.1447 21.0833 59.9556 21.2573 58.7623 21.3651C58.2135 21.4148 57.8434 21.307 58.0264 20.5903C58.5502 20.5281 59.0741 20.4619 59.598 20.3997C60.7289 20.2713 61.0033 20.0517 61.0366 18.7507C61.1322 15.0799 61.1655 11.405 61.2071 7.73002C61.2112 7.25771 61.2237 6.72324 61.0158 6.33379C60.8495 6.0272 60.3714 5.81176 59.9888 5.72475C59.4068 5.58803 58.7872 5.59631 58.201 5.54245C58.0222 4.86298 58.3174 4.69311 58.8579 4.7304C59.7893 4.79255 60.7248 4.89198 61.6561 4.87541C62.2507 4.86712 62.8494 4.7014 63.4398 4.57296C64.9034 4.25808 66.3503 3.75677 67.8263 3.64904C69.1443 3.55375 70.4582 3.92249 71.6556 4.6724C73.5599 5.86147 73.9382 8.63323 72.5163 10.5266C71.6348 11.7033 70.5039 12.5319 69.0487 13.2901C69.6931 13.4185 70.217 13.4351 70.6577 13.634C71.4394 13.9861 72.2543 14.3507 72.8905 14.9018C73.2688 15.2291 73.352 15.9086 73.5225 16.4472C73.6514 16.849 73.6015 17.3421 73.8177 17.6735C74.6659 18.9703 75.5099 20.2878 76.5119 21.4645C77.3934 22.5044 78.5991 23.0099 80.0045 22.4961C80.3412 22.3718 80.624 22.1191 80.9441 21.9202C81.3641 22.347 81.31 22.7033 80.6905 23.0347C79.4889 23.6811 78.254 23.5733 77.0025 23.159C74.8446 22.4464 73.4601 20.7477 71.9716 19.2065C70.9779 18.1748 70.0923 17.0438 69.1152 15.9127M64.13 11.1274C64.13 12.4615 64.7869 13.1285 66.1008 13.1285C66.317 13.1285 66.5332 13.1119 66.7494 13.1285C67.4729 13.1907 68.03 12.8799 68.5206 12.3869C70.3334 10.5556 70.4291 7.63888 69.0404 5.53831C68.5996 4.87127 67.9094 4.32852 66.9906 4.53153C65.9095 4.77183 64.7537 4.97485 64.5998 6.40422C64.4377 7.92475 64.2838 9.44942 64.1259 11.1232L64.13 11.1274Z" fill="#F6F6F6"/>
    <path d="M42.048 21.7376C41.3661 20.7392 40.6717 19.8152 40.098 18.8209C39.0419 16.9938 38.0274 15.1459 36.3393 13.787C35.2749 12.9294 34.2604 12.9667 33.4164 13.9444C33.3041 14.077 33.1794 14.2593 33.1836 14.4167C33.2168 16.045 33.3124 17.6774 33.3124 19.3056C33.3124 20.2213 33.9195 20.3124 34.5681 20.3953C34.9132 20.4367 35.2708 20.416 35.62 20.3994C36.1813 20.3746 36.3352 20.6397 36.173 21.2612C34.855 21.1908 33.5162 21.0126 32.1898 21.0747C30.5517 21.1576 28.926 21.4559 27.292 21.6175C27.0508 21.6424 26.6226 21.4849 26.5643 21.315C26.4105 20.88 26.714 20.7433 27.1464 20.7102C27.7992 20.6563 28.4437 20.4657 29.1006 20.416C29.6952 20.3704 29.8282 19.9644 29.9155 19.5294C30.0153 19.0363 30.0777 18.5309 30.086 18.0295C30.1525 14.3795 30.2066 10.7294 30.2481 7.07927C30.2523 6.63595 30.1941 6.17192 30.061 5.74933C30.007 5.57946 29.691 5.44273 29.4706 5.38887C29.0632 5.28944 28.6183 5.31844 28.2233 5.19C27.9738 5.11128 27.7909 4.83784 27.5788 4.6514C27.6163 4.56853 27.6495 4.48981 27.6869 4.40695C28.452 4.40695 29.2295 4.31166 29.9779 4.42767C31.8281 4.71354 33.6451 4.56025 35.4703 4.27023C35.7073 4.23294 35.9817 4.43181 36.2395 4.51882C36.0607 4.70111 35.9111 4.97456 35.6949 5.05328C35.3581 5.17757 34.9756 5.20243 34.6097 5.21072C33.8654 5.22729 33.3499 5.49659 33.3457 6.31279C33.3332 8.40093 33.3457 10.4891 33.3457 12.5482C35.2458 12.1463 39.545 7.29057 39.4785 5.34744C38.9587 5.41373 38.4515 5.50074 37.9442 5.5256C37.7322 5.53388 37.4162 5.45931 37.3206 5.3143C37.2249 5.16514 37.2831 4.84612 37.3871 4.65968C37.4578 4.5271 37.7114 4.41938 37.8819 4.41938C39.9067 4.40281 41.9315 4.40695 44.0479 4.52296C41.9024 7.25328 39.0918 9.27098 36.4142 11.6781C36.7676 11.6781 37.0337 11.6781 37.2998 11.6781C39.6905 11.6574 41.7528 13.7124 41.7528 16.1196C41.7528 18.7422 42.9835 20.7143 44.7464 22.442C45.2287 22.9143 45.8898 23.196 46.6423 22.8397C46.8752 22.7279 47.1953 22.732 47.4531 22.79C47.5363 22.8066 47.6527 23.2416 47.5737 23.341C47.3699 23.5896 47.0789 23.9045 46.7962 23.9335C45.4241 24.0744 44.289 23.428 43.2038 22.703C42.8088 22.4378 42.4679 22.0898 42.0604 21.7418L42.048 21.7376Z" fill="#F6F6F6"/>
    <path d="M54.1638 20.0475C55.2406 19.5711 56.2136 19.0739 56.7541 18.0215C56.8123 17.9097 57.0784 17.8434 57.2322 17.8682C57.3237 17.8807 57.4609 18.1086 57.4526 18.2328C57.357 19.5628 57.2405 20.8886 57.1158 22.3553C56.9661 22.2434 56.6418 22.1232 56.5587 21.9119C56.2011 21.0212 55.9516 20.959 54.9454 21.0875C52.1722 21.4438 49.3698 21.7421 46.7504 20.3873C44.2308 19.0822 42.9544 16.9816 42.892 14.1311C42.8546 12.3372 42.9377 10.5805 43.7859 8.9481C44.946 6.71081 46.8045 5.34772 49.2326 4.75111C51.5527 4.17936 53.8811 4.39066 56.2884 4.7304C56.5462 4.05092 56.7624 3.32588 57.1075 2.66298C57.2364 2.41439 57.648 2.28181 57.9557 2.17409C58.0763 2.13265 58.3881 2.28181 58.4047 2.38539C58.438 2.55525 58.3632 2.81627 58.2343 2.93228C56.9246 4.12136 56.7333 5.77446 56.3508 7.34885C56.3009 7.56015 56.1678 7.75073 56.0764 7.95375C55.8976 7.83774 55.6481 7.76316 55.5483 7.59744C54.6378 6.08934 53.2324 5.31458 51.5444 5.27729C50.7419 5.26072 49.7856 5.60874 49.1453 6.10591C47.4448 7.42757 46.8669 9.3707 46.5924 11.4795C49.7482 11.7696 52.8125 12.0182 55.9142 10.5722C55.5941 11.9767 55.3196 13.1989 55.0203 14.5247C54.5712 14.1311 54.2594 13.692 53.8395 13.5304C53.2366 13.2942 52.5589 13.1782 51.9103 13.1575C50.401 13.1078 48.8875 13.1575 47.3741 13.1327C46.8211 13.1244 46.5924 13.286 46.6174 13.866C46.7213 16.4264 48.0892 19.4385 50.6047 20.1304C51.8021 20.4618 52.9414 20.35 54.1638 20.0558V20.0475Z" fill="#F6F6F6"/>
    <path d="M83.127 19.8154C83.8463 20.0557 84.5448 20.2132 85.2391 20.412C85.5052 20.4866 85.7464 20.6482 86 20.7683C85.7339 20.9175 85.4678 21.1909 85.2059 21.1909C83.734 21.1827 82.258 21.0584 80.7861 21.0625C79.4806 21.0666 78.175 21.1909 76.857 21.2614C76.6616 20.5736 76.9984 20.4162 77.489 20.4079C79.8964 20.354 79.3974 20.0474 79.6885 18.1996C80.2165 14.8395 80.2207 11.4504 80.1791 8.05723C80.1708 7.31561 80.1292 6.5657 79.992 5.84066C79.9463 5.60035 79.5804 5.31034 79.3101 5.24819C78.8735 5.14875 78.3912 5.2689 77.9422 5.19847C77.726 5.16533 77.5431 4.90845 77.3476 4.75101C77.5805 4.58529 77.8091 4.28284 78.0461 4.2787C80.3662 4.24555 82.6862 4.25384 85.0063 4.2787C85.2308 4.2787 85.4553 4.46928 85.6799 4.57286C85.5135 4.78416 85.3555 5.00789 85.1768 5.20676C85.1393 5.24819 85.0229 5.2109 84.9398 5.21919C83.3681 5.32691 83.3265 5.33519 83.2683 6.94687C83.1394 10.5804 83.0355 14.2139 82.9482 17.8516C82.9316 18.4813 83.0521 19.1194 83.127 19.8154Z" fill="#F6F6F6"/>
    <path d="M13.7043 18.1377C12.6981 16.7788 11.6836 15.4198 11.2013 13.7626C11.168 13.6507 11.2138 13.5181 11.1722 13.3524C11.1181 13.3068 11.1098 13.311 11.1098 13.311C11.6337 13.195 12.1576 13.0789 12.7979 12.9588C12.96 12.9588 13.0016 12.9712 13.0474 12.9754C13.4673 14.2017 13.9704 15.3825 14.9766 16.2567C15.0223 16.207 15.0182 16.1987 14.9766 16.236C15.0015 16.3313 15.0722 16.3893 15.1387 16.4432C15.1512 16.3686 15.1637 16.2982 15.1803 16.1739C15.1803 16.091 15.1803 16.0579 15.1803 16.0247C15.7 14.8936 16.3861 13.8081 16.6937 12.6232C17.0056 11.4258 16.9391 10.1332 17.043 8.81152C17.3548 8.92339 17.8247 9.08911 18.3776 9.28798C18.5107 9.35842 18.5606 9.39156 18.6271 9.48685C18.7394 9.55729 18.835 9.56972 18.9223 9.58214C18.9182 9.58214 18.914 9.56972 18.8807 9.64429C19.1635 12.5942 18.3319 15.1215 16.4567 17.3422C16.3736 17.3422 16.3403 17.3422 16.2696 17.3422C16.2322 17.3381 16.1615 17.3132 16.1532 17.2676C16.0742 17.1848 15.9994 17.1475 15.9287 17.1102C15.9578 17.1889 15.9869 17.2676 16.0285 17.4002C17.2675 18.0714 18.4982 18.6887 19.7289 19.3641C19.7289 19.5919 19.7289 19.7577 19.7289 19.9234C19.7289 19.9234 19.7289 19.9234 19.6749 19.9234C19.4919 20.0311 19.3714 20.143 19.2425 20.2921C19.2383 20.3626 19.2342 20.3916 19.1676 20.4164C19.0429 20.52 18.9805 20.6319 18.9182 20.7313C18.9182 20.7272 18.9306 20.7272 18.8849 20.6774C18.702 20.7147 18.5647 20.8059 18.4234 20.8887C18.4234 20.8846 18.4275 20.8763 18.4275 20.8763C17.1594 20.201 15.8954 19.5256 14.5816 18.9C14.5358 18.9498 14.5442 18.958 14.5899 18.9125C14.4984 18.7923 14.3612 18.7177 14.2157 18.5893C14.0411 18.3987 13.8748 18.2703 13.7084 18.1377H13.7043Z" fill="#F6F6F6"/>
    <path d="M19.2217 20.4204C19.2217 20.3914 19.2258 20.3624 19.284 20.2878C19.467 20.1345 19.5959 20.0309 19.7206 19.9232C19.7206 19.9232 19.7206 19.9232 19.7664 19.8984C19.8952 19.7243 19.9742 19.5752 20.1114 19.426C21.0428 18.6761 21.4128 17.6486 21.6415 16.5797C21.7371 16.1405 21.8577 16.1861 22.182 16.385C22.5313 17.052 22.8306 17.6859 23.1258 18.3778C22.9096 18.9289 22.6976 19.4178 22.4772 19.9605C22.1405 20.4743 21.8161 20.93 21.4378 21.3775C21.3131 21.4272 21.2382 21.4769 21.1717 21.5349L21.1758 21.5266C19.7788 22.6825 18.2695 23.6479 16.4318 23.8882C13.6294 24.2528 11.0558 23.7307 8.9062 21.6923C9.99554 21.6923 10.9518 20.959 12.1576 21.5059C14.3238 22.4878 16.4942 22.3179 18.465 20.9217C18.4151 20.872 18.4109 20.8803 18.4566 20.93C18.6396 20.8969 18.7768 20.8098 18.9182 20.7187C18.9182 20.7187 18.9057 20.7187 18.9514 20.7104C19.072 20.6068 19.1427 20.5074 19.2175 20.408L19.2217 20.4204Z" fill="#F6F6F6"/>
    <path d="M18.598 9.43267C18.5481 9.39538 18.5024 9.36224 18.4317 9.28766C17.0638 8.4176 15.646 7.93286 14.0244 8.26845C13.7833 8.31817 13.5006 8.16901 13.2552 7.995C13.3675 7.59312 13.4631 7.30724 13.5588 7.02551C14.1533 6.10159 14.3363 6.14303 15.6002 6.29632C16.9889 6.46205 18.2945 6.7935 19.4753 7.52269C21.7288 8.91063 23.1466 10.9035 23.5998 13.5261C23.6955 14.0688 23.6913 14.6281 23.6705 15.2123C23.6082 15.2455 23.6165 15.2413 23.604 15.1958C23.4917 15.0756 23.3919 15.0052 23.2714 14.8809C22.7142 14.2636 22.182 13.6959 21.6332 13.0703C21.5209 12.9999 21.4253 12.9875 21.3338 12.9792C21.3338 12.9833 21.3463 12.9833 21.3962 12.9336C20.8515 11.5871 20.2112 10.3317 18.9057 9.57353C18.9057 9.57353 18.9057 9.58596 18.8974 9.53625C18.7934 9.46996 18.6936 9.45338 18.598 9.43267Z" fill="#F6F6F6"/>
    <path d="M5.94169 15.3862C5.77538 12.0303 7.86675 8.49618 10.9518 7.15381C10.6857 8.45889 10.5194 9.64383 9.5465 10.721C7.23476 13.2815 7.36781 16.7451 9.43008 19.5915C8.65257 19.5915 7.97485 19.6246 7.30129 19.5708C7.13498 19.5583 6.9354 19.2973 6.83977 19.1067C6.28263 17.9591 5.9209 16.7576 5.93753 15.3862H5.94169Z" fill="#F6F6F6"/>
    <path d="M13.513 6.99661C13.4631 7.30734 13.3675 7.59322 13.2469 7.92881C13.0058 8.74501 12.7854 9.50734 12.536 10.3898C12.1119 10.5141 11.5131 10.6923 10.9103 10.8663C10.4529 8.571 11.5713 4.67646 14.8103 2C16.3445 3.13107 17.3923 4.63089 18.2321 6.54087C16.8725 6.19699 15.5129 6.30057 14.9308 4.73446C14.8477 4.76347 14.7687 4.79247 14.6855 4.82147C14.2822 5.53823 13.8748 6.25499 13.5172 7.00075L13.513 6.99661Z" fill="#F6F6F6"/>
    <path d="M21.6498 13.1242C22.182 13.6918 22.7142 14.2594 23.2672 14.943C23.3961 15.117 23.5084 15.1791 23.6165 15.2413H23.6082C23.6331 15.3946 23.6082 15.5852 23.6872 15.7095C24.764 17.3957 25.3461 19.2104 25.2047 21.4063C24.0322 21.5554 22.8223 21.7129 21.6124 21.8496C21.5085 21.862 21.3879 21.7129 21.2257 21.5886C21.1758 21.5347 21.1758 21.543 21.2091 21.5886C21.3255 21.5513 21.4045 21.4726 21.4877 21.3938C21.8161 20.9381 22.1405 20.4823 22.5396 19.9727C22.9387 19.836 23.2631 19.7532 23.7412 19.6289C23.5292 19.1731 23.3296 18.7505 23.1342 18.3238C22.8306 17.6899 22.5313 17.056 22.1862 16.3351C21.4877 15.0383 20.4108 14.2884 19.2882 13.5675C19.0886 13.439 18.9473 13.0827 18.9348 12.8217C18.9223 12.5068 19.072 12.1837 19.1676 11.8066C19.9202 12.2168 20.6312 12.598 21.338 12.9833C21.338 12.9833 21.3255 12.9833 21.338 13.0247C21.4503 13.0869 21.5459 13.1034 21.6415 13.1242H21.6498Z" fill="#F6F6F6"/>
    <path d="M13.6461 18.1418C13.8706 18.2703 14.0369 18.3987 14.2198 18.6348C14.3363 18.813 14.4361 18.8876 14.5358 18.9622C14.5358 18.9622 14.5317 18.9539 14.5275 18.9497C14.1616 19.2895 13.8498 19.7245 13.4299 19.9648C10.5194 21.6138 7.46759 21.8292 4.31183 20.7396C4.23698 20.7147 4.15383 20.7147 4.00415 20.694C3.96673 18.8544 4.56129 17.2096 5.51343 15.6187C5.85714 17.0522 5.89317 18.3517 5.62153 19.5173C7.7919 20.2672 9.87911 19.9234 11.9164 19.045C12.4944 18.7964 13.0307 18.4526 13.6419 18.1501L13.6461 18.1418Z" fill="#F6F6F6"/>
    <path d="M11.1223 13.2985C10.1618 13.8661 9.19724 14.4379 8.23679 15.0055C7.98732 14.1479 8.33658 13.2115 8.74404 12.3622C8.9353 11.9686 9.55481 11.7324 10.0205 11.5253C12.1617 10.5724 14.3779 10.071 16.6355 10.5806C16.6355 11.0447 16.6147 11.4631 16.6397 11.8816C16.6688 12.4119 16.3694 12.5818 15.9329 12.4782C14.2365 12.0722 12.6939 12.6108 11.1306 13.253C11.1057 13.311 11.114 13.3027 11.1181 13.2985H11.1223Z" fill="#F6F6F6"/>
    <path d="M13.0425 12.9257C13.0053 12.9671 12.9597 12.9629 12.8561 12.9339C12.8768 12.9008 12.9597 12.8884 13.0425 12.9257Z" fill="#F6F6F6"/>
    <path d="M15.13 16.041C15.1714 16.0576 15.1756 16.0907 15.1341 16.1653C15.0927 16.2067 15.014 16.1985 15.014 16.1985C15.014 16.1985 15.0181 16.2067 15.0223 16.2109C15.0471 16.1612 15.0679 16.1114 15.13 16.041Z" fill="#F6F6F6"/>
    <path d="M19.7206 19.3638C19.8162 19.31 19.916 19.3224 20.0366 19.3762C19.9784 19.5751 19.8994 19.7243 19.7705 19.8983C19.7206 19.7574 19.7206 19.5917 19.7206 19.3638Z" fill="#F6F6F6"/>
    <path d="M19.6624 19.9233C19.5917 20.0269 19.4628 20.1346 19.284 20.2424C19.3547 20.1388 19.4795 20.0311 19.6624 19.9233Z" fill="#F6F6F6"/>
    <path d="M16.1441 17.2634C16.1524 17.309 16.082 17.3338 16.0447 17.338C15.9784 17.2634 15.9494 17.1847 15.9204 17.106C15.9908 17.1432 16.0654 17.1805 16.1441 17.2634Z" fill="#F6F6F6"/>
    <path d="M18.8724 20.6772C18.781 20.814 18.6437 20.901 18.4566 20.9424C18.5481 20.8057 18.6895 20.7187 18.8724 20.6772Z" fill="#F6F6F6"/>
    <path d="M19.1544 20.416C19.1462 20.5196 19.0716 20.6149 18.9514 20.7268C18.968 20.6315 19.0301 20.5237 19.1544 20.416Z" fill="#F6F6F6"/>
    <path d="M14.5816 18.9125C14.4361 18.8876 14.3404 18.813 14.2282 18.6929C14.3529 18.7219 14.4901 18.7923 14.5816 18.9125Z" fill="#F6F6F6"/>
    <path d="M14.9724 16.2358C15.018 16.1985 15.0967 16.2068 15.134 16.2151C15.1589 16.2979 15.1464 16.3725 15.134 16.4429C15.0636 16.3849 14.9973 16.3269 14.9724 16.2358Z" fill="#F6F6F6"/>
    <path d="M18.6146 9.49073C18.6936 9.45344 18.7893 9.47001 18.9015 9.5363C18.8225 9.57359 18.7269 9.56116 18.6146 9.49073Z" fill="#F6F6F6"/>
    <path d="M16.4438 17.3418C16.4397 17.3708 16.3817 17.3957 16.3112 17.3832C16.3278 17.3418 16.3609 17.3418 16.4438 17.3418Z" fill="#F6F6F6"/>
    <path d="M21.4411 21.3813C21.4121 21.4642 21.3334 21.5471 21.2091 21.5802C21.2423 21.4808 21.3168 21.4311 21.4411 21.3813Z" fill="#F6F6F6"/>
    <path d="M23.604 15.1918C23.5084 15.1752 23.4003 15.1131 23.2922 14.9888C23.3919 14.9971 23.4917 15.0716 23.604 15.1918Z" fill="#F6F6F6"/>
    <path d="M21.6332 13.0661C21.5542 13.1034 21.4586 13.0869 21.3463 13.0164C21.4253 12.9791 21.5209 12.9957 21.6332 13.0661Z" fill="#F6F6F6"/>
  </g>
  <defs>
    <filter id="filter0_d_3266_24529" x="0" y="0" width="90" height="30" filterUnits="userSpaceOnUse" color-interpolation-filters="sRGB">
      <feFlood flood-opacity="0" result="BackgroundImageFix"/>
      <feColorMatrix in="SourceAlpha" type="matrix" values="0 0 0 0 0 0 0 0 0 0 0 0 0 0 0 0 0 0 127 0" result="hardAlpha"/>
      <feOffset dy="2"/>
      <feGaussianBlur stdDeviation="2"/>
      <feComposite in2="hardAlpha" operator="out"/>
      <feColorMatrix type="matrix" values="0 0 0 0 0.4 0 0 0 0 0.466667 0 0 0 0 0.270588 0 0 0 0.5 0"/>
      <feBlend mode="normal" in2="BackgroundImageFix" result="effect1_dropShadow_3266_24529"/>
      <feBlend mode="normal" in="SourceGraphic" in2="effect1_dropShadow_3266_24529" result="shape"/>
    </filter>
    <clipPath id="clip0_3266_24529">
      <rect width="82" height="22" fill="white" transform="translate(4 2)"/>
    </clipPath>
  </defs>
</svg>
