<svg width="350" height="200" viewBox="0 0 350 200" fill="none" xmlns="http://www.w3.org/2000/svg">
<g clip-path="url(#clip0_10238_38711)">
<rect width="350" height="200" fill="url(#paint0_linear_10238_38711)"/>
<g opacity="0.3" clip-path="url(#clip1_10238_38711)">
<path d="M64.2346 200.5C62.7243 196.751 61.2324 193.059 60.2191 189.24C58.3341 182.136 56.1765 175.034 55.1595 167.788C54.1268 160.429 53.9693 152.888 54.1166 145.441C54.2291 139.755 55.2739 134.069 56.1501 128.42C58.9521 110.359 66.2595 94.1203 76.3126 78.9927C81.7451 70.818 88.6832 63.9968 95.5617 57.1111C106.276 46.3858 117.001 35.6714 127.726 24.9579C131.585 21.1033 131.784 21.0922 135.617 24.9205C152.884 42.1679 170.142 59.4242 187.398 76.6818C190.733 80.0167 190.737 80.576 187.43 83.8879C177.838 93.4964 168.24 103.1 158.636 112.696C155.357 115.973 154.612 115.984 151.316 112.745C146.682 108.192 142.153 103.53 137.439 99.063C133.027 94.882 130.458 94.9969 126.07 99.1446C120.428 104.48 116.492 111.006 112.652 117.678C107.844 126.033 106.385 135.336 104.676 144.516C103.936 148.494 104.623 152.806 105.08 156.921C105.571 161.355 106.285 165.802 107.371 170.126C110.015 180.649 115.481 189.703 122.53 197.857C123.182 198.611 123.796 199.396 124.464 200.333C104.49 200.5 84.4793 200.5 64.2346 200.5Z" fill="#455030"/>
<path d="M350.5 171.267C341.874 162.941 333.221 154.409 324.627 145.819C276.992 98.2012 229.372 50.5697 181.75 2.94089C181.044 2.23491 180.365 1.50155 179.587 0.640456C203.511 0.499944 227.522 0.499944 251.726 0.675261C252.298 1.38373 252.616 1.9794 253.07 2.44008C256.519 5.93755 259.991 9.41351 263.464 12.8871C291.67 41.0938 319.875 69.3016 348.105 97.4846C348.757 98.136 349.695 98.5012 350.5 98.9999C350.5 123.011 350.5 147.023 350.5 171.267Z" fill="#455030"/>
<path d="M145.235 200.5C143.741 198.974 142.638 197.277 141.194 195.952C134.617 189.912 129.125 183.111 125.432 174.903C123.117 169.756 122.89 169.683 126.85 165.568C132.972 159.206 139.269 153.012 145.514 146.769C170.022 122.267 194.539 97.773 219.055 73.2779C219.762 72.5715 220.463 71.8563 221.209 71.1929C224.478 68.2877 225.071 68.2675 228.19 71.3628C234.931 78.0527 241.627 84.7875 248.342 91.5034C251.463 94.6257 254.599 97.7346 257.705 100.872C260.087 103.278 260.124 103.52 257.939 105.957C255.994 108.126 253.978 110.235 251.926 112.304C232.57 131.823 213.233 151.362 193.817 170.821C185.228 179.429 176.458 187.856 167.803 196.398C166.631 197.555 165.652 198.906 164.542 200.334C158.156 200.5 151.813 200.5 145.235 200.5Z" fill="#485926"/>
<path d="M238.734 200.5C237.789 199.597 237.157 198.616 236.354 197.804C229.153 190.525 221.899 183.298 214.713 176.003C212.67 173.928 212.656 173.095 214.748 170.982C224.999 160.63 235.291 150.318 245.61 140.033C247.45 138.199 248.889 138.29 251.02 140.287C253.083 142.22 255.01 144.3 257.01 146.302C274.492 163.789 291.977 181.273 309.458 198.76C309.929 199.231 310.368 199.732 310.911 200.359C286.989 200.5 262.979 200.5 238.734 200.5Z" fill="#485926"/>
<path d="M350.5 14.7657C349.508 15.6912 348.392 16.2562 347.545 17.093C338.484 26.0397 329.435 34.999 320.462 44.0337C318.736 45.7713 317.618 45.8294 315.825 44.0071C305.669 33.6848 295.375 23.4982 285.15 13.2434C282.279 10.3634 282.321 10.3207 285.159 7.2595C287.128 5.13668 289.069 2.98916 291.011 0.676334C310.774 0.5 330.549 0.5 350.5 0.5C350.5 5.17564 350.5 9.85349 350.5 14.7657Z" fill="#485926"/>
</g>
</g>
<defs>
<linearGradient id="paint0_linear_10238_38711" x1="-18" y1="-10.0003" x2="591.431" y2="12.6661" gradientUnits="userSpaceOnUse">
<stop stop-color="#222222"/>
<stop offset="1" stop-color="#697949"/>
</linearGradient>
<clipPath id="clip0_10238_38711">
<rect width="350" height="200" fill="white"/>
</clipPath>
<clipPath id="clip1_10238_38711">
<rect width="350" height="200" fill="white"/>
</clipPath>
</defs>
</svg>
