<svg width="350" height="200" viewBox="0 0 350 200" fill="none" xmlns="http://www.w3.org/2000/svg">
<g clip-path="url(#clip0_10238_38523)">
<rect width="350" height="200" fill="url(#paint0_linear_10238_38523)"/>
<g opacity="0.3">
<path d="M244.946 115.355C237.828 107.223 229.024 104.616 218.026 106.008C218.447 115.399 218.669 124.768 219.356 134.093C219.755 139.44 224.789 138.247 228.137 139.197C229.601 139.617 231.375 138.954 232.838 139.374C234.058 139.727 235.012 140.942 236.098 141.782C235.012 142.379 233.903 143.506 232.816 143.484C224.811 143.351 216.806 142.688 208.801 142.799C202.437 142.887 196.095 143.815 189.731 144.39C186.804 144.655 184.83 144.08 185.806 140.257C188.6 139.926 191.394 139.572 194.188 139.241C200.219 138.556 201.683 137.385 201.86 130.447C202.37 110.869 202.548 91.2693 202.769 71.6696C202.792 69.1506 202.858 66.3001 201.749 64.223C200.862 62.5879 198.312 61.4389 196.272 60.9748C193.168 60.2457 189.864 60.2898 186.737 60.0026C185.784 56.3787 187.358 55.4728 190.241 55.6717C195.208 56.0031 200.197 56.5334 205.164 56.445C208.335 56.4008 211.528 55.517 214.677 54.832C222.483 53.1526 230.2 50.479 238.072 49.9044C245.101 49.3962 252.108 51.3628 258.495 55.3623C268.651 61.704 270.669 76.4867 263.085 86.5848C258.384 92.8602 252.352 97.2796 244.591 101.323C248.028 102.008 250.822 102.097 253.173 103.157C257.342 105.035 261.688 106.98 265.081 109.919C267.099 111.664 267.542 115.288 268.451 118.161C269.139 120.304 268.873 122.934 270.026 124.701C274.549 131.618 279.051 138.644 284.395 144.92C289.096 150.466 295.527 153.162 303.022 150.422C304.818 149.759 306.326 148.411 308.033 147.35C310.273 149.626 309.985 151.527 306.681 153.294C300.272 156.742 293.686 156.167 287.012 153.957C275.503 150.157 268.119 141.097 260.18 132.877C254.88 127.375 250.157 121.343 244.946 115.31M218.358 89.7888C218.358 96.9039 221.862 100.461 228.869 100.461C230.022 100.461 231.175 100.373 232.328 100.461C236.187 100.793 239.158 99.1357 241.775 96.5062C251.443 86.7395 251.953 71.1835 244.547 59.9805C242.196 56.4229 238.515 53.5283 233.615 54.611C227.849 55.8926 221.685 56.9754 220.864 64.5987C219.999 72.7081 219.179 80.8397 218.336 89.7667L218.358 89.7888Z" fill="#8DA851"/>
<path d="M97.7952 146.377C94.1586 141.051 90.4554 136.124 87.3952 130.821C81.7628 121.076 76.3522 111.221 67.3492 103.973C61.6724 99.3993 56.2618 99.5982 51.7603 104.813C51.1616 105.52 50.4963 106.492 50.5185 107.332C50.6959 116.016 51.2059 124.722 51.2059 133.406C51.2059 138.289 54.4434 138.775 57.9027 139.217C59.7432 139.438 61.6503 139.328 63.513 139.24C66.5066 139.107 67.327 140.521 66.4622 143.836C59.4328 143.46 52.2925 142.51 45.2187 142.841C36.4818 143.283 27.8115 144.874 19.0968 145.736C17.8106 145.868 15.5266 145.029 15.2162 144.123C14.3957 141.803 16.0145 141.074 18.3206 140.897C21.8021 140.609 25.2392 139.593 28.7428 139.328C31.9138 139.085 32.6234 136.919 33.0891 134.599C33.6213 131.97 33.9539 129.274 33.9983 126.6C34.3531 107.133 34.6413 87.666 34.8631 68.1989C34.8853 65.8346 34.5748 63.3598 33.8652 61.1059C33.5769 60.2 31.8916 59.4708 30.7164 59.1835C28.5432 58.6532 26.1705 58.8079 24.0639 58.1229C22.7334 57.703 21.7577 56.2447 20.6268 55.2503C20.8264 54.8084 21.0038 54.3885 21.2034 53.9466C25.2836 53.9466 29.4302 53.4384 33.4217 54.0571C43.2895 55.5818 52.9799 54.7642 62.7147 53.2174C63.9786 53.0186 65.4422 54.0792 66.817 54.5432C65.8635 55.5155 65.0652 56.9738 63.9121 57.3937C62.1159 58.0566 60.0759 58.1892 58.1245 58.2334C54.1552 58.3217 51.4055 59.758 51.3833 64.1111C51.3168 75.2477 51.3833 86.3844 51.3833 97.3664C61.5172 95.2231 84.446 69.3258 84.0912 58.9625C81.3193 59.3161 78.614 59.7801 75.9087 59.9127C74.7778 59.9569 73.0925 59.5592 72.5825 58.7858C72.0724 57.9903 72.3829 56.2889 72.9373 55.2945C73.3142 54.5874 74.6669 54.0129 75.5761 54.0129C86.3752 53.9245 97.1743 53.9466 108.461 54.5653C97.0191 69.127 82.0289 79.888 67.7483 92.7262C69.6332 92.7262 71.0524 92.7262 72.4716 92.7262C85.2221 92.6157 96.2208 103.576 96.2208 116.414C96.2208 130.401 102.785 140.919 112.187 150.133C114.759 152.652 118.285 154.155 122.298 152.254C123.54 151.658 125.248 151.68 126.623 151.989C127.066 152.078 127.687 154.398 127.266 154.928C126.179 156.254 124.627 157.933 123.119 158.088C115.801 158.839 109.747 155.392 103.96 151.525C101.853 150.111 100.035 148.255 97.8618 146.399L97.7952 146.377Z" fill="#8DA851"/>
<path d="M165.206 137.363C170.949 134.821 176.138 132.17 179.021 126.557C179.331 125.961 180.75 125.607 181.571 125.74C182.059 125.806 182.79 127.021 182.746 127.684C182.236 134.777 181.615 141.848 180.95 149.67C180.152 149.074 178.422 148.433 177.979 147.306C176.072 142.555 174.741 142.224 169.375 142.909C154.584 144.809 139.638 146.4 125.668 139.174C112.23 132.214 105.423 121.011 105.09 105.809C104.89 96.2408 105.334 86.8718 109.857 78.1658C116.044 66.2336 125.956 58.9638 138.907 55.7819C151.28 52.7326 163.698 53.8595 176.537 55.6714C177.912 52.0476 179.065 48.1807 180.906 44.6452C181.593 43.3194 183.788 42.6123 185.429 42.0378C186.072 41.8169 187.736 42.6123 187.824 43.1648C188.002 44.0707 187.602 45.4628 186.915 46.0815C179.93 52.4232 178.91 61.2398 176.87 69.6365C176.604 70.7634 175.894 71.7799 175.406 72.8626C174.453 72.2439 173.122 71.8462 172.59 70.9623C167.734 62.9191 160.239 58.7871 151.236 58.5882C146.956 58.4998 141.856 60.3559 138.441 63.0075C129.371 70.0563 126.289 80.4196 124.826 91.6668C141.656 93.2136 157.999 94.5394 174.541 86.8276C172.834 94.3184 171.37 100.837 169.774 107.908C167.379 105.809 165.716 103.466 163.476 102.605C160.261 101.345 156.646 100.726 153.187 100.616C145.138 100.351 137.066 100.616 128.994 100.483C126.045 100.439 124.825 101.301 124.959 104.394C125.513 118.05 132.808 134.114 146.224 137.805C152.611 139.572 158.686 138.976 165.206 137.407V137.363Z" fill="#98B15D"/>
<path d="M319.677 136.125C323.513 137.406 327.239 138.246 330.942 139.307C332.361 139.704 333.647 140.566 335 141.207C333.581 142.003 332.162 143.461 330.764 143.461C322.915 143.417 315.043 142.754 307.193 142.776C300.23 142.798 293.267 143.461 286.237 143.837C285.195 140.169 286.991 139.329 289.608 139.285C302.447 138.997 299.786 137.362 301.338 127.507C304.155 109.587 304.177 91.5118 303.955 73.4147C303.911 69.4594 303.689 65.4599 302.957 61.593C302.713 60.3114 300.762 58.7646 299.321 58.4332C296.992 57.9029 294.42 58.5437 292.025 58.168C290.872 57.9913 289.896 56.6213 288.854 55.7816C290.096 54.8977 291.315 53.2847 292.579 53.2626C304.953 53.0858 317.327 53.13 329.7 53.2626C330.898 53.2626 332.095 54.279 333.292 54.8314C332.405 55.9584 331.563 57.1516 330.609 58.2122C330.41 58.4332 329.789 58.2343 329.345 58.2785C320.963 58.853 320.741 58.8972 320.431 67.4928C319.744 86.8715 319.189 106.25 318.724 125.651C318.635 129.01 319.278 132.413 319.677 136.125Z" fill="#98B15D"/>
</g>
</g>
<defs>
<linearGradient id="paint0_linear_10238_38523" x1="99.569" y1="76.9231" x2="580.321" y2="77.5587" gradientUnits="userSpaceOnUse">
<stop stop-color="#667745"/>
<stop offset="0.364583" stop-color="#879E54"/>
<stop offset="0.692708" stop-color="#A8C55F"/>
<stop offset="1" stop-color="#B9CF7C"/>
</linearGradient>
<clipPath id="clip0_10238_38523">
<rect width="350" height="200" fill="white"/>
</clipPath>
</defs>
</svg>
