<svg width="98" height="32" viewBox="0 0 98 32" fill="none" xmlns="http://www.w3.org/2000/svg">
<g filter="url(#filter0_d_311_1646)">
<path d="M73.0348 17.1864C71.5788 15.5231 69.7781 14.9898 67.5283 15.2745C67.6145 17.1954 67.6599 19.1118 67.8005 21.0192C67.8821 22.113 68.9118 21.8689 69.5967 22.0632C69.896 22.1491 70.2589 22.0135 70.5582 22.0994C70.8077 22.1717 71.0027 22.4203 71.225 22.592C71.0027 22.7141 70.776 22.9446 70.5537 22.9401C68.9163 22.913 67.2789 22.7774 65.6415 22.8C64.3397 22.818 63.0425 23.0079 61.7407 23.1254C61.142 23.1796 60.7383 23.0621 60.9379 22.2802C61.5094 22.2124 62.0809 22.1401 62.6524 22.0723C63.8861 21.9322 64.1855 21.6926 64.2218 20.2734C64.3261 16.2689 64.3624 12.2598 64.4077 8.2508C64.4123 7.73555 64.4259 7.1525 64.1991 6.72764C64.0177 6.39318 63.496 6.15815 63.0787 6.06323C62.4437 5.91408 61.7679 5.92312 61.1284 5.86436C60.9333 5.12312 61.2554 4.93781 61.845 4.97849C62.861 5.04628 63.8816 5.15476 64.8976 5.13668C65.5462 5.12764 66.1994 4.94685 66.8434 4.80673C68.44 4.46323 70.0185 3.91634 71.6287 3.79882C73.0665 3.69487 74.4998 4.09713 75.8061 4.91521C77.8835 6.21238 78.2963 9.23611 76.745 11.3017C75.7834 12.5853 74.5497 13.4892 72.9622 14.3163C73.6652 14.4565 74.2368 14.4745 74.7175 14.6915C75.5703 15.0757 76.4593 15.4734 77.1533 16.0745C77.566 16.4316 77.6567 17.1728 77.8427 17.7604C77.9833 18.1988 77.9289 18.7367 78.1647 19.0983C79.09 20.513 80.0108 21.9502 81.1039 23.2339C82.0655 24.3683 83.3809 24.9197 84.914 24.3593C85.2814 24.2237 85.5898 23.948 85.939 23.731C86.3972 24.1966 86.3382 24.5853 85.6624 24.9468C84.3515 25.6519 83.0044 25.5344 81.6391 25.0824C79.2851 24.305 77.7747 22.4519 76.1508 20.7706C75.0668 19.6452 74.1007 18.4113 73.0348 17.1774M67.5964 11.957C67.5964 13.4124 68.313 14.1401 69.7463 14.1401C69.9822 14.1401 70.2181 14.122 70.4539 14.1401C71.2431 14.2079 71.8509 13.8689 72.3862 13.331C74.3638 11.3333 74.4681 8.15137 72.9531 5.85984C72.4723 5.13216 71.7194 4.54007 70.717 4.76154C69.5377 5.02368 68.2767 5.24515 68.1089 6.80447C67.932 8.46323 67.7642 10.1265 67.5918 11.9525L67.5964 11.957Z" fill="#EEEFF2"/>
</g>
<g filter="url(#filter1_d_311_1646)">
<path d="M43.5069 23.5322C42.763 22.4429 42.0055 21.435 41.3796 20.3503C40.2275 18.357 39.1208 16.3412 37.2792 14.8587C36.1181 13.9232 35.0113 13.9638 34.0906 15.0305C33.9681 15.1751 33.832 15.374 33.8366 15.5458C33.8729 17.322 33.9772 19.1028 33.9772 20.8791C33.9772 21.878 34.6394 21.9774 35.347 22.0678C35.7235 22.113 36.1135 22.0904 36.4945 22.0723C37.1069 22.0452 37.2747 22.3345 37.0978 23.0124C35.66 22.9356 34.1994 22.7412 32.7525 22.809C30.9654 22.8994 29.1919 23.2248 27.4094 23.4011C27.1463 23.4282 26.6791 23.2565 26.6156 23.0712C26.4478 22.5966 26.7789 22.4474 27.2506 22.4113C27.9628 22.3525 28.6658 22.1446 29.3825 22.0904C30.0311 22.0407 30.1762 21.5977 30.2715 21.1232C30.3803 20.5853 30.4484 20.0339 30.4574 19.487C30.53 15.5051 30.589 11.5232 30.6343 7.54123C30.6389 7.05762 30.5754 6.5514 30.4302 6.09038C30.3713 5.90507 30.0265 5.75592 29.7861 5.69716C29.3416 5.58869 28.8563 5.62033 28.4254 5.48021C28.1533 5.39434 27.9537 5.09603 27.7224 4.89264C27.7632 4.80225 27.7995 4.71637 27.8403 4.62598C28.6749 4.62598 29.5231 4.52202 30.3395 4.64858C32.3579 4.96044 34.3401 4.79321 36.3313 4.47682C36.5898 4.43615 36.8892 4.6531 37.1704 4.74801C36.9753 4.94688 36.8121 5.24519 36.5762 5.33106C36.2088 5.46665 35.7915 5.49377 35.3924 5.50281C34.5805 5.52089 34.018 5.81468 34.0135 6.70507C33.9999 8.98304 34.0135 11.261 34.0135 13.5073C36.0863 13.0689 40.7763 7.77174 40.7037 5.65197C40.1368 5.72428 39.5834 5.8192 39.03 5.84632C38.7987 5.85536 38.454 5.774 38.3497 5.61581C38.2454 5.4531 38.3089 5.10507 38.4223 4.90168C38.4994 4.75705 38.776 4.63954 38.962 4.63954C41.1709 4.62146 43.3799 4.62598 45.6886 4.75253C43.3481 7.73106 40.2819 9.93219 37.3609 12.5582C37.7464 12.5582 38.0367 12.5582 38.327 12.5582C40.9351 12.5356 43.1848 14.7774 43.1848 17.4034C43.1848 20.2644 44.5274 22.4158 46.4506 24.3006C46.9767 24.8158 47.6979 25.1232 48.5189 24.7345C48.7729 24.6124 49.1221 24.6169 49.4034 24.6802C49.4941 24.6983 49.6211 25.1729 49.5349 25.2813C49.3126 25.5525 48.9951 25.896 48.6867 25.9277C47.1899 26.0813 45.9516 25.3763 44.7678 24.5853C44.3369 24.296 43.965 23.9164 43.5205 23.5367L43.5069 23.5322Z" fill="#EEEFF2"/>
</g>
<g filter="url(#filter2_d_311_1646)">
<path d="M56.7241 21.6882C57.8989 21.1684 58.9603 20.626 59.5499 19.478C59.6134 19.356 59.9037 19.2837 60.0715 19.3108C60.1713 19.3243 60.321 19.5729 60.3119 19.7085C60.2076 21.1594 60.0806 22.6057 59.9445 24.2057C59.7813 24.0837 59.4275 23.9526 59.3368 23.7221C58.9467 22.7503 58.6745 22.6825 57.5769 22.8226C54.5515 23.2113 51.4944 23.5368 48.6369 22.0588C45.8882 20.6351 44.4957 18.3435 44.4277 15.2339C44.3868 13.2769 44.4776 11.3605 45.4029 9.5797C46.6683 7.13902 48.6958 5.65201 51.3447 5.00117C53.8757 4.37744 56.4157 4.60795 59.0419 4.97857C59.3231 4.23733 59.559 3.44636 59.9355 2.7232C60.0761 2.45201 60.5251 2.30738 60.8608 2.18987C60.9923 2.14467 61.3325 2.30738 61.3506 2.42038C61.3869 2.60569 61.3053 2.89043 61.1647 3.01699C59.7359 4.31416 59.5273 6.11755 59.11 7.83507C59.0555 8.06557 58.9104 8.27348 58.8106 8.49495C58.6156 8.3684 58.3434 8.28704 58.2346 8.10625C57.2412 6.46105 55.7081 5.61586 53.8666 5.57518C52.9912 5.5571 51.948 5.93676 51.2495 6.47913C49.3943 7.92094 48.7639 10.0407 48.4645 12.3413C51.9072 12.6577 55.25 12.9289 58.6337 11.3515C58.2845 12.8837 57.9851 14.217 57.6585 15.6633C57.1687 15.2339 56.8285 14.7548 56.3704 14.5786C55.7127 14.3209 54.9733 14.1944 54.2658 14.1718C52.6193 14.1176 50.9682 14.1718 49.3172 14.1447C48.714 14.1356 48.4645 14.3119 48.4917 14.9447C48.6051 17.7379 50.0974 21.0238 52.8415 21.7786C54.1478 22.1402 55.3906 22.0181 56.7241 21.6972V21.6882Z" fill="#EEEFF2"/>
</g>
<g filter="url(#filter3_d_311_1646)">
<path d="M88.3203 21.435C89.105 21.6972 89.867 21.8689 90.6245 22.0859C90.9148 22.1672 91.1779 22.3435 91.4545 22.4746C91.1643 22.6373 90.874 22.9356 90.5882 22.9356C88.9825 22.9266 87.3723 22.791 85.7667 22.7955C84.3424 22.8 82.9182 22.9356 81.4804 23.0124C81.2672 22.2622 81.6346 22.0904 82.1698 22.0814C84.796 22.0226 84.2517 21.6881 84.5692 19.6723C85.1453 16.0068 85.1498 12.3096 85.1045 8.60792C85.0954 7.79888 85.05 6.9808 84.9004 6.18984C84.8505 5.92769 84.4513 5.61131 84.1565 5.54351C83.6802 5.43504 83.1541 5.56611 82.6642 5.48927C82.4284 5.45312 82.2288 5.17289 82.0156 5.00114C82.2696 4.82035 82.5191 4.4904 82.7776 4.48588C85.3086 4.44973 87.8395 4.45877 90.3705 4.48588C90.6154 4.48588 90.8604 4.69379 91.1053 4.80679C90.9239 5.0373 90.7515 5.28136 90.5565 5.49831C90.5156 5.54351 90.3886 5.50283 90.2979 5.51187C88.5834 5.62939 88.538 5.63843 88.4745 7.39662C88.3339 11.3605 88.2205 15.3243 88.1253 19.2927C88.1071 19.9797 88.2387 20.6757 88.3203 21.435Z" fill="#EEEFF2"/>
</g>
<g filter="url(#filter4_d_311_1646)">
<path d="M12.586 19.6046C11.4883 18.1221 10.3816 16.6396 9.85546 14.8317C9.81918 14.7096 9.86907 14.565 9.82371 14.3842C9.76475 14.3345 9.75568 14.339 9.75568 14.339C10.3272 14.2125 10.8987 14.0859 11.5972 13.9548C11.7741 13.9548 11.8195 13.9684 11.8693 13.9729C12.3275 15.3108 12.8763 16.5989 13.9739 17.5526C14.0238 17.4983 14.0193 17.4893 13.9739 17.53C14.0012 17.6339 14.0783 17.6972 14.1508 17.756C14.1644 17.6746 14.1781 17.5978 14.1962 17.4622C14.1962 17.3718 14.1962 17.3356 14.1962 17.2995C14.7632 16.0656 15.5116 14.8814 15.8472 13.5887C16.1874 12.2825 16.1148 10.8723 16.2282 9.43054C16.5684 9.55258 17.081 9.73337 17.6842 9.95032C17.8294 10.0272 17.8838 10.0633 17.9564 10.1673C18.0788 10.2441 18.1831 10.2577 18.2784 10.2712C18.2739 10.2712 18.2693 10.2577 18.233 10.339C18.5415 13.5571 17.6343 16.3142 15.5887 18.7368C15.498 18.7368 15.4617 18.7368 15.3846 18.7368C15.3437 18.7322 15.2666 18.7051 15.2576 18.6554C15.1714 18.565 15.0897 18.5243 15.0126 18.4836C15.0444 18.5695 15.0761 18.6554 15.1215 18.8C16.4732 19.5322 17.8157 20.2057 19.1583 20.9424C19.1583 21.191 19.1583 21.3718 19.1583 21.5526C19.1583 21.5526 19.1583 21.5526 19.0994 21.5526C18.8998 21.6701 18.7683 21.7921 18.6277 21.9548C18.6231 22.0317 18.6186 22.0633 18.546 22.0904C18.4099 22.2034 18.3419 22.3255 18.2739 22.4339C18.2739 22.4294 18.2875 22.4294 18.2376 22.3752C18.038 22.4159 17.8883 22.5153 17.7341 22.6057C17.7341 22.6012 17.7386 22.5921 17.7386 22.5921C16.3552 21.8554 14.9764 21.1187 13.543 20.4362C13.4932 20.4904 13.5022 20.4995 13.5521 20.4498C13.4523 20.3187 13.3027 20.2373 13.1439 20.0972C12.9534 19.8893 12.772 19.7492 12.5905 19.6046H12.586Z" fill="#EEEFF2"/>
<path d="M18.6055 22.0949C18.6055 22.0632 18.61 22.0316 18.6735 21.9503C18.8731 21.783 19.0137 21.67 19.1498 21.5525C19.1498 21.5525 19.1498 21.5525 19.1997 21.5254C19.3403 21.3356 19.4265 21.1729 19.5761 21.0101C20.5922 20.1921 20.9958 19.0712 21.2453 17.9051C21.3496 17.426 21.4812 17.4757 21.835 17.6926C22.216 18.4203 22.5425 19.1118 22.8646 19.8666C22.6287 20.4678 22.3974 21.0011 22.157 21.5932C21.7896 22.1536 21.4358 22.6508 21.0231 23.139C20.887 23.1932 20.8053 23.2474 20.7328 23.3107L20.7373 23.3017C19.2133 24.5627 17.5668 25.6158 15.562 25.8779C12.5049 26.2757 9.69723 25.7062 7.35223 23.4825C8.54061 23.4825 9.58384 22.6825 10.8992 23.2791C13.2623 24.3503 15.63 24.1649 17.78 22.6418C17.7256 22.5875 17.721 22.5966 17.7709 22.6508C17.9705 22.6147 18.1202 22.5197 18.2744 22.4203C18.2744 22.4203 18.2608 22.4203 18.3107 22.4113C18.4422 22.2983 18.5193 22.1898 18.601 22.0813L18.6055 22.0949Z" fill="#EEEFF2"/>
<path d="M17.9247 10.1084C17.8702 10.0678 17.8203 10.0316 17.7432 9.95025C16.251 9.0011 14.7043 8.47228 12.9353 8.83839C12.6722 8.89262 12.3638 8.72991 12.0962 8.54008C12.2187 8.10166 12.323 7.7898 12.4273 7.48245C13.0759 6.47454 13.2755 6.51974 14.6544 6.68697C16.1693 6.86776 17.5936 7.22935 18.8817 8.02483C21.3401 9.53895 22.8868 11.713 23.3812 14.574C23.4855 15.1661 23.481 15.7762 23.4583 16.4135C23.3903 16.4497 23.3993 16.4452 23.3857 16.3954C23.2633 16.2644 23.1544 16.1875 23.0229 16.0519C22.4151 15.3785 21.8345 14.7593 21.2358 14.0768C21.1133 14 21.009 13.9864 20.9092 13.9774C20.9092 13.9819 20.9228 13.9819 20.9772 13.9277C20.3831 12.4587 19.6845 11.0892 18.2603 10.2621C18.2603 10.2621 18.2603 10.2757 18.2512 10.2214C18.1378 10.1491 18.029 10.131 17.9247 10.1084Z" fill="#EEEFF2"/>
<path d="M4.11837 16.6034C3.93694 12.9423 6.21843 9.08697 9.58398 7.62256C9.29369 9.04629 9.11226 10.3389 8.05089 11.5141C5.529 14.3073 5.67414 18.0858 7.92389 21.1909C7.0757 21.1909 6.33636 21.2271 5.60157 21.1683C5.42014 21.1548 5.20242 20.87 5.0981 20.6621C4.4903 19.4101 4.09569 18.0994 4.11383 16.6034H4.11837Z" fill="#EEEFF2"/>
<path d="M12.3781 7.45085C12.3236 7.78983 12.2193 8.1017 12.0878 8.4678C11.8247 9.35819 11.5843 10.1898 11.3122 11.1525C10.8495 11.2881 10.1964 11.4825 9.53868 11.6723C9.03975 9.16836 10.2599 4.91977 13.7932 2C15.4669 3.2339 16.61 4.87006 17.5262 6.95367C16.043 6.57853 14.5598 6.69153 13.9248 4.98305C13.8341 5.01469 13.7479 5.04633 13.6572 5.07797C13.2172 5.85989 12.7727 6.64181 12.3826 7.45537L12.3781 7.45085Z" fill="#EEEFF2"/>
<path d="M21.2539 14.1357C21.8344 14.7549 22.415 15.3741 23.0183 16.1198C23.1589 16.3097 23.2814 16.3775 23.3993 16.4453H23.3902C23.4174 16.6125 23.3902 16.8204 23.4764 16.956C24.6512 18.7955 25.2862 20.7752 25.1319 23.1707C23.8529 23.3334 22.5329 23.5051 21.213 23.6543C21.0996 23.6679 20.9681 23.5051 20.7912 23.3695C20.7368 23.3108 20.7368 23.3198 20.7731 23.3695C20.9001 23.3289 20.9862 23.243 21.077 23.1571C21.4353 22.6599 21.7891 22.1628 22.2245 21.6068C22.6599 21.4577 23.0137 21.3673 23.5354 21.2317C23.304 20.7345 23.0863 20.2735 22.8731 19.808C22.542 19.1164 22.2154 18.4249 21.839 17.6385C21.077 16.2238 19.9022 15.4057 18.6775 14.6193C18.4598 14.4792 18.3056 14.0905 18.292 13.8057C18.2784 13.4622 18.4417 13.1097 18.546 12.6984C19.367 13.1458 20.1426 13.5616 20.9137 13.982C20.9137 13.982 20.9001 13.982 20.9137 14.0272C21.0361 14.095 21.1405 14.1131 21.2448 14.1357H21.2539Z" fill="#EEEFF2"/>
<path d="M12.5235 19.6091C12.7684 19.7492 12.9498 19.8893 13.1494 20.147C13.2764 20.3413 13.3853 20.4227 13.4941 20.504C13.4941 20.504 13.4896 20.495 13.485 20.4905C13.0859 20.8611 12.7457 21.3357 12.2876 21.5978C9.11255 23.3967 5.78329 23.6317 2.34064 22.443C2.259 22.4159 2.16828 22.4159 2.00499 22.3933C1.96417 20.3865 2.61279 18.5922 3.65148 16.8566C4.02644 18.4204 4.06575 19.8381 3.76941 21.1097C6.13708 21.9278 8.41404 21.5526 10.6366 20.5944C11.267 20.3232 11.8522 19.9481 12.5189 19.6181L12.5235 19.6091Z" fill="#EEEFF2"/>
<path d="M9.77002 14.3254C8.72226 14.9446 7.66996 15.5683 6.6222 16.1875C6.35005 15.252 6.73105 14.2305 7.17556 13.3039C7.38421 12.8746 8.06004 12.6169 8.56804 12.3909C10.904 11.3514 13.3215 10.8045 15.7845 11.3604C15.7845 11.8666 15.7618 12.3231 15.789 12.7796C15.8207 13.3582 15.4942 13.5435 15.0179 13.4305C13.1673 12.9875 11.4845 13.5751 9.7791 14.2757C9.75188 14.339 9.76095 14.3299 9.76549 14.3254H9.77002Z" fill="#EEEFF2"/>
<path d="M11.865 13.9186C11.8243 13.9638 11.7746 13.9593 11.6616 13.9276C11.6842 13.8915 11.7746 13.8779 11.865 13.9186Z" fill="#EEEFF2"/>
<path d="M14.1414 17.3175C14.1866 17.3356 14.1912 17.3717 14.146 17.4531C14.1008 17.4983 14.0149 17.4893 14.0149 17.4893C14.0149 17.4893 14.0194 17.4983 14.0239 17.5028C14.0511 17.4486 14.0736 17.3943 14.1414 17.3175Z" fill="#EEEFF2"/>
<path d="M19.1498 20.9424C19.2542 20.8837 19.363 20.8972 19.4946 20.956C19.4311 21.1729 19.3449 21.3356 19.2043 21.5255C19.1498 21.3718 19.1498 21.191 19.1498 20.9424Z" fill="#EEEFF2"/>
<path d="M19.0864 21.5525C19.0093 21.6655 18.8687 21.783 18.6736 21.9005C18.7508 21.7875 18.8868 21.67 19.0864 21.5525Z" fill="#EEEFF2"/>
<path d="M15.2476 18.6509C15.2566 18.7006 15.1798 18.7277 15.1391 18.7322C15.0668 18.6509 15.0352 18.565 15.0035 18.4791C15.0804 18.5198 15.1617 18.5605 15.2476 18.6509Z" fill="#EEEFF2"/>
<path d="M18.2249 22.3751C18.1251 22.5243 17.9754 22.6192 17.7713 22.6644C17.8711 22.5152 18.0253 22.4203 18.2249 22.3751Z" fill="#EEEFF2"/>
<path d="M18.5318 22.0905C18.5228 22.2034 18.4414 22.3074 18.3104 22.4294C18.3284 22.3255 18.3962 22.208 18.5318 22.0905Z" fill="#EEEFF2"/>
<path d="M13.5439 20.4498C13.3852 20.4226 13.2809 20.3413 13.1584 20.2102C13.2945 20.2418 13.4441 20.3187 13.5439 20.4498Z" fill="#EEEFF2"/>
<path d="M13.9702 17.5299C14.0199 17.4893 14.1057 17.4983 14.1464 17.5073C14.1735 17.5977 14.16 17.6791 14.1464 17.7559C14.0696 17.6927 13.9973 17.6294 13.9702 17.5299Z" fill="#EEEFF2"/>
<path d="M17.9428 10.1717C18.029 10.131 18.1333 10.1491 18.2558 10.2214C18.1696 10.2621 18.0653 10.2485 17.9428 10.1717Z" fill="#EEEFF2"/>
<path d="M15.5754 18.7367C15.5708 18.7683 15.5076 18.7955 15.4307 18.7819C15.4488 18.7367 15.485 18.7367 15.5754 18.7367Z" fill="#EEEFF2"/>
<path d="M21.0265 23.1434C20.9949 23.2338 20.909 23.3242 20.7734 23.3604C20.8096 23.2519 20.891 23.1977 21.0265 23.1434Z" fill="#EEEFF2"/>
<path d="M23.386 16.391C23.2816 16.3729 23.1637 16.3051 23.0458 16.1696C23.1546 16.1786 23.2635 16.26 23.386 16.391Z" fill="#EEEFF2"/>
<path d="M21.2366 14.0723C21.1504 14.113 21.0461 14.0949 20.9236 14.0181C21.0098 13.9774 21.1141 13.9955 21.2366 14.0723Z" fill="#EEEFF2"/>
</g>
<defs>
<filter id="filter0_d_311_1646" x="58.8863" y="1.78271" width="33.349" height="29.6659" filterUnits="userSpaceOnUse" color-interpolation-filters="sRGB">
<feFlood flood-opacity="0" result="BackgroundImageFix"/>
<feColorMatrix in="SourceAlpha" type="matrix" values="0 0 0 0 0 0 0 0 0 0 0 0 0 0 0 0 0 0 127 0" result="hardAlpha"/>
<feOffset dx="2" dy="2"/>
<feGaussianBlur stdDeviation="2"/>
<feComposite in2="hardAlpha" operator="out"/>
<feColorMatrix type="matrix" values="0 0 0 0 0.305882 0 0 0 0 0.337255 0 0 0 0 0.380392 0 0 0 0.8 0"/>
<feBlend mode="normal" in2="BackgroundImageFix" result="effect1_dropShadow_311_1646"/>
<feBlend mode="normal" in="SourceGraphic" in2="effect1_dropShadow_311_1646" result="shape"/>
</filter>
<filter id="filter1_d_311_1646" x="24.5714" y="2.4718" width="30.9922" height="29.4771" filterUnits="userSpaceOnUse" color-interpolation-filters="sRGB">
<feFlood flood-opacity="0" result="BackgroundImageFix"/>
<feColorMatrix in="SourceAlpha" type="matrix" values="0 0 0 0 0 0 0 0 0 0 0 0 0 0 0 0 0 0 127 0" result="hardAlpha"/>
<feOffset dx="2" dy="2"/>
<feGaussianBlur stdDeviation="2"/>
<feComposite in2="hardAlpha" operator="out"/>
<feColorMatrix type="matrix" values="0 0 0 0 0.305882 0 0 0 0 0.337255 0 0 0 0 0.380392 0 0 0 0.8 0"/>
<feBlend mode="normal" in2="BackgroundImageFix" result="effect1_dropShadow_311_1646"/>
<feBlend mode="normal" in="SourceGraphic" in2="effect1_dropShadow_311_1646" result="shape"/>
</filter>
<filter id="filter2_d_311_1646" x="42.4199" y="0.182129" width="24.9394" height="30.0236" filterUnits="userSpaceOnUse" color-interpolation-filters="sRGB">
<feFlood flood-opacity="0" result="BackgroundImageFix"/>
<feColorMatrix in="SourceAlpha" type="matrix" values="0 0 0 0 0 0 0 0 0 0 0 0 0 0 0 0 0 0 127 0" result="hardAlpha"/>
<feOffset dx="2" dy="2"/>
<feGaussianBlur stdDeviation="2"/>
<feComposite in2="hardAlpha" operator="out"/>
<feColorMatrix type="matrix" values="0 0 0 0 0.305882 0 0 0 0 0.337255 0 0 0 0 0.380392 0 0 0 0.8 0"/>
<feBlend mode="normal" in2="BackgroundImageFix" result="effect1_dropShadow_311_1646"/>
<feBlend mode="normal" in="SourceGraphic" in2="effect1_dropShadow_311_1646" result="shape"/>
</filter>
<filter id="filter3_d_311_1646" x="79.4188" y="2.46204" width="18.0357" height="26.5504" filterUnits="userSpaceOnUse" color-interpolation-filters="sRGB">
<feFlood flood-opacity="0" result="BackgroundImageFix"/>
<feColorMatrix in="SourceAlpha" type="matrix" values="0 0 0 0 0 0 0 0 0 0 0 0 0 0 0 0 0 0 127 0" result="hardAlpha"/>
<feOffset dx="2" dy="2"/>
<feGaussianBlur stdDeviation="2"/>
<feComposite in2="hardAlpha" operator="out"/>
<feColorMatrix type="matrix" values="0 0 0 0 0.305882 0 0 0 0 0.337255 0 0 0 0 0.380392 0 0 0 0.8 0"/>
<feBlend mode="normal" in2="BackgroundImageFix" result="effect1_dropShadow_311_1646"/>
<feBlend mode="normal" in="SourceGraphic" in2="effect1_dropShadow_311_1646" result="shape"/>
</filter>
<filter id="filter4_d_311_1646" x="0.00317383" y="0" width="31.1516" height="31.9952" filterUnits="userSpaceOnUse" color-interpolation-filters="sRGB">
<feFlood flood-opacity="0" result="BackgroundImageFix"/>
<feColorMatrix in="SourceAlpha" type="matrix" values="0 0 0 0 0 0 0 0 0 0 0 0 0 0 0 0 0 0 127 0" result="hardAlpha"/>
<feOffset dx="2" dy="2"/>
<feGaussianBlur stdDeviation="2"/>
<feComposite in2="hardAlpha" operator="out"/>
<feColorMatrix type="matrix" values="0 0 0 0 0.305882 0 0 0 0 0.337255 0 0 0 0 0.380392 0 0 0 0.8 0"/>
<feBlend mode="normal" in2="BackgroundImageFix" result="effect1_dropShadow_311_1646"/>
<feBlend mode="normal" in="SourceGraphic" in2="effect1_dropShadow_311_1646" result="shape"/>
</filter>
</defs>
</svg>
