<svg
  width="82"
  height="32"
  viewBox="0 0 82 32"
  fill="none"
  xmlns="http://www.w3.org/2000/svg"
>
<g clip-path="url(#clip0_4872_26696)">
<g clip-path="url(#clip1_4872_26696)">
<path
        d="M65.1152 13.9209C63.7806 12.3962 62.1299 11.9073 60.0676 12.1684C60.1466 13.9292 60.1882 15.6859 60.3171 17.4343C60.392 18.4369 61.3358 18.2132 61.9636 18.3913C62.238 18.4701 62.5706 18.3458 62.845 18.4245C63.0737 18.4908 63.2525 18.7186 63.4562 18.8761C63.2525 18.9879 63.0446 19.1992 62.8409 19.1951C61.3399 19.1702 59.839 19.0459 58.338 19.0667C57.1447 19.0832 55.9556 19.2572 54.7623 19.365C54.2135 19.4147 53.8434 19.307 54.0264 18.5902C54.5503 18.5281 55.0741 18.4618 55.598 18.3996C56.7289 18.2712 57.0033 18.0516 57.0366 16.7507C57.1322 13.0798 57.1655 9.40489 57.2071 5.72994C57.2112 5.25762 57.2237 4.72316 57.0158 4.33371C56.8495 4.02712 56.3714 3.81167 55.9889 3.72467C55.4068 3.58794 54.7872 3.59623 54.201 3.54237C54.0222 2.8629 54.3174 2.69303 54.8579 2.73032C55.7893 2.79246 56.7248 2.8919 57.6561 2.87533C58.2507 2.86704 58.8494 2.70132 59.4398 2.57288C60.9034 2.258 62.3503 1.75668 63.8263 1.64896C65.1443 1.55367 66.4582 1.92241 67.6556 2.67231C69.5599 3.86139 69.9382 6.63314 68.5163 8.52655C67.6348 9.7032 66.5039 10.5318 65.0487 11.29C65.6931 11.4185 66.217 11.435 66.6578 11.6339C67.4394 11.9861 68.2543 12.3507 68.8905 12.9017C69.2688 13.229 69.352 13.9085 69.5225 14.4471C69.6514 14.849 69.6015 15.342 69.8177 15.6734C70.6659 16.9702 71.5099 18.2878 72.5119 19.4644C73.3934 20.5043 74.5991 21.0098 76.0045 20.496C76.3412 20.3717 76.624 20.119 76.9441 19.9201C77.3641 20.3469 77.31 20.7032 76.6905 21.0346C75.4889 21.681 74.254 21.5733 73.0025 21.1589C70.8446 20.4463 69.4601 18.7476 67.9716 17.2064C66.9779 16.1748 66.0923 15.0437 65.1152 13.9126M60.13 9.1273C60.13 10.4614 60.7869 11.1284 62.1008 11.1284C62.317 11.1284 62.5332 11.1119 62.7494 11.1284C63.4729 11.1906 64.03 10.8798 64.5206 10.3868C66.3334 8.55555 66.4291 5.63879 65.0404 3.53823C64.5996 2.87118 63.9094 2.32843 62.9906 2.53145C61.9095 2.77175 60.7537 2.97476 60.5998 4.40414C60.4377 5.92467 60.2838 7.44934 60.1259 9.12316L60.13 9.1273Z"
        fill="#F6F6F6"
      />
<path
        d="M37.5242 19.7376C36.8423 18.7392 36.1479 17.8152 35.5742 16.8209C34.5181 14.9938 33.5036 13.1459 31.8155 11.787C30.7511 10.9294 29.7366 10.9667 28.8926 11.9444C28.7803 12.077 28.6556 12.2593 28.6597 12.4167C28.693 14.045 28.7886 15.6774 28.7886 17.3056C28.7886 18.2213 29.3957 18.3124 30.0443 18.3953C30.3894 18.4367 30.747 18.416 31.0962 18.3994C31.6575 18.3746 31.8113 18.6397 31.6492 19.2612C30.3312 19.1908 28.9924 19.0126 27.666 19.0747C26.0279 19.1576 24.4022 19.4559 22.7681 19.6175C22.527 19.6424 22.0987 19.4849 22.0405 19.315C21.8867 18.88 22.1902 18.7433 22.6226 18.7102C23.2754 18.6563 23.9199 18.4657 24.5768 18.416C25.1714 18.3704 25.3044 17.9644 25.3917 17.5294C25.4915 17.0363 25.5539 16.5309 25.5622 16.0295C25.6287 12.3795 25.6828 8.72936 25.7243 5.07927C25.7285 4.63595 25.6703 4.17192 25.5372 3.74933C25.4832 3.57946 25.1672 3.44273 24.9468 3.38887C24.5394 3.28944 24.0945 3.31844 23.6995 3.19C23.45 3.11128 23.2671 2.83784 23.055 2.6514C23.0925 2.56853 23.1257 2.48981 23.1631 2.40695C23.9282 2.40695 24.7057 2.31166 25.4541 2.42767C27.3043 2.71354 29.1213 2.56025 30.9465 2.27023C31.1835 2.23294 31.4579 2.43181 31.7157 2.51882C31.5369 2.70111 31.3873 2.97456 31.171 3.05328C30.8343 3.17757 30.4518 3.20243 30.0859 3.21072C29.3416 3.22729 28.8261 3.49659 28.8219 4.31279C28.8094 6.40093 28.8219 8.48906 28.8219 10.5482C30.722 10.1463 35.0212 5.29057 34.9546 3.34744C34.4349 3.41373 33.9277 3.50074 33.4204 3.5256C33.2084 3.53388 32.8924 3.45931 32.7967 3.3143C32.7011 3.16514 32.7593 2.84612 32.8633 2.65968C32.934 2.5271 33.1876 2.41938 33.358 2.41938C35.3829 2.40281 37.4077 2.40695 39.5241 2.52296C37.3786 5.25328 34.568 7.27098 31.8903 9.67814C32.2438 9.67814 32.5099 9.67814 32.776 9.67814C35.1667 9.65742 37.229 11.7124 37.229 14.1196C37.229 16.7422 38.4597 18.7143 40.2226 20.442C40.7049 20.9143 41.366 21.196 42.1185 20.8397C42.3514 20.7279 42.6715 20.732 42.9293 20.79C43.0124 20.8066 43.1289 21.2416 43.0499 21.341C42.8461 21.5896 42.5551 21.9045 42.2724 21.9335C40.9003 22.0744 39.7652 21.428 38.68 20.703C38.285 20.4378 37.9441 20.0898 37.5366 19.7418L37.5242 19.7376Z"
        fill="#F6F6F6"
      />
<path
        d="M50.1638 18.0475C51.2406 17.571 52.2136 17.0738 52.7541 16.0215C52.8123 15.9096 53.0784 15.8433 53.2322 15.8682C53.3237 15.8806 53.4609 16.1085 53.4526 16.2328C53.357 17.5627 53.2405 18.8885 53.1158 20.3552C52.9661 20.2433 52.6418 20.1232 52.5587 19.9119C52.2011 19.0211 51.9516 18.9589 50.9454 19.0874C48.1722 19.4437 45.3698 19.742 42.7504 18.3872C40.2308 17.0821 38.9544 14.9815 38.892 12.1311C38.8546 10.3371 38.9377 8.58041 39.7859 6.94802C40.946 4.71073 42.8045 3.34764 45.2326 2.75103C47.5527 2.17928 49.8811 2.39058 52.2884 2.73032C52.5462 2.05085 52.7624 1.3258 53.1075 0.662899C53.2364 0.414311 53.648 0.281731 53.9557 0.17401C54.0763 0.132579 54.3881 0.281731 54.4047 0.385309C54.438 0.555177 54.3632 0.816194 54.2343 0.932202C52.9246 2.12128 52.7333 3.77439 52.3508 5.34877C52.3009 5.56007 52.1678 5.75066 52.0764 5.95367C51.8976 5.83766 51.6481 5.76309 51.5483 5.59736C50.6378 4.08926 49.2324 3.3145 47.5444 3.27721C46.7419 3.26064 45.7856 3.60866 45.1453 4.10584C43.4448 5.42749 42.8669 7.37062 42.5924 9.47947C45.7482 9.76949 48.8125 10.0181 51.9142 8.57213C51.5941 9.97665 51.3196 11.1989 51.0203 12.5247C50.5712 12.1311 50.2594 11.6919 49.8395 11.5303C49.2366 11.2942 48.5589 11.1782 47.9103 11.1574C46.401 11.1077 44.8875 11.1574 43.3741 11.1326C42.8211 11.1243 42.5924 11.2859 42.6174 11.8659C42.7213 14.4264 44.0892 17.4384 46.6047 18.1303C47.8021 18.4618 48.9414 18.3499 50.1638 18.0557V18.0475Z"
        fill="#F6F6F6"
      />
<path
        d="M79.127 17.8154C79.8463 18.0557 80.5448 18.2132 81.2391 18.4121C81.5052 18.4866 81.7464 18.6482 82 18.7684C81.7339 18.9175 81.4678 19.191 81.2059 19.191C79.734 19.1827 78.258 19.0584 76.7861 19.0625C75.4806 19.0667 74.175 19.191 72.857 19.2614C72.6616 18.5736 72.9984 18.4162 73.489 18.4079C75.8964 18.354 75.3974 18.0475 75.6885 16.1996C76.2165 12.8395 76.2207 9.45047 76.1791 6.05725C76.1708 5.31563 76.1292 4.56573 75.992 3.84068C75.9463 3.60038 75.5804 3.31036 75.3101 3.24821C74.8735 3.14878 74.3912 3.26893 73.9422 3.19849C73.726 3.16535 73.5431 2.90848 73.3476 2.75104C73.5805 2.58531 73.8091 2.28286 74.0461 2.27872C76.3662 2.24558 78.6862 2.25386 81.0063 2.27872C81.2308 2.27872 81.4553 2.4693 81.6799 2.57288C81.5135 2.78418 81.3555 3.00791 81.1768 3.20678C81.1393 3.24821 81.0229 3.21092 80.9398 3.21921C79.3681 3.32693 79.3265 3.33522 79.2683 4.94689C79.1394 8.58041 79.0355 12.2139 78.9482 15.8516C78.9316 16.4814 79.0521 17.1194 79.127 17.8154Z"
        fill="#F6F6F6"
      />
<path
        d="M9.7043 16.1375C8.69811 14.7785 7.68361 13.4196 7.2013 11.7623C7.16804 11.6505 7.21378 11.5179 7.1722 11.3522C7.11815 11.3066 7.10983 11.3107 7.10983 11.3107C7.63371 11.1947 8.1576 11.0787 8.7979 10.9586C8.96005 10.9586 9.00163 10.971 9.04736 10.9751C9.4673 12.2015 9.97039 13.3823 10.9766 14.2565C11.0223 14.2068 11.0182 14.1985 10.9766 14.2358C11.0015 14.3311 11.0722 14.3891 11.1387 14.4429C11.1512 14.3684 11.1637 14.2979 11.1803 14.1736C11.1803 14.0908 11.1803 14.0576 11.1803 14.0245C11.7 12.8934 12.3861 11.8079 12.6937 10.623C13.0056 9.42561 12.9391 8.13296 13.043 6.8113C13.3548 6.92317 13.8247 7.08889 14.3777 7.28776C14.5107 7.35819 14.5606 7.39134 14.6271 7.48663C14.7394 7.55706 14.835 7.56949 14.9223 7.58192C14.9182 7.58192 14.914 7.56949 14.8807 7.64407C15.1635 10.594 14.3319 13.1213 12.4568 15.342C12.3736 15.342 12.3403 15.342 12.2697 15.342C12.2322 15.3379 12.1616 15.313 12.1532 15.2674C12.0742 15.1846 11.9994 15.1473 11.9287 15.11C11.9578 15.1887 11.9869 15.2674 12.0285 15.4C13.2675 16.0712 14.4982 16.6885 15.7289 17.3638C15.7289 17.5917 15.7289 17.7574 15.7289 17.9232C15.7289 17.9232 15.7289 17.9232 15.6749 17.9232C15.4919 18.0309 15.3714 18.1428 15.2425 18.2919C15.2383 18.3623 15.2342 18.3913 15.1676 18.4162C15.0429 18.5198 14.9805 18.6316 14.9182 18.7311C14.9182 18.7269 14.9306 18.7269 14.8849 18.6772C14.702 18.7145 14.5648 18.8057 14.4234 18.8885C14.4234 18.8844 14.4275 18.8761 14.4275 18.8761C13.1594 18.2008 11.8955 17.5254 10.5816 16.8998C10.5359 16.9495 10.5442 16.9578 10.5899 16.9122C10.4984 16.7921 10.3612 16.7175 10.2157 16.5891C10.0411 16.3985 9.87477 16.2701 9.70845 16.1375H9.7043Z"
        fill="#F6F6F6"
      />
<path
        d="M15.2217 18.4203C15.2217 18.3913 15.2258 18.3623 15.284 18.2878C15.467 18.1345 15.5959 18.0309 15.7206 17.9232C15.7206 17.9232 15.7206 17.9232 15.7663 17.8983C15.8952 17.7243 15.9742 17.5751 16.1114 17.426C17.0428 16.6761 17.4128 15.6486 17.6415 14.5797C17.7371 14.1405 17.8577 14.1861 18.182 14.3849C18.5313 15.052 18.8306 15.6859 19.1258 16.3778C18.9096 16.9288 18.6976 17.4177 18.4772 17.9605C18.1404 18.4742 17.8161 18.9299 17.4378 19.3774C17.313 19.4271 17.2382 19.4768 17.1717 19.5348L17.1758 19.5266C15.7788 20.6825 14.2695 21.6478 12.4318 21.8881C9.62944 22.2527 7.05577 21.7307 4.90619 19.6923C5.99553 19.6923 6.95182 18.9589 8.15758 19.5058C10.3238 20.4878 12.4942 20.3179 14.465 18.9217C14.4151 18.8719 14.4109 18.8802 14.4566 18.9299C14.6396 18.8968 14.7768 18.8098 14.9182 18.7186C14.9182 18.7186 14.9057 18.7186 14.9514 18.7104C15.072 18.6068 15.1427 18.5073 15.2175 18.4079L15.2217 18.4203Z"
        fill="#F6F6F6"
      />
<path
        d="M14.598 7.43277C14.5481 7.39548 14.5024 7.36233 14.4317 7.28776C13.0638 6.4177 11.646 5.93296 10.0244 6.26855C9.78329 6.31827 9.50056 6.16911 9.25525 5.9951C9.36751 5.59322 9.46314 5.30734 9.55877 5.02561C10.1533 4.10169 10.3363 4.14312 11.6002 4.29642C12.9889 4.46215 14.2945 4.7936 15.4753 5.52279C17.7288 6.91073 19.1466 8.90358 19.5998 11.5262C19.6955 12.0689 19.6913 12.6282 19.6705 13.2124C19.6082 13.2456 19.6165 13.2414 19.604 13.1959C19.4917 13.0757 19.3919 13.0053 19.2714 12.881C18.7142 12.2637 18.182 11.696 17.6332 11.0704C17.5209 11 17.4253 10.9876 17.3338 10.9793C17.3338 10.9834 17.3463 10.9834 17.3962 10.9337C16.8515 9.58719 16.2112 8.33183 14.9057 7.57363C14.9057 7.57363 14.9057 7.58606 14.8974 7.53635C14.7934 7.47006 14.6936 7.45348 14.598 7.43277Z"
        fill="#F6F6F6"
      />
<path
        d="M1.94169 13.3864C1.77537 10.0305 3.86674 6.49643 6.95183 5.15405C6.68573 6.45914 6.51942 7.64407 5.54649 8.72128C3.23476 11.2817 3.36781 14.7454 5.43008 17.5917C4.65257 17.5917 3.97485 17.6249 3.30129 17.571C3.13497 17.5586 2.9354 17.2976 2.83977 17.107C2.28263 15.9593 1.9209 14.7578 1.93753 13.3864H1.94169Z"
        fill="#F6F6F6"
      />
<path
        d="M9.51303 4.99661C9.46314 5.30734 9.36751 5.59322 9.24693 5.92881C9.00578 6.74501 8.78542 7.50734 8.53595 8.38983C8.11186 8.51412 7.51313 8.69228 6.91025 8.86629C6.4529 6.571 7.57134 2.67646 10.8103 0C12.3445 1.13107 13.3923 2.63089 14.2321 4.54087C12.8725 4.19699 11.5129 4.30057 10.9308 2.73446C10.8477 2.76347 10.7687 2.79247 10.6855 2.82147C10.2822 3.53823 9.87476 4.25499 9.51719 5.00075L9.51303 4.99661Z"
        fill="#F6F6F6"
      />
<path
        d="M17.6498 11.1243C18.182 11.6919 18.7142 12.2595 19.2672 12.9431C19.3961 13.1171 19.5084 13.1793 19.6165 13.2414H19.6082C19.6331 13.3947 19.6082 13.5853 19.6872 13.7096C20.764 15.3959 21.3461 17.2105 21.2048 19.4064C20.0323 19.5556 18.8223 19.713 17.6124 19.8497C17.5085 19.8621 17.3879 19.713 17.2257 19.5887C17.1759 19.5348 17.1759 19.5431 17.2091 19.5887C17.3255 19.5514 17.4045 19.4727 17.4877 19.394C17.8162 18.9382 18.1405 18.4825 18.5396 17.9729C18.9388 17.8362 19.2631 17.7533 19.7412 17.629C19.5292 17.1733 19.3296 16.7507 19.1342 16.3239C18.8307 15.69 18.5313 15.0561 18.1862 14.3352C17.4877 13.0384 16.4108 12.2885 15.2882 11.5676C15.0886 11.4392 14.9473 11.0829 14.9348 10.8218C14.9223 10.507 15.072 10.1838 15.1676 9.80678C15.9202 10.2169 16.6312 10.5981 17.338 10.9834C17.338 10.9834 17.3255 10.9834 17.338 11.0249C17.4503 11.087 17.5459 11.1036 17.6415 11.1243H17.6498Z"
        fill="#F6F6F6"
      />
<path
        d="M9.64608 16.1416C9.8706 16.2701 10.0369 16.3985 10.2199 16.6347C10.3363 16.8128 10.4361 16.8874 10.5358 16.962C10.5358 16.962 10.5317 16.9537 10.5275 16.9495C10.1616 17.2893 9.84981 17.7243 9.42987 17.9646C6.51942 19.6136 3.4676 19.829 0.311833 18.7394C0.236993 18.7145 0.153837 18.7145 0.00415612 18.6938C-0.033264 16.8542 0.5613 15.2094 1.51344 13.6185C1.85715 15.052 1.89318 16.3515 1.62154 17.5171C3.79191 18.267 5.87912 17.9232 7.91644 17.0448C8.49437 16.7962 9.03073 16.4524 9.64192 16.1499L9.64608 16.1416Z"
        fill="#F6F6F6"
      />
<path
        d="M7.1223 11.2983C6.16185 11.8659 5.19724 12.4377 4.23679 13.0053C3.98733 12.1477 4.33658 11.2113 4.74405 10.362C4.9353 9.96837 5.55482 9.73221 6.02049 9.52505C8.16175 8.57213 10.3779 8.07081 12.6355 8.58042C12.6355 9.04445 12.6147 9.4629 12.6397 9.88136C12.6688 10.4117 12.3694 10.5815 11.9329 10.478C10.2365 10.0719 8.69395 10.6106 7.13062 11.2527C7.10567 11.3107 7.11399 11.3025 7.11815 11.2983H7.1223Z"
        fill="#F6F6F6"
      />
<path
        d="M9.04254 10.9254C9.00525 10.9669 8.95967 10.9627 8.85609 10.9337C8.87681 10.9006 8.95967 10.8881 9.04254 10.9254Z"
        fill="#F6F6F6"
      />
<path
        d="M11.13 14.0411C11.1714 14.0576 11.1756 14.0908 11.1341 14.1653C11.0927 14.2068 11.014 14.1985 11.014 14.1985C11.014 14.1985 11.0181 14.2068 11.0223 14.2109C11.0471 14.1612 11.0679 14.1115 11.13 14.0411Z"
        fill="#F6F6F6"
      />
<path
        d="M15.7206 17.3638C15.8162 17.31 15.916 17.3224 16.0366 17.3763C15.9784 17.5751 15.8994 17.7243 15.7705 17.8983C15.7206 17.7574 15.7206 17.5917 15.7206 17.3638Z"
        fill="#F6F6F6"
      />
<path
        d="M15.6624 17.9232C15.5917 18.0267 15.4628 18.1345 15.284 18.2422C15.3547 18.1386 15.4795 18.0309 15.6624 17.9232Z"
        fill="#F6F6F6"
      />
<path
        d="M12.1441 15.2633C12.1524 15.3088 12.082 15.3337 12.0447 15.3379C11.9784 15.2633 11.9494 15.1846 11.9204 15.1058C11.9908 15.1431 12.0654 15.1804 12.1441 15.2633Z"
        fill="#F6F6F6"
      />
<path
        d="M14.8724 18.6772C14.781 18.8139 14.6438 18.9009 14.4566 18.9424C14.5481 18.8057 14.6895 18.7186 14.8724 18.6772Z"
        fill="#F6F6F6"
      />
<path
        d="M15.1544 18.4162C15.1461 18.5198 15.0716 18.6151 14.9514 18.7269C14.968 18.6316 15.0301 18.5239 15.1544 18.4162Z"
        fill="#F6F6F6"
      />
<path
        d="M10.5816 16.9122C10.4361 16.8874 10.3404 16.8128 10.2282 16.6927C10.3529 16.7217 10.4901 16.7921 10.5816 16.9122Z"
        fill="#F6F6F6"
      />
<path
        d="M10.9724 14.2358C11.018 14.1985 11.0967 14.2068 11.134 14.2151C11.1589 14.2979 11.1464 14.3725 11.134 14.4429C11.0636 14.3849 10.9973 14.3269 10.9724 14.2358Z"
        fill="#F6F6F6"
      />
<path
        d="M14.6146 7.49077C14.6936 7.45349 14.7893 7.47006 14.9015 7.53635C14.8225 7.57364 14.7269 7.56121 14.6146 7.49077Z"
        fill="#F6F6F6"
      />
<path
        d="M12.4438 15.342C12.4397 15.371 12.3817 15.3959 12.3112 15.3834C12.3278 15.342 12.3609 15.342 12.4438 15.342Z"
        fill="#F6F6F6"
      />
<path
        d="M17.4411 19.3815C17.4121 19.4644 17.3334 19.5473 17.2091 19.5804C17.2423 19.481 17.3168 19.4313 17.4411 19.3815Z"
        fill="#F6F6F6"
      />
<path
        d="M19.604 13.1917C19.5084 13.1751 19.4003 13.113 19.2922 12.9887C19.3919 12.997 19.4917 13.0716 19.604 13.1917Z"
        fill="#F6F6F6"
      />
<path
        d="M17.6332 11.0663C17.5542 11.1036 17.4586 11.087 17.3463 11.0166C17.4253 10.9793 17.5209 10.9959 17.6332 11.0663Z"
        fill="#F6F6F6"
      />
</g>
<path
      d="M63.8438 25.2852L62.2969 30H61.0508L63.1641 24.3125H63.957L63.8438 25.2852ZM65.1289 30L63.5781 25.2852L63.4531 24.3125H64.2539L66.3789 30H65.1289ZM65.0586 27.8828V28.8008H62.0547V27.8828H65.0586ZM70.1328 28.1133H71.3008C71.2773 28.4961 71.1719 28.8359 70.9844 29.1328C70.7995 29.4297 70.5404 29.6615 70.207 29.8281C69.8763 29.9948 69.4779 30.0781 69.0117 30.0781C68.6471 30.0781 68.3203 30.0156 68.0312 29.8906C67.7422 29.763 67.4948 29.5807 67.2891 29.3438C67.0859 29.1068 66.931 28.8203 66.8242 28.4844C66.7174 28.1484 66.6641 27.7721 66.6641 27.3555V26.9609C66.6641 26.5443 66.7188 26.168 66.8281 25.832C66.9401 25.4935 67.099 25.2057 67.3047 24.9688C67.513 24.7318 67.7617 24.5495 68.0508 24.4219C68.3398 24.2943 68.6628 24.2305 69.0195 24.2305C69.4935 24.2305 69.8932 24.3164 70.2188 24.4883C70.5469 24.6602 70.8008 24.8971 70.9805 25.1992C71.1628 25.5013 71.2721 25.8451 71.3086 26.2305H70.1367C70.1237 26.0013 70.0781 25.8073 70 25.6484C69.9219 25.487 69.8034 25.3659 69.6445 25.2852C69.4883 25.2018 69.2799 25.1602 69.0195 25.1602C68.8242 25.1602 68.6536 25.1966 68.5078 25.2695C68.362 25.3424 68.2396 25.4531 68.1406 25.6016C68.0417 25.75 67.9674 25.9375 67.918 26.1641C67.8711 26.388 67.8477 26.651 67.8477 26.9531V27.3555C67.8477 27.6497 67.8698 27.9089 67.9141 28.1328C67.9583 28.3542 68.026 28.5417 68.1172 28.6953C68.2109 28.8464 68.3307 28.9609 68.4766 29.0391C68.625 29.1146 68.8034 29.1523 69.0117 29.1523C69.2565 29.1523 69.4583 29.1133 69.6172 29.0352C69.776 28.957 69.8971 28.8411 69.9805 28.6875C70.0664 28.5339 70.1172 28.3424 70.1328 28.1133ZM73.8164 30H72.5781L72.5859 29.0859H73.8164C74.1237 29.0859 74.3828 29.0169 74.5938 28.8789C74.8047 28.7383 74.9635 28.5339 75.0703 28.2656C75.1797 27.9974 75.2344 27.6732 75.2344 27.293V27.0156C75.2344 26.724 75.2031 26.4674 75.1406 26.2461C75.0807 26.0247 74.9909 25.8385 74.8711 25.6875C74.7513 25.5365 74.6042 25.4232 74.4297 25.3477C74.2552 25.2695 74.0547 25.2305 73.8281 25.2305H72.5547V24.3125H73.8281C74.2083 24.3125 74.556 24.3776 74.8711 24.5078C75.1888 24.6354 75.4635 24.819 75.6953 25.0586C75.9271 25.2982 76.1055 25.5846 76.2305 25.918C76.3581 26.2487 76.4219 26.6172 76.4219 27.0234V27.293C76.4219 27.6966 76.3581 28.0651 76.2305 28.3984C76.1055 28.7318 75.9271 29.0182 75.6953 29.2578C75.4661 29.4948 75.1914 29.6784 74.8711 29.8086C74.5534 29.9362 74.2018 30 73.8164 30ZM73.2422 24.3125V30H72.0703V24.3125H73.2422ZM80.5703 28.1133H81.7383C81.7148 28.4961 81.6094 28.8359 81.4219 29.1328C81.237 29.4297 80.9779 29.6615 80.6445 29.8281C80.3138 29.9948 79.9154 30.0781 79.4492 30.0781C79.0846 30.0781 78.7578 30.0156 78.4688 29.8906C78.1797 29.763 77.9323 29.5807 77.7266 29.3438C77.5234 29.1068 77.3685 28.8203 77.2617 28.4844C77.1549 28.1484 77.1016 27.7721 77.1016 27.3555V26.9609C77.1016 26.5443 77.1562 26.168 77.2656 25.832C77.3776 25.4935 77.5365 25.2057 77.7422 24.9688C77.9505 24.7318 78.1992 24.5495 78.4883 24.4219C78.7773 24.2943 79.1003 24.2305 79.457 24.2305C79.931 24.2305 80.3307 24.3164 80.6562 24.4883C80.9844 24.6602 81.2383 24.8971 81.418 25.1992C81.6003 25.5013 81.7096 25.8451 81.7461 26.2305H80.5742C80.5612 26.0013 80.5156 25.8073 80.4375 25.6484C80.3594 25.487 80.2409 25.3659 80.082 25.2852C79.9258 25.2018 79.7174 25.1602 79.457 25.1602C79.2617 25.1602 79.0911 25.1966 78.9453 25.2695C78.7995 25.3424 78.6771 25.4531 78.5781 25.6016C78.4792 25.75 78.4049 25.9375 78.3555 26.1641C78.3086 26.388 78.2852 26.651 78.2852 26.9531V27.3555C78.2852 27.6497 78.3073 27.9089 78.3516 28.1328C78.3958 28.3542 78.4635 28.5417 78.5547 28.6953C78.6484 28.8464 78.7682 28.9609 78.9141 29.0391C79.0625 29.1146 79.2409 29.1523 79.4492 29.1523C79.694 29.1523 79.8958 29.1133 80.0547 29.0352C80.2135 28.957 80.3346 28.8411 80.418 28.6875C80.5039 28.5339 80.5547 28.3424 80.5703 28.1133Z"
      fill="#F6F6F6"
    />
</g>
<defs>
<clipPath id="clip0_4872_26696">
<rect
        width="82"
        height="32"
        fill="white"
      />
</clipPath>
<clipPath id="clip1_4872_26696">
<rect
        width="82"
        height="22"
        fill="white"
      />
</clipPath>
</defs>
</svg>
