<svg width="350" height="200" viewBox="0 0 350 200" fill="none" xmlns="http://www.w3.org/2000/svg">
<g clip-path="url(#clip0_10238_38564)">
<rect width="350" height="200" fill="url(#paint0_linear_10238_38564)"/>
<g opacity="0.1">
<path fill-rule="evenodd" clip-rule="evenodd" d="M7.29996 -64.0252C-8.1823 -48.1368 -21.1021 -30.3753 -31.6682 -10.7396C-32.0186 -10.0654 -32.3668 -9.40527 -32.7108 -8.75323C-33.4028 -7.44172 -34.0776 -6.16275 -34.7179 -4.86674C-52.8478 31.8274 -61.0071 70.6089 -59.067 111.504C-58.0588 132.758 -54.2323 153.499 -47.4996 173.673C-33.2584 216.346 -8.94605 252.29 25.8477 280.766C83.0246 327.562 148.409 343.901 220.814 330.395C272.554 320.743 316.289 295.736 351.032 256.145C397.122 203.623 415.871 142.111 408.53 72.7321C405.582 44.8643 397.431 18.3937 384.575 -6.52602C360.921 -52.374 326.141 -87.1761 279.979 -110.267C245.636 -127.445 209.076 -135.212 170.679 -134.416C145.724 -133.898 121.455 -129.599 97.8824 -121.427C63.1931 -109.401 32.9437 -90.3414 7.29996 -64.0252ZM215.996 165.882C216.063 153.973 219.828 143.214 226.714 133.394C230.301 128.312 234.412 123.868 239.427 120.391C256.802 108.345 275.009 106.605 293.879 116.604C300.951 120.351 305.638 126.221 306.873 134.339C307.594 139.084 307.114 143.746 303.76 147.523C298.4 153.559 288.503 153.072 283.583 146.68C282.677 145.502 281.969 144.207 281.26 142.912C280.584 141.676 279.908 140.44 279.06 139.306C276.509 135.892 273.267 133.695 268.952 133.254C267.328 133.089 265.716 133.26 264.109 133.431C263.896 133.454 263.684 133.477 263.472 133.498C257.141 134.149 251.221 135.937 246.609 140.568C237.507 149.709 233.709 160.871 236.142 173.45C238.531 185.801 245.031 196.271 254.108 204.944C267.758 217.986 284.15 223.621 302.96 222.134C321.996 220.629 338.685 213.59 352.694 200.549C363.459 190.526 371.695 178.589 378.386 165.552C385.635 151.425 389.741 136.333 392.208 120.717C395.152 102.088 395.977 83.4031 393.93 64.6328C391.399 41.4179 384.697 19.4545 373.947 -1.27287C363.718 -20.9939 350.626 -38.6436 335.041 -54.4225C324.267 -65.3297 312.072 -74.4991 299.152 -82.7227C271.848 -100.102 242.696 -112.863 210.567 -118.181C204.05 -119.26 197.512 -120.199 190.898 -120.439C190.801 -120.442 190.696 -120.451 190.587 -120.461C190.061 -120.506 189.445 -120.56 189.246 -120.026C188.981 -119.317 189.673 -118.889 190.2 -118.563C190.229 -118.545 190.257 -118.528 190.284 -118.511C190.746 -118.223 191.206 -117.933 191.667 -117.643C193.603 -116.424 195.541 -115.204 197.556 -114.13C209.798 -107.603 220.027 -98.7188 228.629 -87.8861C254.361 -55.48 252.62 -16.7065 232.504 13.1586C216.653 36.6927 191.697 44.2321 166.956 36.8406C144.011 29.9856 129.601 10.0703 130.525 -13.0076C130.893 -22.1813 135.233 -28.9163 143.418 -33.0965C151.82 -37.3882 160.872 -32.8399 162.569 -23.5173C163.343 -19.2663 161.732 -15.6544 159.408 -12.2899C155.031 -5.95244 155.156 0.402252 159.434 6.64717C166.679 17.2241 177.126 20.8424 189.419 19.6981C198.808 18.8242 206.398 14.3643 212.513 7.16267C223.813 -6.1441 230.041 -21.203 228.49 -38.8819C226.649 -59.8772 217.53 -77.0423 200.388 -89.4802C182.877 -102.186 162.907 -108.005 141.475 -108.937C123.675 -109.711 106.563 -106.164 90.0717 -99.6205C57.8091 -86.8198 30.096 -67.321 6.19694 -42.2698C-13.7235 -21.389 -28.0263 2.77307 -36.6516 30.3573C-46.2047 60.9089 -49.3729 92.0007 -45.2762 123.781C-42.0776 148.593 -34.7794 172.217 -24.458 194.95C-24.1153 195.705 -23.6811 196.423 -23.2358 197.124C-23.185 197.204 -23.137 197.295 -23.0878 197.389C-22.8936 197.759 -22.681 198.163 -22.2059 198.04C-21.7833 197.931 -21.6992 197.48 -21.6211 197.062C-21.6021 196.96 -21.5834 196.86 -21.5603 196.767C-21.2065 195.347 -21.279 193.896 -21.3523 192.457C-22.0615 178.548 -20.4258 164.998 -15.4796 151.891C-9.62064 136.364 -0.933109 122.791 12.0975 112.352C30.8538 97.325 52.4406 91.7899 76.0993 94.6584C93.205 96.7324 106.984 104.871 116.362 119.559C123.771 131.165 128.165 143.77 126.16 157.774C123.682 175.088 114.809 188.148 99.0697 196.124C90.9671 200.229 82.9961 199.248 75.5645 194.229C69.3379 190.023 68.0716 182.229 72.3393 176.051C75.5763 171.365 80.2091 170.108 85.5679 170.307C91.6724 170.533 97.287 169.291 100.877 163.768C104.858 157.646 106.806 150.856 105.316 143.617C102.363 129.266 93.5506 119.795 79.7444 115.321C69.3425 111.951 58.6785 112.428 48.1849 115.243C32.4516 119.464 19.1972 127.58 10.5514 141.678C-1.14927 160.758 -5.01485 181.422 0.159389 203.405C4.27785 220.902 12.7897 236.279 23.7877 250.337C35.7189 265.587 50.3677 277.825 66.4706 288.417C89.6629 303.671 114.744 314.28 142.146 319.176C160.46 322.449 178.894 322.867 197.396 321.397C217.109 319.829 236.275 315.701 254.68 308.433C298.389 291.172 332.46 261.964 359.145 223.688C359.207 223.598 359.283 223.505 359.362 223.41C359.714 222.982 360.111 222.5 359.526 221.965C359.002 221.485 358.489 221.829 358.021 222.145C357.921 222.212 357.824 222.277 357.729 222.333C356.265 223.196 354.807 224.069 353.35 224.942C351.283 226.18 349.217 227.418 347.133 228.626C329.761 238.697 311.101 243.43 291.066 241.061C261.701 237.589 239.477 222.817 224.509 197.35C218.839 187.703 215.933 177.127 215.996 165.882Z" fill="#1D2211"/>
<path d="M194.685 102.43C189.25 104.386 184.02 102.012 181.6 96.5965C179.3 91.4491 181.106 85.9373 185.899 83.2597C189.44 81.2823 193.38 80.8852 197.26 80.2898C208.496 78.5659 219.743 76.9081 230.988 75.2422C231.503 75.166 232.052 74.9219 232.751 75.3515C230.204 77.1599 227.729 78.9023 225.27 80.6646C216.973 86.6078 208.479 92.2795 200.56 98.7414C198.798 100.18 196.872 101.403 194.685 102.43Z" fill="#4D3719"/>
<path d="M185.16 119.067C185.02 121.49 183.98 123.488 183.172 125.542C178.465 137.521 173.716 149.484 168.976 161.45C168.797 161.902 168.562 162.333 167.993 162.736C167.993 160.564 168.135 158.381 167.968 156.223C167.341 148.144 165.959 140.155 165.02 132.112C164.486 127.539 163.988 122.969 164.131 118.345C164.357 111.076 167.948 107.111 174.284 107.144C180.553 107.176 185.754 112.722 185.16 119.067Z" fill="#4D3719"/>
<path d="M124.875 63.3633C132.536 66.4702 140.079 69.5482 147.608 72.6614C152.065 74.5042 156.509 76.3789 160.94 78.2841C163.813 79.5197 166.464 81.1287 168.65 83.4031C172.68 87.5968 172.451 94.0713 168.152 98.1697C163.797 102.322 157.23 102.23 153.257 97.9303C152.28 96.8729 151.301 95.7964 150.481 94.6185C143.14 84.0755 134.306 74.7751 125.958 65.0703C125.597 64.6504 125.254 64.2152 124.847 63.6903C124.778 63.512 124.765 63.4306 124.875 63.3633Z" fill="#1D2211"/>
<path d="M124.844 63.54C124.71 63.4561 124.711 63.3543 124.951 63.3565C124.998 63.3778 124.895 63.4861 124.844 63.54Z" fill="#1D2211"/>
<path fill-rule="evenodd" clip-rule="evenodd" d="M172.417 50.2859C155.757 47.2202 142.483 38.4004 131.768 25.3089C128.852 21.7227 126.191 18.0926 123.963 14.1784C117.526 2.87109 116.691 -8.82193 121.804 -20.8427C124.28 -26.6653 127.659 -31.9243 132.02 -36.529C137.399 -42.2092 143.784 -46.1133 151.585 -47.4335C155.891 -48.1622 159.598 -46.9326 162.635 -43.7742C164.229 -42.1174 165.401 -40.1701 166.445 -38.1388C166.907 -37.2416 167.348 -36.3338 167.79 -35.426C168.781 -33.3879 169.773 -31.3499 170.987 -29.4306C174.374 -24.0743 181.715 -23.3984 186.007 -28.08C188.804 -31.1312 189.281 -34.9234 189.013 -38.832C188.514 -46.0943 184.976 -51.8659 179.492 -56.3266C167.564 -66.0295 154.181 -67.2505 140.356 -61.4593C128.098 -56.3249 118.63 -47.572 111.787 -36.1392C104.858 -24.5624 102.432 -11.9775 103.424 1.42532C104.292 13.1614 108.447 23.4661 116.352 32.1301C122.647 39.0288 129.604 45.2359 137.196 50.7196C152.431 61.7239 169.232 67.2742 188.154 65.4735C203.139 64.0473 218.073 62.1311 232.692 58.4997C245.901 55.2186 259.136 54.2553 272.434 57.1759C306.991 64.7648 331.426 84.6959 344.522 117.751C349.836 131.163 350.817 145.098 345.259 158.735C337.431 177.943 322.41 188.495 302.471 192.375C295.244 193.781 288.185 192.391 281.669 188.875C276.263 185.957 272.875 181.439 271.921 175.329C271.333 171.559 271.801 167.81 272.854 164.128C274.244 159.269 273.009 154.982 269.632 151.353C266.788 148.296 263.296 146.538 259.027 147.643C252.971 149.209 248.352 155.436 248.493 161.685C248.566 164.958 248.88 168.225 249.472 171.45C251.277 181.269 255.437 189.813 263.35 196.162C271.992 203.096 281.952 206.879 292.961 207.839C311.556 209.46 327.669 203.803 341.256 191.037C350.176 182.655 356.924 172.639 362.645 161.902C373.732 141.095 378.6 118.697 379.336 95.305C379.83 79.6146 378.77 64.0135 375.776 48.5809C368.639 11.7943 351.572 -19.7961 325.816 -46.8492C314.813 -58.4071 302.783 -68.6583 288.981 -76.7819C275.653 -84.6264 261.556 -90.862 247.456 -97.0991C246.379 -97.5754 245.302 -98.0516 244.226 -98.5286C244.167 -98.5548 244.107 -98.5829 244.046 -98.6114C243.552 -98.8419 243.002 -99.0989 242.542 -98.5613C242.13 -98.079 242.378 -97.5887 242.611 -97.1276C242.657 -97.037 242.702 -96.9475 242.742 -96.8594C243.381 -95.438 244.032 -94.0222 244.684 -92.6063C245.912 -89.9372 247.141 -87.2682 248.283 -84.5628C254.103 -70.7796 257.563 -56.4402 258.097 -41.4537C258.67 -25.3725 255.868 -9.84342 250.282 5.21208C245.77 17.3717 238.856 27.9098 228.792 36.1723C212.259 49.7465 193.289 54.1265 172.417 50.2859ZM272.409 -64.6221C273.993 -55.2344 274.661 -45.7845 274.407 -36.106C274.372 -35.5194 274.341 -34.9446 274.31 -34.3786C274.226 -32.8641 274.147 -31.412 274.023 -29.9637C272.197 -8.66235 265.212 10.8247 253.417 28.6238C250.748 32.653 247.915 36.5593 244.886 40.3253C244.836 40.3875 244.779 40.4507 244.72 40.5152C244.467 40.7942 244.19 41.0991 244.377 41.4676C244.565 41.8383 244.913 41.7579 245.25 41.6799C245.366 41.6532 245.48 41.6268 245.586 41.6189C245.973 41.59 246.358 41.5285 246.741 41.4655C259.566 39.3595 272.092 40.6918 284.318 44.9124C297.956 49.6203 310.11 57.0296 321.402 65.8821C339.125 79.7777 351.593 97.3172 357.862 119.091C357.928 119.321 357.972 119.595 358.018 119.877C358.158 120.754 358.311 121.707 359.183 121.647C360.29 121.572 360.415 120.314 360.519 119.275C360.537 119.093 360.555 118.917 360.577 118.756C360.872 116.589 361.082 114.411 361.291 112.232C361.379 111.317 361.467 110.402 361.561 109.487C362.666 98.7805 363.762 88.1004 363.152 77.2793C362.096 58.5396 358.215 40.4627 351.365 23.0129C343.796 3.73465 333.119 -13.7295 320.314 -29.9419C313.273 -38.8556 305.658 -47.205 296.536 -54.0621C289.765 -59.1523 282.623 -63.6113 274.602 -66.4925C272.327 -67.3099 272.007 -67.0079 272.409 -64.6221Z" fill="#4D3719"/>
<path fill-rule="evenodd" clip-rule="evenodd" d="M43.9499 130.205C38.5301 133.202 33.5536 136.81 29.123 141.332C26.9389 143.485 24.9934 145.698 23.3448 148.139C11.6497 165.455 9.16946 184.216 15.5709 203.914C22.8351 226.266 35.9389 244.944 53.2396 260.733C66.8183 273.125 82.4093 282.444 98.8893 290.365C120.822 300.908 143.844 307.573 168.176 309.268C195.255 311.153 221.542 307.248 247.004 297.873C271.559 288.833 293.35 275.1 313.439 258.509C313.481 258.474 313.525 258.441 313.569 258.407C313.827 258.21 314.104 257.999 314.062 257.521C311.86 256.81 309.563 256.657 307.272 256.504C306.924 256.48 306.577 256.457 306.231 256.432C295.439 255.65 284.895 253.639 274.641 250.161C255.469 243.658 239.221 232.653 225.277 218.098C218.781 211.317 213.251 203.868 209.306 195.293C203.363 182.374 202.379 168.905 204.832 155.074C208.288 135.595 218.113 120.335 235.135 109.983C245.554 103.648 257.006 100.32 269.035 98.8153C277.199 97.7942 285.098 98.6138 292.561 102.321C309.46 110.714 319.585 130.256 316.682 148.873C315.551 156.129 311.915 160.16 305.401 161.311C303.871 161.582 302.314 161.638 300.755 161.567C299.637 161.516 298.52 161.439 297.403 161.363C294.865 161.19 292.326 161.016 289.778 161.139C285.992 161.321 283.234 163.074 281.769 166.635C280.23 170.378 280.423 173.893 283.279 177.013C285.698 179.657 288.595 181.557 292.054 182.509C302.63 185.42 312.118 182.914 320.073 175.752C329.106 167.62 332.725 156.743 333.334 144.907C333.955 132.837 330.323 121.757 324.107 111.539C311.675 91.1026 288.794 77.4566 260.988 83.5471C251.979 85.5204 243.504 88.955 235.252 92.9637C218.498 101.102 205.574 113.149 197.975 130.368C192.55 142.661 187.792 155.217 184.141 168.172C177.316 192.386 163.703 211.464 141.934 224.578C119.169 238.291 95.1183 243.071 69.1246 236.094C58.66 233.285 49.168 228.685 41.9876 220.416C27.8655 204.154 25.1513 185.607 31.9034 165.466C33.7362 159.999 36.5094 154.984 40.8422 151.024C47.1005 145.303 54.2445 143.724 62.2698 146.68C65.9214 148.025 68.959 150.321 71.8719 152.859C76.4738 156.868 81.7175 157.49 87.2487 155.136C91.4033 153.369 93.7475 149.574 93.1354 145.288C92.2957 139.409 89.6429 134.561 84.088 131.747C81.5105 130.441 78.8666 129.287 76.1398 128.329C65.1492 124.468 54.3701 124.444 43.9499 130.205ZM183.266 205.862C175.65 217.502 165.305 226.162 153.371 233.27C146.892 237.078 140.311 240.411 133.469 243.215C115.366 250.634 96.6746 253.481 77.2269 250.404C73.7707 249.858 70.3571 249.116 66.9679 248.251C66.8474 248.22 66.721 248.178 66.5921 248.134C66.0631 247.956 65.4935 247.765 65.1258 248.315C64.6954 248.959 65.1579 249.416 65.586 249.84C65.6873 249.94 65.7866 250.038 65.8717 250.136C66.3408 250.678 66.8798 251.167 67.4294 251.63C98.5496 277.851 134.631 291.19 175.121 292.962C189.131 293.575 203.086 292.721 216.955 290.638C230.368 288.624 243.364 285.18 255.502 278.963C261.042 276.125 266.422 273.01 271.086 268.815C272.379 267.652 272.356 267.628 270.699 266.957C269.931 266.647 269.161 266.34 268.392 266.033C266.429 265.251 264.466 264.468 262.53 263.623C247.208 256.936 233.452 247.905 221.681 235.983C208.896 223.033 199.609 207.823 192.901 190.974C192.827 190.786 192.76 190.592 192.693 190.398C192.495 189.824 192.294 189.242 191.871 188.763C191.387 189.067 191.268 189.494 191.154 189.902C191.12 190.021 191.088 190.138 191.047 190.25C189.028 195.742 186.472 200.962 183.266 205.862Z" fill="#4D3719"/>
<path fill-rule="evenodd" clip-rule="evenodd" d="M182.298 -84.3706C171.699 -90.1512 160.14 -92.3745 148.023 -92.8242C144.596 -93.0409 141.326 -92.9848 138.049 -92.8914C117.974 -92.3192 98.8359 -87.7522 80.5227 -79.5717C64.4952 -72.4123 50.0127 -62.7908 36.2832 -51.9554C23.4599 -41.835 11.6197 -30.7264 2.12761 -17.341C-6.70724 -4.88249 -13.7477 8.59003 -19.6914 22.6316C-29.7926 46.4948 -35.1584 71.3319 -34.7137 97.3229C-34.5447 107.201 -33.494 117.005 -32.4434 126.81C-31.9629 131.295 -31.4823 135.78 -31.0861 140.272C-31.0805 140.336 -31.0768 140.401 -31.0731 140.467C-31.0493 140.894 -31.0244 141.339 -30.4475 141.476C-29.7817 141.633 -29.4427 141.177 -29.1214 140.745L-29.0971 140.712C-28.5412 139.965 -27.9823 139.221 -27.4233 138.476C-25.8832 136.424 -24.343 134.371 -22.8669 132.274C-18.9281 126.677 -14.6353 121.376 -9.8253 116.509C6.22178 100.271 25.6299 90.0758 47.6526 84.576C58.0909 81.9693 68.6417 80.8194 79.3393 82.3655C99.7321 85.3129 115.682 95.9008 126.36 113.046C140.775 136.193 140.634 160.628 128.485 184.799C120.848 199.991 107.828 207.209 90.9504 207.458C79.7987 207.622 69.8509 204.214 61.5194 196.647C57.9561 193.411 55.9176 189.485 57.026 184.47C57.4984 182.332 58.422 180.375 59.5699 178.527C60.3568 177.26 61.1539 175.999 61.951 174.738C63.1116 172.903 64.2722 171.067 65.401 169.212C67.4942 165.773 67.4225 162.355 64.975 159.108C62.3869 155.674 59.0959 153.964 54.6836 155.062C50.4418 156.118 46.9116 158.338 44.1007 161.625C37.5634 169.271 35.6717 178.206 37.8369 187.818C40.2221 198.408 46.4093 206.787 55.2984 212.751C72.3237 224.174 90.9037 226.604 110.322 220.153C126.897 214.648 138.873 203.761 145.386 187.37C148.593 179.299 150.544 170.858 151.666 162.233C154.301 141.983 150.467 123.144 139.487 105.836C134.74 98.3533 128.835 91.817 122.93 85.2806C122.323 84.609 121.717 83.9375 121.111 83.2649C119.538 81.5176 117.937 79.7929 116.336 78.0679C111.85 73.236 107.363 68.4025 103.494 63.0685C83.0084 34.8266 79.2155 4.10548 90.869 -28.5172C96.0347 -42.9778 104.445 -55.4976 116.546 -65.1689C126.627 -73.225 138.267 -77.034 151.227 -76.5304C159.012 -76.2279 166.296 -74.0177 173.252 -70.607C184.277 -65.2013 192.677 -57.2651 197.281 -45.6751C199.363 -40.4354 199.659 -35.0699 198.054 -29.6824C195.955 -22.6385 191.593 -17.621 184.074 -16.6079C177.961 -15.7844 173.539 -11.0808 172.268 -5.89514C171.23 -1.65873 171.785 2.20201 175.412 5.09663C179.483 8.34638 187.707 8.89946 192.197 6.26257C195.409 4.37606 198.466 2.25955 201.29 -0.178726C208.463 -6.37101 213.49 -13.8629 214.725 -23.4264C215.896 -32.5046 215.308 -41.501 212.378 -50.2393C207.15 -65.8301 196.428 -76.6638 182.298 -84.3706ZM101.216 -70.3866L76.7479 -59.4622C14.9101 -31.8532 -22.8989 31.6453 -17.7049 99.1671L-11.561 93.7507C16.229 69.2516 54.4338 60.2817 90.2232 69.8533C62.3535 29.7288 64.1395 -23.9346 94.6155 -62.1172L101.216 -70.3866Z" fill="#4D3719"/>
</g>
</g>
<defs>
<linearGradient id="paint0_linear_10238_38564" x1="99.569" y1="76.9231" x2="580.321" y2="77.5587" gradientUnits="userSpaceOnUse">
<stop stop-color="#986C32"/>
<stop offset="1" stop-color="#4C371A"/>
</linearGradient>
<clipPath id="clip0_10238_38564">
<rect width="350" height="200" fill="white"/>
</clipPath>
</defs>
</svg>
