<svg width="202" height="44" viewBox="0 0 202 44" fill="none" xmlns="http://www.w3.org/2000/svg">
<g clip-path="url(#clip0_3803_18513)">
<mask id="mask0_3803_18513" style="mask-type:luminance" maskUnits="userSpaceOnUse" x="0" y="0" width="202" height="44">
<path d="M202 0H0V44H202V0Z" fill="white"/>
</mask>
<g mask="url(#mask0_3803_18513)">
<path d="M196.575 43.9166C195.757 43.9323 194.942 43.7996 194.17 43.5248C193.533 43.2777 192.946 42.9178 192.437 42.4625C191.999 42.0725 191.647 41.5966 191.402 41.0643C191.186 40.5798 191.072 40.0562 191.066 39.5258C191.043 39.314 191.082 39.1002 191.178 38.9101C191.217 38.8581 191.268 38.8159 191.326 38.7868C191.385 38.7577 191.449 38.7424 191.514 38.7422C191.595 38.7321 191.678 38.745 191.753 38.7795C191.828 38.8141 191.891 38.8688 191.936 38.9376C192.012 39.0539 192.051 39.1905 192.048 39.3293C192.059 39.6801 192.116 40.0279 192.216 40.3642C192.363 40.8036 192.59 41.2115 192.887 41.567C193.259 41.9792 193.717 42.3038 194.229 42.5174C194.939 42.803 195.702 42.9365 196.467 42.9091C197.07 42.9478 197.674 42.8664 198.245 42.6695C198.817 42.4727 199.343 42.1643 199.794 41.7623C200.228 41.2732 200.558 40.7014 200.765 40.0812C200.971 39.4611 201.05 38.8055 200.997 38.154V37.626C201.042 37.0472 200.957 36.4657 200.749 35.9237C200.541 35.3818 200.215 34.893 199.794 34.4929C198.896 33.7441 197.746 33.3644 196.578 33.4306C196.502 33.4368 196.426 33.4277 196.353 33.4038C196.281 33.3798 196.214 33.3415 196.156 33.2912C196.083 33.1841 196.044 33.0575 196.044 32.9279C196.041 32.8063 196.081 32.6875 196.156 32.5921C196.204 32.5359 196.265 32.4916 196.332 32.4625C196.4 32.4333 196.474 32.4203 196.548 32.4242C197.294 32.4486 198.038 32.3151 198.729 32.0324C199.307 31.7892 199.775 31.3409 200.044 30.7737C200.371 30.0351 200.524 29.2313 200.491 28.4241C200.57 27.3332 200.252 26.2507 199.596 25.3755C199.218 24.9887 198.758 24.6922 198.249 24.5083C197.741 24.3243 197.198 24.2576 196.66 24.3131C195.943 24.2872 195.229 24.411 194.563 24.6764C194.076 24.879 193.644 25.1955 193.304 25.5993C193.04 25.9424 192.841 26.3311 192.717 26.7461C192.63 27.0937 192.583 27.4502 192.578 27.8085C192.586 27.9869 192.537 28.1632 192.439 28.3122C192.395 28.3662 192.34 28.4095 192.277 28.4386C192.214 28.4678 192.145 28.4819 192.076 28.4801C191.979 28.4834 191.883 28.4643 191.796 28.4241C191.711 28.3517 191.652 28.2534 191.628 28.1443C191.586 27.9797 191.568 27.8102 191.572 27.6406C191.584 27.2234 191.65 26.8096 191.768 26.4093C191.934 25.8929 192.189 25.4099 192.523 24.9826C192.942 24.4624 193.478 24.0499 194.089 23.7799C194.93 23.4342 195.836 23.2722 196.745 23.3047C197.599 23.2856 198.447 23.4475 199.234 23.7799C199.94 24.0945 200.521 24.636 200.884 25.3184C201.334 26.1991 201.546 27.1818 201.5 28.1696C201.559 29.2763 201.318 30.3785 200.801 31.3587C200.41 32.0334 199.838 32.5857 199.15 32.9533C199.969 33.3062 200.675 33.8771 201.192 34.6038C201.776 35.4995 202.06 36.5574 202.003 37.625V38.153C202.057 39.3162 201.806 40.4734 201.276 41.51C200.83 42.3128 200.146 42.9577 199.318 43.3558C198.454 43.7383 197.518 43.9293 196.573 43.9155M178.817 43.7476C178.692 43.7424 178.573 43.693 178.481 43.6082C178.427 43.5647 178.384 43.5092 178.355 43.4462C178.326 43.3832 178.311 43.3143 178.313 43.245V40.5321C178.31 39.7578 178.555 39.0028 179.012 38.3779C179.521 37.6818 180.126 37.0605 180.807 36.532C181.534 35.935 182.308 35.357 183.13 34.7981C183.969 34.2201 184.752 33.6217 185.479 33.0029C186.166 32.4165 186.77 31.7389 187.274 30.9891C187.689 30.3344 187.928 29.5833 187.967 28.8089C188.006 28.0345 187.845 27.2632 187.498 26.5698C187.175 25.9114 186.683 25.3513 186.071 24.9478C185.353 24.4952 184.514 24.271 183.666 24.3047C182.665 24.2683 181.686 24.6073 180.921 25.2551C180.544 25.6008 180.25 26.0273 180.061 26.5028C179.872 26.9783 179.793 27.4904 179.83 28.0007C179.825 28.1256 179.776 28.2446 179.691 28.3365C179.641 28.3881 179.579 28.4275 179.511 28.4519C179.444 28.4762 179.371 28.4848 179.299 28.4769C179.225 28.4849 179.15 28.4736 179.082 28.4442C179.013 28.4148 178.953 28.3683 178.908 28.309C178.841 28.1109 178.812 27.9021 178.823 27.6934C178.812 26.9132 179.026 26.1463 179.439 25.4842C179.869 24.8116 180.466 24.2621 181.172 23.8897C181.96 23.4885 182.833 23.2869 183.717 23.3026C184.699 23.2763 185.669 23.5285 186.514 24.0301C187.282 24.4989 187.91 25.1656 188.332 25.9605C188.763 26.7717 188.984 27.6783 188.974 28.597C188.964 29.5158 188.724 30.4174 188.276 31.2193C187.796 32.0363 187.19 32.7726 186.481 33.401C185.738 34.0659 184.953 34.6824 184.132 35.2469C183.312 35.8065 182.537 36.3659 181.809 36.9248C181.137 37.4109 180.534 37.9849 180.014 38.6313C179.565 39.1632 179.318 39.8361 179.315 40.5321V42.7412H188.768C188.83 42.7403 188.892 42.7522 188.95 42.7761C189.008 42.8001 189.06 42.8357 189.103 42.8806C189.15 42.9285 189.187 42.9854 189.211 43.0479C189.235 43.1104 189.246 43.1771 189.243 43.2439C189.241 43.3778 189.192 43.5067 189.103 43.6072C189.06 43.6521 189.008 43.6877 188.95 43.7117C188.892 43.7356 188.83 43.7475 188.768 43.7465L178.817 43.7476ZM169.969 34.5182C169.85 34.523 169.732 34.5031 169.621 34.4598C169.51 34.4165 169.41 34.3507 169.326 34.2665C169.242 34.1824 169.176 34.0818 169.132 33.971C169.089 33.8602 169.069 33.7416 169.074 33.6228C169.072 33.5084 169.093 33.3948 169.136 33.2889C169.179 33.183 169.244 33.0871 169.325 33.0071C169.5 32.8443 169.73 32.7544 169.968 32.7558C170.082 32.7548 170.195 32.7766 170.301 32.8198C170.407 32.863 170.503 32.9268 170.583 33.0075C170.664 33.0882 170.728 33.1842 170.771 33.2898C170.814 33.3955 170.836 33.5086 170.835 33.6228C170.836 33.8613 170.747 34.0914 170.584 34.2659C170.504 34.3476 170.408 34.412 170.302 34.4552C170.196 34.4985 170.083 34.5196 169.968 34.5172M169.941 42.9081C170.535 42.9438 171.131 42.8608 171.693 42.6639C172.254 42.467 172.772 42.1602 173.214 41.7613C173.647 41.2721 173.977 40.7003 174.184 40.0802C174.391 39.46 174.47 38.8045 174.416 38.153V29.064C174.471 28.4168 174.393 27.7651 174.186 27.1493C173.98 26.5336 173.648 25.9668 173.214 25.4842C172.292 24.7243 171.135 24.3087 169.941 24.3087C168.746 24.3087 167.589 24.7243 166.668 25.4842C166.241 25.9713 165.918 26.5394 165.716 27.1545C165.514 27.7696 165.439 28.419 165.494 29.064V38.1551C165.441 38.8043 165.517 39.4577 165.718 40.0772C165.92 40.6966 166.243 41.2698 166.668 41.7634C167.11 42.1622 167.627 42.469 168.189 42.6659C168.751 42.8628 169.346 42.9459 169.941 42.9102M169.941 43.9176C168.988 43.9324 168.044 43.7415 167.173 43.3579C166.345 42.9597 165.661 42.3148 165.215 41.5121C164.685 40.4755 164.434 39.3183 164.488 38.1551V29.064C164.434 27.9011 164.685 26.7444 165.215 25.7081C165.657 24.9086 166.343 24.2714 167.173 23.8897C168.044 23.5023 168.987 23.3021 169.941 23.3021C170.895 23.3021 171.838 23.5023 172.71 23.8897C173.551 24.2648 174.248 24.9029 174.695 25.7081C175.225 26.7444 175.476 27.9011 175.422 29.064V38.1551C175.476 39.3183 175.226 40.4755 174.695 41.5121C174.243 42.3204 173.549 42.9662 172.71 43.3579C171.838 43.7415 170.894 43.9324 169.942 43.9176M151.346 43.7497C151.221 43.7445 151.102 43.6951 151.01 43.6103C150.956 43.5667 150.913 43.5113 150.884 43.4483C150.855 43.3853 150.841 43.3164 150.843 43.2471V40.5321C150.839 39.7578 151.084 39.0028 151.541 38.3779C152.051 37.6818 152.655 37.0605 153.336 36.532C154.063 35.935 154.838 35.357 155.659 34.7981C156.498 34.2201 157.281 33.6217 158.008 33.0029C158.695 32.4165 159.299 31.7389 159.803 30.9891C160.218 30.3344 160.457 29.5833 160.496 28.8089C160.536 28.0345 160.374 27.2632 160.027 26.5698C159.705 25.9114 159.212 25.3514 158.6 24.9478C157.882 24.4954 157.044 24.2711 156.195 24.3047C155.194 24.2683 154.215 24.6073 153.45 25.2551C153.073 25.6008 152.779 26.0273 152.59 26.5028C152.401 26.9783 152.323 27.4904 152.36 28.0007C152.354 28.1256 152.305 28.2446 152.22 28.3365C152.17 28.3881 152.109 28.4276 152.041 28.452C151.973 28.4763 151.9 28.4848 151.829 28.4769C151.754 28.4849 151.679 28.4736 151.611 28.4442C151.542 28.4148 151.482 28.3683 151.437 28.309C151.37 28.1109 151.342 27.9021 151.352 27.6934C151.341 26.9132 151.555 26.1463 151.968 25.4842C152.398 24.8116 152.996 24.2622 153.702 23.8897C154.489 23.4885 155.363 23.2869 156.246 23.3026C157.228 23.2763 158.198 23.5285 159.043 24.0301C159.811 24.4989 160.439 25.1656 160.861 25.9605C161.292 26.7717 161.513 27.6783 161.503 28.597C161.494 29.5158 161.253 30.4174 160.805 31.2193C160.325 32.0364 159.719 32.7727 159.01 33.401C158.267 34.0658 157.483 34.6824 156.661 35.2469C155.84 35.8065 155.066 36.3659 154.338 36.9248C153.666 37.4109 153.063 37.9849 152.543 38.6313C152.094 39.1632 151.847 39.8361 151.844 40.5321V42.7412H161.297C161.36 42.7403 161.422 42.7522 161.479 42.7761C161.537 42.8001 161.589 42.8357 161.633 42.8806C161.679 42.9285 161.716 42.9854 161.74 43.0479C161.764 43.1104 161.775 43.1771 161.772 43.2439C161.771 43.3778 161.721 43.5067 161.633 43.6072C161.589 43.6521 161.537 43.6877 161.479 43.7117C161.422 43.7356 161.36 43.7475 161.297 43.7465L151.346 43.7497ZM142.469 43.7497C142.033 43.7565 141.602 43.6607 141.21 43.4699C141.041 43.3905 140.898 43.2637 140.798 43.1048C140.699 42.9459 140.648 42.7617 140.651 42.5744V26.574H136.54C136.367 26.5749 136.197 26.5285 136.049 26.4396C135.901 26.3508 135.781 26.2231 135.7 26.0703C135.493 25.7244 135.386 25.327 135.393 24.9235C135.391 24.5418 135.487 24.166 135.673 23.8327C135.75 23.6693 135.873 23.5321 136.027 23.4382C136.181 23.3443 136.359 23.2979 136.54 23.3047H148.365C148.546 23.2931 148.726 23.3375 148.881 23.432C149.036 23.5264 149.159 23.6663 149.231 23.8327C149.417 24.166 149.514 24.5418 149.511 24.9235C149.518 25.327 149.412 25.7243 149.204 26.0703C149.127 26.2259 149.007 26.3562 148.858 26.4455C148.709 26.5348 148.538 26.5794 148.365 26.574H144.282V42.5744C144.283 42.7649 144.228 42.9514 144.123 43.1107C144.019 43.27 143.87 43.3949 143.695 43.4699C143.312 43.6585 142.891 43.7544 142.465 43.7497M131.614 43.7497C131.179 43.7524 130.749 43.6567 130.356 43.4699C130.186 43.3905 130.043 43.2637 129.944 43.1048C129.845 42.9459 129.793 42.7617 129.796 42.5744V24.4483C129.787 24.2633 129.836 24.08 129.936 23.9244C130.036 23.7688 130.183 23.6487 130.356 23.5813C130.749 23.3945 131.179 23.2988 131.614 23.3015C132.05 23.2947 132.481 23.3905 132.873 23.5813C133.045 23.6487 133.192 23.7688 133.293 23.9244C133.393 24.08 133.442 24.2633 133.432 24.4483V42.5744C133.435 42.7617 133.384 42.9459 133.285 43.1048C133.186 43.2637 133.043 43.3905 132.873 43.4699C132.481 43.6607 132.05 43.7566 131.614 43.7497ZM112.06 43.7497C111.625 43.7524 111.195 43.6568 110.801 43.4699C110.632 43.3905 110.489 43.2637 110.389 43.1048C110.29 42.9459 110.239 42.7617 110.242 42.5744V25.1199C110.213 24.8588 110.248 24.5944 110.346 24.3505C110.444 24.1065 110.6 23.8905 110.801 23.7218C111.165 23.4502 111.606 23.3022 112.06 23.2994C112.438 23.29 112.814 23.337 113.178 23.4388C113.513 23.5431 113.812 23.7366 114.045 23.9985C114.388 24.3673 114.68 24.7812 114.912 25.2287L118.351 31.4939L121.763 25.2287C122.021 24.7975 122.31 24.3863 122.63 23.9985C122.862 23.7366 123.162 23.5432 123.496 23.4388C123.861 23.3395 124.238 23.2926 124.615 23.2994C125.07 23.2964 125.513 23.445 125.874 23.7218C126.075 23.8905 126.232 24.1065 126.33 24.3505C126.427 24.5944 126.463 24.8588 126.434 25.1199V42.5744C126.435 42.7649 126.38 42.9514 126.275 43.1107C126.171 43.27 126.022 43.3949 125.847 43.4699C125.464 43.6585 125.043 43.7544 124.617 43.7497C124.181 43.7524 123.751 43.6568 123.358 43.4699C123.188 43.3905 123.045 43.2637 122.946 43.1048C122.847 42.9459 122.795 42.7617 122.798 42.5744V30.5741L119.554 36.3916C119.408 36.6312 119.207 36.8324 118.967 36.9787C118.759 37.0866 118.529 37.1441 118.296 37.1466C118.071 37.1416 117.851 37.0841 117.653 36.9787C117.417 36.8362 117.224 36.6335 117.093 36.3916L113.877 30.3777V42.5744C113.88 42.7617 113.829 42.9459 113.729 43.1048C113.63 43.2637 113.487 43.3905 113.317 43.4699C112.926 43.6606 112.495 43.7565 112.059 43.7497M92.5045 43.7497C92.0693 43.7524 91.6391 43.6568 91.246 43.4699C91.0764 43.3905 90.9333 43.2637 90.834 43.1048C90.7347 42.9459 90.6835 42.7617 90.6865 42.5744V25.1199C90.657 24.8588 90.6926 24.5944 90.7903 24.3504C90.8879 24.1064 91.0445 23.8904 91.246 23.7218C91.6097 23.4502 92.0507 23.3022 92.5045 23.2994C92.8824 23.29 93.2596 23.337 93.6237 23.4388C93.9581 23.5432 94.2577 23.7366 94.4905 23.9985C94.8339 24.3673 95.1255 24.7812 95.3573 25.2287L98.7971 31.4939L102.209 25.2287C102.467 24.7975 102.757 24.3862 103.076 23.9985C103.309 23.7366 103.609 23.5431 103.943 23.4388C104.307 23.3396 104.684 23.2926 105.061 23.2994C105.516 23.2963 105.959 23.4449 106.32 23.7218C106.521 23.8905 106.678 24.1065 106.775 24.3505C106.873 24.5944 106.909 24.8588 106.879 25.1199V42.5744C106.88 42.7649 106.825 42.9514 106.721 43.1107C106.616 43.27 106.467 43.3949 106.292 43.4699C105.91 43.6587 105.488 43.7546 105.061 43.7497C104.626 43.7523 104.196 43.6567 103.803 43.4699C103.633 43.3905 103.49 43.2637 103.391 43.1048C103.291 42.9459 103.24 42.7617 103.243 42.5744V30.5741L99.9996 36.3916C99.8534 36.6311 99.6521 36.8324 99.4126 36.9787C99.2051 37.0867 98.975 37.1442 98.7411 37.1466C98.5166 37.1416 98.2964 37.0841 98.0982 36.9787C97.8628 36.8362 97.6697 36.6335 97.5386 36.3916L94.3226 30.3777V42.5744C94.3256 42.7617 94.2744 42.9459 94.1751 43.1048C94.0758 43.2637 93.9327 43.3905 93.7631 43.4699C93.3713 43.6607 92.9402 43.7566 92.5045 43.7497ZM80.7103 43.9176C79.5436 43.9362 78.3845 43.7271 77.2979 43.302C76.3051 42.8851 75.4652 42.1719 74.8928 41.2597C74.2467 40.1112 73.9365 38.8041 73.9975 37.4877V24.4483C73.9879 24.2633 74.0368 24.08 74.1373 23.9244C74.2377 23.7688 74.3846 23.6487 74.5571 23.5813C74.9488 23.3905 75.38 23.2947 75.8156 23.3015C76.2419 23.2968 76.6633 23.3927 77.0456 23.5813C77.2233 23.644 77.3762 23.762 77.4819 23.9181C77.5876 24.0741 77.6404 24.26 77.6326 24.4483V37.4877C77.5974 37.9313 77.651 38.3775 77.7902 38.8001C77.9294 39.2228 78.1515 39.6134 78.4435 39.9492C78.751 40.2225 79.1095 40.4324 79.4983 40.5668C79.8871 40.7013 80.2986 40.7577 80.7092 40.7328C81.1154 40.7561 81.5221 40.6989 81.9061 40.5645C82.29 40.43 82.6436 40.2209 82.9464 39.9492C83.2471 39.618 83.4766 39.2288 83.621 38.8054C83.7654 38.382 83.8215 37.9336 83.7858 37.4877V24.4483C83.7742 24.2671 83.8187 24.0867 83.9131 23.9316C84.0075 23.7765 84.1474 23.6542 84.3137 23.5813C84.7145 23.3886 85.155 23.2928 85.5997 23.3015C86.0263 23.2967 86.4481 23.3926 86.8307 23.5813C87.0084 23.644 87.1614 23.762 87.267 23.9181C87.3727 24.0741 87.4255 24.26 87.4177 24.4483V37.4877C87.4795 38.8055 87.1693 40.1142 86.5224 41.2639C85.9451 42.1808 85.0963 42.8947 84.0941 43.3062C83.0186 43.729 81.871 43.9381 80.7155 43.9218M64.9303 44.0063C63.808 44.0221 62.6914 43.8435 61.6299 43.4783C60.7788 43.1925 59.9904 42.7462 59.3072 42.1636C59.0643 41.9646 58.8646 41.7181 58.7203 41.4392C58.576 41.1603 58.4901 40.8549 58.4678 40.5416C58.4745 40.2512 58.5414 39.9653 58.6642 39.7021C58.8007 39.4014 59.001 39.134 59.2512 38.9186C59.4675 38.7053 59.7584 38.5849 60.0621 38.5828C60.3733 38.5879 60.6717 38.7074 60.9004 38.9186C61.1615 39.1234 61.46 39.3751 61.7957 39.6736C62.1714 39.9778 62.5853 40.2317 63.0268 40.4286C63.5986 40.6497 64.2088 40.7542 64.8216 40.7359C65.3451 40.742 65.8656 40.6569 66.3599 40.4846C66.8088 40.3237 67.2053 40.0433 67.5065 39.6736C67.8168 39.2852 67.9759 38.7975 67.9542 38.3008C67.9714 37.7581 67.8039 37.2257 67.479 36.7907C67.1277 36.3522 66.69 35.9906 66.1931 35.7284C65.6525 35.4299 65.0651 35.1409 64.431 34.8614C63.7968 34.582 63.1534 34.2835 62.501 33.966C61.8717 33.6523 61.2805 33.2675 60.7389 32.8192C60.2066 32.3582 59.7697 31.7975 59.4529 31.1686C59.1148 30.413 58.9523 29.5905 58.9778 28.7631C58.9471 27.851 59.1492 26.9461 59.5648 26.1337C59.9543 25.4471 60.5006 24.8624 61.1591 24.4272C61.832 23.9791 62.5808 23.6571 63.3688 23.4768C64.1544 23.2735 64.9625 23.1699 65.7739 23.1684C66.279 23.174 66.7833 23.2114 67.2837 23.2804C67.8804 23.3362 68.4704 23.4486 69.0458 23.6162C69.5723 23.7497 70.0666 23.9874 70.4997 24.3152C70.684 24.4371 70.8345 24.6037 70.9372 24.7994C71.0398 24.9951 71.0912 25.2136 71.0867 25.4346C71.075 25.6941 71.0182 25.9496 70.9188 26.1896C70.8231 26.4921 70.6607 26.7692 70.4437 27.0006C70.3452 27.119 70.2209 27.2132 70.0804 27.2762C69.9398 27.3391 69.7868 27.3691 69.6329 27.3639C69.318 27.3592 69.0098 27.2726 68.7386 27.1126C68.3877 26.8931 68.012 26.7159 67.6195 26.5846C67.0248 26.3694 66.3943 26.2708 65.7623 26.2942C65.1836 26.2826 64.607 26.3676 64.0562 26.5455C63.6286 26.6741 63.249 26.927 62.9655 27.272C62.7135 27.5997 62.5849 28.0058 62.6023 28.4188C62.5915 28.876 62.7624 29.3188 63.0774 29.6501C63.4555 30.0155 63.8896 30.3178 64.3634 30.5456C64.904 30.8068 65.4913 31.068 66.1255 31.3291C66.7767 31.5988 67.4113 31.907 68.0259 32.2521C68.6746 32.5837 69.2778 32.9976 69.8208 33.4834C70.3762 33.9891 70.815 34.6095 71.1067 35.3018C71.4473 36.1354 71.6092 37.0311 71.5819 37.9312C71.6203 39.1098 71.3195 40.2747 70.715 41.2871C70.1365 42.183 69.3111 42.8923 68.3385 43.3294C67.2622 43.795 66.0985 44.024 64.9261 44.001M162.446 17.5939C162.839 17.6159 163.233 17.5578 163.603 17.4231C163.973 17.2884 164.312 17.08 164.6 16.8103C164.886 16.472 165.103 16.0803 165.237 15.6578C165.372 15.2354 165.421 14.7905 165.383 14.3488V6.60099C165.421 6.1593 165.371 5.71443 165.237 5.29198C165.103 4.86953 164.886 4.47785 164.6 4.13947C163.996 3.63374 163.234 3.35659 162.446 3.35659C161.659 3.35659 160.897 3.63374 160.293 4.13947C159.732 4.83143 159.462 5.71371 159.538 6.60099V14.3488C159.462 15.2361 159.732 16.1184 160.293 16.8103C160.58 17.08 160.919 17.2884 161.289 17.4231C161.66 17.5578 162.053 17.6159 162.447 17.5939M162.447 20.783C161.308 20.8001 160.176 20.5908 159.119 20.1673C158.137 19.7442 157.308 19.0318 156.741 18.125C156.113 16.969 155.813 15.6631 155.874 14.3488V6.60099C155.811 5.29558 156.111 3.99817 156.741 2.85328C157.292 1.94223 158.115 1.22769 159.095 0.810988C161.24 -0.0469561 163.633 -0.0469561 165.779 0.810988C166.772 1.21205 167.606 1.92901 168.151 2.85116C168.781 3.99606 169.082 5.29347 169.018 6.59888V14.3467C169.079 15.661 168.779 16.9668 168.151 18.1229C167.594 19.0378 166.762 19.7528 165.774 20.1652C164.716 20.5887 163.585 20.798 162.446 20.7808M140.955 20.6129C140.52 20.6156 140.09 20.52 139.696 20.3331C139.527 20.2537 139.384 20.1269 139.284 19.968C139.185 19.8092 139.134 19.625 139.137 19.4376V1.3147C139.132 1.13067 139.183 0.949507 139.283 0.794849C139.383 0.64019 139.527 0.51922 139.696 0.447727C140.09 0.260691 140.52 0.165027 140.956 0.167889C141.325 0.156997 141.693 0.204033 142.047 0.30728C142.364 0.413669 142.645 0.607686 142.858 0.866955C143.189 1.23301 143.463 1.64794 143.668 2.09719L149.066 12.5304V1.3147C149.056 1.12971 149.105 0.946409 149.205 0.790788C149.306 0.635168 149.453 0.515137 149.625 0.447727C150.018 0.26095 150.448 0.165296 150.884 0.167889C151.319 0.161043 151.75 0.25691 152.142 0.447727C152.315 0.515137 152.462 0.635168 152.562 0.790788C152.662 0.946409 152.711 1.12971 152.702 1.3147V19.4397C152.705 19.6271 152.654 19.8113 152.554 19.9702C152.455 20.129 152.312 20.2558 152.142 20.3352C151.75 20.526 151.319 20.6219 150.884 20.6151C150.469 20.6182 150.059 20.5325 149.681 20.3637C149.301 20.1695 148.996 19.8545 148.814 19.4682L142.774 8.22299V19.4397C142.777 19.6271 142.726 19.8113 142.627 19.9702C142.527 20.129 142.384 20.2558 142.215 20.3352C141.823 20.526 141.392 20.6218 140.956 20.6151M126.998 13.3139H131.865L129.436 4.7266L126.998 13.3139ZM123.95 20.614C123.597 20.6104 123.246 20.5439 122.916 20.4176C122.585 20.3023 122.281 20.1228 122.02 19.8896C121.907 19.7928 121.816 19.6727 121.753 19.5375C121.691 19.4023 121.658 19.2551 121.657 19.106C121.661 19.0123 121.67 18.9188 121.685 18.8262L127.082 1.23233C127.15 1.02441 127.264 0.833947 127.413 0.674192C127.563 0.514436 127.746 0.389228 127.949 0.30728C128.414 0.102667 128.918 -0.00201445 129.427 -1.36494e-05C129.936 -0.00581047 130.44 0.0990362 130.905 0.30728C131.108 0.389003 131.29 0.513888 131.44 0.673264C131.59 0.83264 131.703 1.02269 131.772 1.23022L137.169 18.8241C137.199 18.9148 137.218 19.0087 137.225 19.1039C137.219 19.2549 137.181 19.4028 137.113 19.5379C137.046 19.673 136.95 19.7921 136.833 19.8875C136.572 20.1207 136.268 20.3002 135.938 20.4155C135.607 20.5418 135.257 20.6083 134.903 20.6119C134.635 20.6177 134.369 20.5703 134.12 20.4725C134.012 20.4097 133.919 20.325 133.846 20.2238C133.773 20.1227 133.723 20.0074 133.697 19.8854L132.635 16.1651H126.203L125.169 19.8854C125.142 20.0102 125.088 20.1276 125.011 20.2291C124.933 20.3306 124.834 20.4137 124.721 20.4725C124.472 20.5703 124.205 20.6177 123.938 20.6119M110.466 17.4238H113.379C113.776 17.4474 114.175 17.3901 114.55 17.2554C114.924 17.1207 115.268 16.9115 115.56 16.6403C116.133 15.9537 116.414 15.0701 116.343 14.1788V6.60099C116.379 6.16448 116.329 5.72513 116.194 5.30828C116.06 4.89143 115.844 4.50532 115.56 4.17221C115.277 3.89473 114.939 3.67929 114.568 3.53965C114.198 3.40001 113.802 3.33924 113.406 3.36121H110.47L110.466 17.4238ZM108.424 20.6129C108.006 20.6328 107.594 20.5148 107.25 20.2771C107.12 20.1849 107.015 20.0633 106.941 19.9223C106.868 19.7814 106.829 19.6251 106.827 19.4661V1.3147C106.829 1.15578 106.868 0.999461 106.941 0.85851C107.015 0.717559 107.12 0.595976 107.25 0.503694C107.594 0.265991 108.006 0.147996 108.424 0.167889H113.379C114.53 0.148658 115.673 0.367604 116.735 0.810988C117.717 1.21826 118.541 1.93442 119.08 2.85116C119.729 3.98967 120.04 5.28986 119.975 6.59888V14.182C120.037 15.4998 119.727 16.8084 119.08 17.9582C118.529 18.8673 117.708 19.5814 116.731 20.0005C115.664 20.4257 114.523 20.635 113.374 20.6161L108.424 20.6129ZM94.5707 9.31383H97.6473C98.431 9.35532 99.2039 9.11733 99.8286 8.64222C100.126 8.34431 100.353 7.98383 100.493 7.58704C100.633 7.19026 100.683 6.76717 100.639 6.34861C100.689 5.92525 100.641 5.49624 100.501 5.09384C100.36 4.69144 100.131 4.32614 99.8286 4.02543C99.2034 3.55161 98.4306 3.31477 97.6473 3.35698H94.5707V9.31383ZM102.149 20.7544C101.891 20.7497 101.639 20.6721 101.423 20.5306C101.191 20.3693 101.008 20.1466 100.895 19.8875L96.9241 12.1671H94.575V19.4397C94.578 19.6271 94.5267 19.8113 94.4274 19.9702C94.3282 20.129 94.1851 20.2558 94.0154 20.3352C93.6237 20.526 93.1925 20.6219 92.7569 20.6151C92.3217 20.6178 91.8915 20.5221 91.4984 20.3352C91.3287 20.2558 91.1856 20.129 91.0863 19.9702C90.987 19.8113 90.9358 19.6271 90.9388 19.4397V1.3147C90.9327 1.01483 91.0428 0.724217 91.246 0.503694C91.36 0.391601 91.4957 0.303992 91.6448 0.246246C91.7938 0.1885 91.9531 0.161835 92.1128 0.167889H97.6473C98.7787 0.150782 99.9046 0.32941 100.975 0.695885C101.952 1.02737 102.795 1.66509 103.38 2.5143C104.034 3.55892 104.346 4.78062 104.276 6.01069C104.3 6.95584 104.139 7.89658 103.801 8.7795C103.515 9.48245 103.064 10.1062 102.486 10.5979C101.933 11.052 101.296 11.3939 100.612 11.6043L104.307 18.4017C104.346 18.4814 104.375 18.5659 104.392 18.653C104.409 18.7172 104.418 18.7831 104.419 18.8494C104.409 19.1768 104.291 19.4915 104.083 19.7449C103.853 20.0492 103.556 20.2979 103.217 20.4725C102.892 20.656 102.526 20.7524 102.153 20.7523M78.7961 13.3118H83.6623L81.2339 4.72449L78.7961 13.3118ZM75.748 20.6119C75.3942 20.6083 75.0439 20.5418 74.7133 20.4155C74.3831 20.3002 74.0788 20.1207 73.818 19.8875C73.7047 19.7907 73.6136 19.6706 73.5509 19.5354C73.4882 19.4001 73.4555 19.253 73.4548 19.1039C73.4585 19.0102 73.4681 18.9167 73.4834 18.8241L78.8806 1.23022C78.9495 1.02269 79.0627 0.83264 79.2123 0.673264C79.362 0.513888 79.5446 0.389003 79.7474 0.30728C80.2132 0.102667 80.7167 -0.00201445 81.2255 -1.36494e-05C81.7346 -0.00584412 82.239 0.099004 82.7036 0.30728C82.9064 0.388942 83.089 0.513805 83.2387 0.67319C83.3884 0.832574 83.5016 1.02265 83.5704 1.23022L88.9676 18.8241C88.9976 18.9148 89.0164 19.0087 89.0236 19.1039C89.0176 19.2549 88.9796 19.4028 88.9121 19.5379C88.8445 19.673 88.749 19.7921 88.6319 19.8875C88.3711 20.1207 88.0669 20.3002 87.7366 20.4155C87.4061 20.5418 87.0557 20.6083 86.7019 20.6119C86.4341 20.6177 86.1678 20.5703 85.9185 20.4725C85.8109 20.4097 85.7177 20.325 85.645 20.2238C85.5722 20.1227 85.5215 20.0074 85.4962 19.8854L84.4341 16.1651H78.0095L76.9749 19.8854C76.9482 20.0102 76.8942 20.1276 76.8168 20.2291C76.7394 20.3306 76.6405 20.4137 76.5272 20.4725C76.2779 20.5703 76.0116 20.6177 75.7438 20.6119M65.7137 20.7798C64.6091 20.7929 63.5129 20.5854 62.4893 20.1694C61.5076 19.7464 60.6781 19.0339 60.1117 18.1271C59.4838 16.9711 59.184 15.6652 59.2449 14.3509V6.60099C59.1814 5.29558 59.4815 3.99817 60.1117 2.85328C60.6674 1.93729 61.5001 1.22199 62.4893 0.810988C63.5148 0.374741 64.6195 0.155771 65.7338 0.167889C66.9152 0.143333 68.0882 0.372348 69.1736 0.8395C70.111 1.21438 70.9248 1.8443 71.5227 2.65792C72.1128 3.47932 72.4173 4.47162 72.3895 5.4827C72.4236 5.743 72.4013 6.0076 72.3241 6.25851C72.2468 6.50942 72.1165 6.74076 71.9419 6.9368C71.5314 7.19118 71.0509 7.30875 70.5693 7.2726C70.1274 7.28502 69.6882 7.19918 69.2834 7.02128C69.1222 6.9343 68.9878 6.8049 68.8947 6.64708C68.8017 6.48925 68.7535 6.309 68.7555 6.12579C68.7498 5.86106 68.7123 5.59797 68.6436 5.34225C68.5834 5.01399 68.46 4.70055 68.2804 4.41931C68.0642 4.09461 67.7648 3.83387 67.4136 3.66428C66.9248 3.43485 66.3871 3.32931 65.8478 3.35698C65.4476 3.33017 65.0462 3.38859 64.6702 3.52839C64.2942 3.66819 63.9521 3.88619 63.6666 4.16799C63.11 4.84926 62.8394 5.71995 62.9117 6.59677V14.3446C62.8355 15.2319 63.1061 16.1141 63.6666 16.8061C63.9676 17.0805 64.3209 17.2914 64.7053 17.426C65.0897 17.5606 65.4974 17.6163 65.9038 17.5896C66.4248 17.6141 66.9436 17.5085 67.4136 17.2823C67.7494 17.1118 68.0304 16.8501 68.2244 16.5273C68.4047 16.2262 68.5278 15.8943 68.5876 15.5484C68.6622 15.2133 68.7182 14.8965 68.7555 14.598C68.7532 14.4108 68.8047 14.2269 68.9039 14.0681C69.0031 13.9094 69.1458 13.7825 69.3151 13.7025C69.7003 13.5243 70.1218 13.4382 70.5461 13.4512C71.0397 13.4116 71.5321 13.5396 71.944 13.8145C72.1173 14.0057 72.2471 14.2323 72.3244 14.4786C72.4017 14.7249 72.4246 14.9851 72.3916 15.2411C72.4137 16.2862 72.1108 17.3123 71.5248 18.1778C70.9445 19.0346 70.1286 19.705 69.1757 20.1082C68.0797 20.5735 66.8979 20.8024 65.7074 20.7798" fill="#030321"/>
<path fill-rule="evenodd" clip-rule="evenodd" d="M30.0606 35.4581C30.2441 35.1311 30.539 34.8808 30.8915 34.753C31.2441 34.6253 31.6308 34.6285 31.9812 34.762C32.3316 34.8956 32.6223 35.1507 32.8003 35.4808C32.9784 35.8108 33.0319 36.1939 32.9512 36.5602C32.8704 36.9264 32.6608 37.2514 32.3605 37.476C32.0601 37.7006 31.6891 37.8097 31.3151 37.7835C30.941 37.7573 30.5888 37.5976 30.3227 37.3333C30.0565 37.0691 29.8942 36.718 29.8653 36.3441C29.8415 36.036 29.9094 35.7277 30.0606 35.4581ZM23.1979 32.8467C22.7739 32.8225 22.3547 32.9461 22.0115 33.1964C21.6684 33.4467 21.4226 33.8082 21.3161 34.2194C21.2096 34.6305 21.2488 35.0659 21.4272 35.4514C21.6056 35.8369 21.9121 36.1486 22.2944 36.3334C22.6768 36.5183 23.1114 36.5648 23.5242 36.4652C23.9371 36.3655 24.3026 36.1258 24.5585 35.7868C24.8145 35.4479 24.945 35.0306 24.928 34.6062C24.9109 34.1818 24.7472 33.7764 24.4649 33.4591C24.3043 33.2787 24.1098 33.1318 23.8924 33.0267C23.675 32.9216 23.439 32.8604 23.1979 32.8467ZM22.4589 41.113C22.7246 40.9565 23.0377 40.9008 23.3411 40.956C23.6445 41.0112 23.918 41.1735 24.1117 41.4135C24.3054 41.6535 24.4064 41.9551 24.3964 42.2634C24.3863 42.5716 24.2659 42.866 24.057 43.0929C23.848 43.3197 23.5646 43.4639 23.2582 43.4992C22.9519 43.5345 22.6431 43.4585 22.388 43.2851C22.133 43.1116 21.9488 42.8523 21.869 42.5544C21.7892 42.2565 21.819 41.9398 21.9531 41.6621C22.0638 41.4331 22.2398 41.242 22.4589 41.113ZM15.8992 34.9555C15.5969 34.7571 15.2351 34.6698 14.8756 34.7083C14.5161 34.7469 14.1811 34.9089 13.9276 35.1669C13.6742 35.4248 13.5181 35.7627 13.4858 36.1229C13.4536 36.4831 13.5472 36.8434 13.7508 37.1422C13.9544 37.4411 14.2553 37.6601 14.6022 37.7619C14.9492 37.8638 15.3207 37.8421 15.6535 37.7006C15.9862 37.5591 16.2596 37.3066 16.4271 36.9861C16.5945 36.6655 16.6457 36.2968 16.5718 35.9428C16.4872 35.5376 16.2453 35.1825 15.8992 34.9555ZM22.6436 28.1971C22.7038 28.9342 22.5006 29.6687 22.0702 30.2701C21.6398 30.8714 21.0102 31.3006 20.2932 31.4813C19.5762 31.662 18.8183 31.5825 18.1545 31.2569C17.4906 30.9313 16.9637 30.3807 16.6675 29.7031C16.3712 29.0256 16.3249 28.2648 16.5367 27.5563C16.7485 26.8477 17.2047 26.2373 17.8241 25.8335C18.4436 25.4297 19.1861 25.2588 19.9198 25.3511C20.6534 25.4433 21.3305 25.7929 21.8307 26.3375C22.3012 26.8495 22.5873 27.504 22.6436 28.1971ZM33.891 40.36C33.6674 40.473 33.4937 40.6651 33.4038 40.899C33.314 41.1329 33.3143 41.3919 33.4047 41.6256C33.4951 41.8593 33.6692 42.051 33.8931 42.1634C34.117 42.2758 34.3747 42.301 34.6161 42.2339C34.8575 42.1668 35.0654 42.0124 35.1992 41.8005C35.3331 41.5887 35.3834 41.3347 35.3403 41.0878C35.2973 40.8409 35.164 40.6189 34.9664 40.4649C34.7688 40.3109 34.5209 40.2359 34.2711 40.2545C34.1387 40.2644 34.0096 40.3003 33.891 40.36ZM12.1416 40.3051C12.3842 40.3031 12.6193 40.3883 12.8043 40.5452C12.9893 40.7021 13.1117 40.9202 13.1493 41.1599C13.1869 41.3995 13.1372 41.6447 13.0092 41.8507C12.8812 42.0568 12.6834 42.2099 12.4519 42.2823C12.2204 42.3547 11.9706 42.3415 11.7481 42.245C11.5255 42.1486 11.345 41.9754 11.2395 41.757C11.1339 41.5386 11.1103 41.2896 11.173 41.0553C11.2357 40.8209 11.3805 40.6169 11.581 40.4804C11.7465 40.3679 11.9415 40.3069 12.1416 40.3051ZM41.3872 31.0335C41.1202 30.8585 40.7976 30.7891 40.4823 30.8387C40.1669 30.8884 39.8813 31.0536 39.681 31.3022C39.4807 31.5509 39.38 31.8651 39.3985 32.1839C39.417 32.5026 39.5534 32.8031 39.7811 33.0269C40.0089 33.2506 40.3117 33.3816 40.6307 33.3944C40.9496 33.4073 41.262 33.301 41.5069 33.0962C41.7519 32.8914 41.9119 32.6029 41.956 32.2866C42 31.9704 41.9248 31.6491 41.7451 31.3852C41.6501 31.2456 41.5284 31.1261 41.3872 31.0335ZM44.8871 21.1473C45.096 21.0246 45.342 20.981 45.5803 21.0245C45.8186 21.068 46.0334 21.1957 46.1855 21.3843C46.3376 21.5729 46.4168 21.8099 46.4088 22.052C46.4008 22.2942 46.3061 22.5254 46.1419 22.7036C45.9777 22.8817 45.755 22.995 45.5143 23.0226C45.2736 23.0503 45.031 22.9905 44.8307 22.8543C44.6304 22.718 44.4857 22.5143 44.423 22.2803C44.3603 22.0462 44.3838 21.7974 44.4891 21.5792C44.5761 21.399 44.7146 21.2487 44.8871 21.1473ZM41.1348 22.121C41.1555 21.7602 41.0505 21.4034 40.8376 21.1114C40.6248 20.8195 40.3173 20.6103 39.9675 20.5197C39.6178 20.429 39.2475 20.4625 38.9196 20.6144C38.5918 20.7662 38.3268 21.0271 38.1697 21.3525C38.0126 21.6779 37.9732 22.0477 38.0582 22.3989C38.1431 22.7502 38.3473 23.061 38.6357 23.2786C38.9242 23.4961 39.2792 23.6069 39.6401 23.5921C40.0011 23.5772 40.3458 23.4376 40.6154 23.197C40.7684 23.0606 40.8931 22.8954 40.9822 22.7107C41.0713 22.5261 41.1232 22.3257 41.1348 22.121ZM34.1296 26.5139C34.5704 26.5106 34.9978 26.6658 35.3337 26.9513C35.6696 27.2368 35.8918 27.6335 35.9597 28.0692C36.0276 28.5048 35.9367 28.9504 35.7035 29.3246C35.4704 29.6988 35.1106 29.9767 34.6897 30.1078C34.2687 30.2388 33.8148 30.2141 33.4105 30.0383C33.0062 29.8625 32.6786 29.5472 32.4874 29.15C32.2961 28.7527 32.2539 28.3 32.3686 27.8742C32.4832 27.4485 32.747 27.0781 33.1118 26.8307C33.4124 26.6269 33.7665 26.5167 34.1296 26.5139ZM29.6953 27.0334C29.4449 26.5371 29.0666 26.1166 28.5995 25.8152C28.1324 25.5139 27.5934 25.3427 27.0381 25.3192C26.4827 25.2957 25.9312 25.4208 25.4403 25.6817C24.9495 25.9425 24.5371 26.3297 24.2457 26.8031C23.9543 27.2765 23.7945 27.8191 23.7827 28.375C23.771 28.9308 23.9077 29.4797 24.1788 29.965C24.4499 30.4503 24.8455 30.8546 25.3249 31.1359C25.8043 31.4173 26.35 31.5657 26.9059 31.5658C27.3947 31.5624 27.8761 31.4457 28.3122 31.2247C29.0499 30.8511 29.6096 30.2005 29.8688 29.4152C30.128 28.6299 30.0656 27.7728 29.6953 27.0334ZM23.7554 15.9276C23.6952 15.1905 23.8984 14.456 24.3288 13.8546C24.7592 13.2533 25.3889 12.8241 26.1058 12.6434C26.8228 12.4627 27.5807 12.5422 28.2445 12.8678C28.9084 13.1934 29.4353 13.744 29.7316 14.4216C30.0278 15.0992 30.0741 15.8599 29.8623 16.5684C29.6505 17.277 29.1943 17.8874 28.5749 18.2912C27.9554 18.695 27.2129 18.8659 26.4793 18.7736C25.7456 18.6814 25.0685 18.3318 24.5683 17.7872C24.0981 17.275 23.812 16.6206 23.7554 15.9276ZM13.1172 30.0356C13.4965 29.8439 13.7977 29.5266 13.9693 29.1377C14.141 28.7488 14.1725 28.3124 14.0585 27.9029C13.9445 27.4934 13.6921 27.136 13.3442 26.8918C12.9963 26.6475 12.5746 26.5315 12.1508 26.5634C11.7269 26.5953 11.3273 26.7732 11.0199 27.0668C10.7126 27.3604 10.5165 27.7515 10.4651 28.1735C10.4137 28.5955 10.5102 29.0222 10.7381 29.381C10.9661 29.7398 11.3113 30.0085 11.7151 30.1412C11.9443 30.2166 12.1861 30.246 12.4266 30.2279C12.6672 30.2098 12.9019 30.1444 13.1172 30.0356ZM24.107 11.0278C23.7276 11.2518 23.2803 11.3319 22.8468 11.2536C22.4132 11.1753 22.0222 10.9438 21.7451 10.6013C21.4679 10.2587 21.3231 9.82796 21.337 9.38753C21.3509 8.94711 21.5225 8.52634 21.8207 8.20193C22.1188 7.87752 22.5236 7.67109 22.9613 7.62026C23.3989 7.56943 23.8402 7.67759 24.2047 7.92502C24.5693 8.17246 24.8328 8.54269 24.9472 8.96821C25.0616 9.39374 25.0193 9.84622 24.8281 10.2432C24.6704 10.5702 24.4195 10.8432 24.107 11.0278ZM32.5185 14.8293C32.7355 14.4459 33.083 14.1533 33.4977 14.0047C33.9124 13.8561 34.3667 13.8615 34.7777 14.02C35.1888 14.1784 35.5292 14.4792 35.737 14.8677C35.9448 15.2562 36.0061 15.7064 35.9098 16.1364C35.8135 16.5663 35.5659 16.9473 35.2122 17.2099C34.8585 17.4725 34.4222 17.5992 33.9829 17.567C33.5435 17.5348 33.1304 17.3457 32.8188 17.0343C32.5071 16.7229 32.3178 16.3099 32.2852 15.8705C32.2582 15.508 32.3394 15.1457 32.5185 14.8293ZM41.214 13.0975C41.48 12.9635 41.6912 12.7415 41.8118 12.4692C41.9324 12.1968 41.9549 11.8911 41.8754 11.6041C41.7958 11.3171 41.6193 11.0665 41.3758 10.8951C41.1322 10.7237 40.8368 10.6421 40.5399 10.6641C40.2429 10.6862 39.9628 10.8105 39.7472 11.016C39.5316 11.2214 39.394 11.4953 39.3577 11.7909C39.3214 12.0865 39.3887 12.3856 39.5481 12.6371C39.7076 12.8887 39.9493 13.0771 40.2321 13.1704C40.3925 13.2233 40.5618 13.2442 40.7303 13.2317C40.8988 13.2192 41.0632 13.1736 41.214 13.0975ZM17.8662 18.3553C17.2204 17.9594 16.7397 17.3432 16.5128 16.6205C16.2859 15.8977 16.328 15.1173 16.6316 14.4232C16.9351 13.7292 17.4794 13.1684 18.164 12.8445C18.8487 12.5205 19.6274 12.4553 20.3564 12.6608C21.0854 12.8663 21.7154 13.3287 22.1302 13.9625C22.5449 14.5964 22.7163 15.3589 22.6128 16.1094C22.5092 16.8598 22.1377 17.5474 21.5668 18.0452C20.9959 18.5431 20.2643 18.8175 19.5069 18.8178C18.9276 18.8195 18.3593 18.6593 17.8662 18.3553ZM30.7469 18.9266C29.9237 18.8865 29.1181 19.1732 28.5053 19.7242C27.8925 20.2753 27.5221 21.0462 27.4748 21.8691C27.4274 22.692 27.707 23.5003 28.2526 24.118C28.7981 24.7357 29.5656 25.1129 30.3879 25.1675H30.5684C31.1712 25.1673 31.7611 24.9927 32.2669 24.6647C32.7727 24.3367 33.1728 23.8694 33.419 23.3191C33.6652 22.7687 33.747 22.1589 33.6544 21.5632C33.5619 20.9674 33.299 20.4111 32.8975 19.9615C32.6256 19.6548 32.2955 19.4054 31.9262 19.2277C31.557 19.0501 31.1561 18.9477 30.7469 18.9266ZM30.5009 9.17133C30.8265 9.38185 31.2188 9.46365 31.6014 9.40084C31.984 9.33802 32.3296 9.13506 32.5709 8.83147C32.8122 8.52788 32.9319 8.14537 32.9067 7.75837C32.8816 7.37137 32.7134 7.00757 32.4348 6.73777C32.1563 6.46796 31.7874 6.31145 31.3999 6.29868C31.0123 6.28592 30.6339 6.41782 30.3383 6.66872C30.0426 6.91962 29.8508 7.27156 29.8003 7.65606C29.7497 8.04057 29.844 8.43013 30.0648 8.74894C30.1811 8.91695 30.3292 9.06046 30.5009 9.17133ZM12.2799 17.6193C11.8394 17.6225 11.4124 17.4673 11.0767 17.1819C10.741 16.8966 10.519 16.5001 10.4512 16.0647C10.3834 15.6293 10.4743 15.1841 10.7073 14.8101C10.9403 14.4362 11.2999 14.1584 11.7205 14.0275C12.1412 13.8965 12.5949 13.9211 12.9989 14.0968C13.4029 14.2725 13.7303 14.5876 13.9215 14.9845C14.1127 15.3815 14.1549 15.834 14.0404 16.2595C13.9259 16.685 13.6623 17.0551 13.2977 17.3025C12.9971 17.5062 12.643 17.6164 12.2799 17.6193ZM5.19028 31.0335C4.90466 31.1774 4.68276 31.4224 4.56776 31.7208C4.45275 32.0193 4.45285 32.3499 4.56806 32.6483C4.68326 32.9466 4.90531 33.1915 5.19102 33.3352C5.47673 33.4788 5.80567 33.5111 6.11383 33.4256C6.422 33.3402 6.68736 33.1431 6.85829 32.8728C7.02922 32.6024 7.09349 32.2782 7.03861 31.9631C6.98372 31.6479 6.81361 31.3645 6.56135 31.1679C6.30909 30.9713 5.99274 30.8756 5.67383 30.8994C5.50541 30.9119 5.34109 30.9575 5.19028 31.0335ZM6.03491 20.7535C6.35756 20.5633 6.73778 20.4955 7.10625 20.5623C7.47472 20.6292 7.80691 20.8262 8.04224 21.1176C8.27758 21.4089 8.40039 21.7752 8.38829 22.1495C8.37619 22.5239 8.22998 22.8814 7.97632 23.157C7.72266 23.4325 7.37845 23.6077 7.00643 23.6506C6.63441 23.6935 6.25936 23.6013 5.94967 23.3907C5.63997 23.1801 5.41626 22.8652 5.31931 22.5034C5.22235 22.1416 5.25862 21.7571 5.4215 21.4198C5.55567 21.1419 5.76912 20.9101 6.03491 20.7535ZM5.01502 13.0965C5.26358 13.2595 5.56099 13.3314 5.85657 13.2997C6.15215 13.2681 6.42762 13.1349 6.63604 12.9229C6.84445 12.7109 6.97292 12.4332 6.99955 12.137C7.02618 11.8409 6.94932 11.5447 6.78208 11.2989C6.61483 11.0531 6.36754 10.8729 6.08235 10.789C5.79715 10.7051 5.4917 10.7227 5.21803 10.8388C4.94437 10.9549 4.71942 11.1624 4.58152 11.4258C4.44362 11.6892 4.4013 11.9922 4.46178 12.2833C4.53121 12.617 4.73019 12.9094 5.01502 13.0965ZM16.3437 8.66868C16.1597 8.99457 15.8647 9.24345 15.5125 9.36996C15.1603 9.49648 14.7744 9.4922 14.4251 9.35791C14.0758 9.22361 13.7864 8.96825 13.6096 8.63836C13.4329 8.30848 13.3805 7.92604 13.4621 7.56077C13.5437 7.1955 13.7538 6.87171 14.0541 6.64844C14.3545 6.42517 14.725 6.31728 15.0982 6.34444C15.4715 6.3716 15.8225 6.53199 16.0873 6.79639C16.3522 7.06079 16.5133 7.41158 16.5411 7.78482C16.5642 8.09249 16.4955 8.40008 16.3437 8.66868ZM0.496213 21.2466C0.704518 21.1233 0.950178 21.079 1.18841 21.1218C1.42665 21.1645 1.64159 21.2915 1.79407 21.4795C1.94655 21.6675 2.0264 21.904 2.01907 22.146C2.01175 22.388 1.91773 22.6192 1.75416 22.7977C1.59059 22.9761 1.36836 23.0898 1.12797 23.1181C0.887588 23.1463 0.645058 23.0872 0.444592 22.9516C0.244126 22.8159 0.0990727 22.6127 0.0358724 22.379C-0.0273279 22.1454 -0.00446643 21.8967 0.10029 21.6785C0.186616 21.4985 0.324408 21.3482 0.496213 21.2466ZM13.5036 24.1632C12.9518 23.5434 12.6685 22.7299 12.716 21.9013H12.7075C12.7424 21.292 12.9549 20.7063 13.3187 20.2164C13.6826 19.7265 14.1819 19.3539 14.7551 19.1446C15.3282 18.9353 15.9501 18.8985 16.544 19.0386C17.1378 19.1787 17.6776 19.4898 18.0968 19.9332C18.5159 20.3767 18.7961 20.9333 18.9026 21.5342C19.0092 22.1351 18.9375 22.754 18.6963 23.3146C18.4552 23.8752 18.0552 24.3529 17.5458 24.6887C17.0363 25.0246 16.4397 25.2039 15.8295 25.2045H15.6585C14.83 25.1561 14.0546 24.7809 13.5026 24.1611M12.5175 3.76783C12.7414 3.65492 12.9153 3.46279 13.0054 3.22879C13.0956 2.99478 13.0955 2.73561 13.0052 2.50165C12.915 2.26769 12.741 2.07565 12.517 1.96286C12.2931 1.85007 12.0352 1.82459 11.7936 1.89136C11.5519 1.95813 11.3437 2.1124 11.2094 2.32416C11.0751 2.53593 11.0243 2.79008 11.0669 3.0372C11.1095 3.28433 11.2425 3.50678 11.4399 3.66133C11.6374 3.81587 11.8852 3.89147 12.1353 3.87342C12.2684 3.86379 12.3983 3.8279 12.5175 3.76783ZM34.2669 3.82696C34.0246 3.82892 33.7898 3.74375 33.605 3.587C33.4203 3.43024 33.2981 3.21232 33.2605 2.97295C33.223 2.73358 33.2727 2.48869 33.4006 2.28291C33.5285 2.07713 33.726 1.92416 33.9572 1.85186C34.1885 1.77956 34.438 1.79276 34.6603 1.88905C34.8826 1.98534 35.0629 2.1583 35.1683 2.37643C35.2738 2.59455 35.2974 2.84332 35.2348 3.07739C35.1723 3.31147 35.0277 3.51527 34.8275 3.65167C34.6621 3.76422 34.467 3.82522 34.2669 3.82696ZM23.0839 3.19337C23.3811 3.20926 23.6747 3.12153 23.9144 2.94515C24.1542 2.76877 24.3254 2.51465 24.3988 2.22614C24.4722 1.93763 24.4432 1.63259 24.3169 1.36304C24.1905 1.09349 23.9746 0.876117 23.7059 0.748C23.4373 0.619884 23.1325 0.588953 22.8436 0.660482C22.5546 0.732012 22.2995 0.901573 22.1216 1.14025C21.9436 1.37892 21.854 1.67193 21.868 1.96931C21.8819 2.26669 21.9986 2.55001 22.1981 2.77097C22.4257 3.02363 22.7443 3.17556 23.0839 3.19337Z" fill="#030321"/>
</g>
</g>
<defs>
<clipPath id="clip0_3803_18513">
<rect width="202" height="44" fill="white"/>
</clipPath>
</defs>
</svg>
