<svg width="146" height="44" viewBox="0 0 146 44" fill="none" xmlns="http://www.w3.org/2000/svg">
<g clip-path="url(#clip0_3803_18520)">
<path d="M51.1001 5.91296H54.7501V6.56996H53.5821V10.731C53.5821 12.702 54.5311 13.578 55.7721 13.578C56.9401 13.578 57.9621 12.848 57.9621 10.585V6.64296H56.7941V5.91296H60.2251V6.56996H59.1301V10.95C59.1301 13.213 57.8891 14.381 55.6991 14.381C53.6551 14.381 52.1951 13.432 52.1951 10.658V6.64296H51.1001V5.91296Z" fill="#030321"/>
<path d="M61.5391 13.5049C61.5391 14.0159 61.1741 14.3809 60.6631 14.3809C60.1521 14.3809 59.7871 14.0159 59.7871 13.5049C59.7871 12.9939 60.1521 12.6289 60.6631 12.6289C61.1741 12.6289 61.5391 12.9939 61.5391 13.5049Z" fill="#030321"/>
<path d="M63.291 11.753H64.021V12.775C64.605 13.432 65.116 13.724 65.7 13.724C66.503 13.724 67.087 13.14 67.087 12.41C67.087 11.023 65.189 10.731 64.021 9.63597C63.51 9.12497 63.291 8.54097 63.291 7.95697C63.291 6.86197 64.24 5.83997 65.627 5.83997C66.211 5.83997 66.795 5.91297 67.233 6.27797V5.76697H67.89V8.02997H67.16V7.08097C66.795 6.64297 66.284 6.35097 65.7 6.35097C64.751 6.35097 64.386 6.93497 64.386 7.51897C64.386 8.83297 66.284 8.97897 67.452 10.22C67.963 10.731 68.182 11.242 68.182 11.899C68.182 13.286 67.16 14.308 65.7 14.308C65.043 14.308 64.532 14.089 63.948 13.724V14.308H63.218V11.753H63.291Z" fill="#030321"/>
<path d="M70.8831 13.5049C70.8831 14.0159 70.5181 14.3809 70.0071 14.3809C69.4961 14.3809 69.1311 14.0159 69.1311 13.5049C69.1311 12.9939 69.4961 12.6289 70.0071 12.6289C70.4451 12.6289 70.8831 12.9939 70.8831 13.5049Z" fill="#030321"/>
<path d="M51.9761 21.3891C52.6331 20.8051 53.5091 20.4401 54.1661 20.4401C55.2611 20.4401 55.9911 21.2431 55.9911 22.4841V24.8201C55.9911 25.4041 56.2101 25.7691 56.5751 25.7691C56.6481 25.7691 57.0131 25.6961 57.1591 25.6961V26.0611C56.7211 26.3531 56.2831 26.4991 55.9181 26.4991C55.4801 26.4991 55.1881 26.2801 54.8961 25.6231C54.1661 26.1341 53.7281 26.4991 53.2171 26.4991C52.4871 26.4991 51.9031 25.8421 51.9031 24.9661C51.9031 24.0901 52.3411 23.6521 53.5091 23.3601L54.7501 23.0681V22.2651C54.7501 21.6081 54.5311 21.0971 53.8011 21.0971C53.3631 21.0971 52.8521 21.3161 52.1951 21.7541L51.9761 21.3891ZM53.0711 24.8931C53.0711 25.3311 53.3631 25.6961 53.8011 25.6961C54.0931 25.6961 54.3851 25.5501 54.7501 25.2581V23.7251C53.5821 23.9441 53.0711 24.3091 53.0711 24.8931Z" fill="#030321"/>
<path d="M57.5972 25.8421H58.6192V21.1701H57.5972V20.5861H59.9332V21.2431C60.5902 20.7321 61.3202 20.4401 62.0502 20.4401C62.9992 20.4401 63.6562 21.0241 63.6562 22.1191V25.8421H64.6782V26.4261H61.4662V25.8421H62.4152V22.4111C62.4152 21.6081 61.9772 21.2431 61.3932 21.2431C60.9552 21.2431 60.4442 21.4621 59.9332 21.8271V25.8421H60.8822V26.4261H57.5972V25.8421Z" fill="#030321"/>
<path d="M69.277 25.842H68.693C67.306 25.842 66.357 25.185 66.357 23.433C66.357 22.046 66.941 21.17 67.89 21.17C68.328 21.17 68.839 21.389 69.277 21.827V25.842ZM68.255 17.885H69.277V21.17C68.693 20.659 68.109 20.44 67.525 20.44C66.138 20.44 64.97 21.754 64.97 23.433C64.97 25.258 66.284 26.426 68.255 26.426H71.613V25.842H70.591V17.301H68.255V17.885Z" fill="#030321"/>
<path d="M76.1392 25.696H77.3072V18.761H76.1392V18.104H79.7892V18.761H78.6212V25.696H79.7892V26.353H76.1392V25.696Z" fill="#030321"/>
<path d="M80.592 25.8421H81.614V21.1701H80.592V20.5861H82.928V21.2431C83.804 20.8051 84.461 20.4401 85.191 20.4401C85.848 20.4401 86.432 20.8051 86.651 21.3891C87.235 20.9511 88.184 20.4401 88.987 20.4401C90.082 20.4401 90.666 21.0971 90.666 22.4111V25.8421H91.688V26.4261H88.33V25.8421H89.279V22.7761C89.279 21.7541 88.914 21.3161 88.184 21.3161C87.746 21.3161 87.162 21.6081 86.651 21.9731V25.9151H87.673V26.4991H84.388V25.9151H85.337V22.9951C85.337 22.0461 85.191 21.3161 84.315 21.3161C83.804 21.3161 83.439 21.5351 82.782 21.9731V25.9151H83.731V26.4991H80.446V25.8421H80.592Z" fill="#030321"/>
<path d="M92.1262 25.8421H93.1482V21.1701H92.1262V20.5861H94.4622V21.2431C95.3382 20.8051 95.9952 20.4401 96.7252 20.4401C97.3822 20.4401 97.8932 20.8051 98.1852 21.3891C98.7692 20.9511 99.7182 20.4401 100.521 20.4401C101.616 20.4401 102.2 21.0971 102.2 22.4111V25.8421H103.222V26.4261H99.9372V25.8421H100.886V22.7761C100.886 21.7541 100.521 21.3161 99.7912 21.3161C99.3532 21.3161 98.7692 21.6081 98.2582 21.9731V25.9151H99.2802V26.4991H95.9952V25.9151H96.9442V22.9951C96.9442 22.0461 96.7982 21.3161 95.9222 21.3161C95.4112 21.3161 95.0462 21.5351 94.3892 21.9731V25.9151H95.3382V26.4991H92.0532V25.8421H92.1262Z" fill="#030321"/>
<path d="M103.66 25.842H104.682V21.17H103.66V20.586H105.923V25.842H106.872V26.426H103.66V25.842ZM105.923 18.98C105.923 19.418 105.558 19.783 105.12 19.783C104.682 19.783 104.317 19.418 104.317 18.98C104.317 18.542 104.682 18.177 105.12 18.177C105.631 18.177 105.923 18.542 105.923 18.98Z" fill="#030321"/>
<path d="M108.697 22.6301C108.697 21.6081 109.135 20.9511 109.938 20.9511C110.741 20.9511 111.179 21.6081 111.179 22.7031C111.179 23.7251 110.741 24.3821 109.938 24.3821C109.208 24.3821 108.697 23.7251 108.697 22.6301ZM113.004 20.5861H111.179C111.033 20.5861 110.814 20.5131 110.668 20.5131C110.449 20.4401 110.23 20.4401 109.865 20.4401C108.405 20.4401 107.456 21.3161 107.456 22.6301C107.456 23.7251 108.113 24.4551 109.354 24.8201L109.135 24.8931C108.478 25.0391 108.186 25.4041 108.186 25.7691C108.186 26.1341 108.405 26.4261 108.916 26.7181C107.748 27.0831 107.237 27.5941 107.237 28.1781C107.237 28.9081 108.259 29.7841 110.084 29.7841C111.836 29.7841 113.004 29.0541 113.004 27.8861C113.004 27.5211 112.931 27.2291 112.639 26.9371C111.763 26.0611 109.5 26.0611 109.5 25.4041C109.5 25.3311 109.5 25.2581 109.573 25.2581C110.011 24.8201 111.033 25.1851 112.055 24.0901C112.493 23.6521 112.639 23.1411 112.639 22.5571C112.639 22.0461 112.42 21.5351 112.055 21.0971H113.077V20.5861H113.004ZM109.281 27.0101C111.179 27.5211 111.763 27.8131 111.763 28.3241C111.763 28.5431 111.617 28.7621 111.325 28.9081C111.033 29.0541 110.522 29.1271 110.011 29.1271C108.989 29.1271 108.332 28.7621 108.332 28.1781C108.405 27.7401 108.624 27.4481 109.281 27.0101Z" fill="#030321"/>
<path d="M113.515 25.8419H114.537V21.1699H113.515V20.5859H115.851V21.5349C116.508 20.6589 116.873 20.3669 117.238 20.3669C117.603 20.3669 117.895 20.5129 118.187 20.9509C118.041 21.5349 117.895 21.9729 117.676 22.4109C117.311 21.8269 117.165 21.6079 116.727 21.6079C116.362 21.6079 116.07 21.8269 115.778 22.2649V25.7689H116.8V26.3529H113.442V25.8419H113.515Z" fill="#030321"/>
<path d="M121.618 23.6521V25.1851C121.253 25.4771 120.961 25.6231 120.669 25.6231C120.231 25.6231 119.939 25.2581 119.939 24.8201C119.866 24.3091 120.377 23.9441 121.618 23.6521ZM118.99 21.8271C119.647 21.3891 120.158 21.1701 120.596 21.1701C121.326 21.1701 121.545 21.6081 121.545 22.3381V23.1411L120.304 23.4331C119.136 23.7251 118.698 24.1631 118.698 25.0391C118.698 25.9151 119.282 26.5721 120.012 26.5721C120.523 26.5721 121.034 26.2071 121.691 25.6961C121.983 26.2801 122.275 26.5721 122.713 26.5721C123.078 26.5721 123.516 26.4261 123.954 26.1341V25.7691C123.808 25.7691 123.443 25.8421 123.37 25.8421C123.005 25.8421 122.786 25.4771 122.786 24.8931V22.5571C122.786 21.3161 122.129 20.5131 120.961 20.5131C120.304 20.5131 119.428 20.8781 118.771 21.4621L118.99 21.8271Z" fill="#030321"/>
<path d="M123.954 21.17L125.998 19.053V20.659H127.604V21.17H125.998V24.528C125.998 25.477 126.217 25.842 126.801 25.842C127.385 25.842 127.604 25.404 127.75 25.404C127.823 25.404 127.896 25.477 127.896 25.55C127.896 25.696 127.385 26.499 126.363 26.499C125.341 26.499 124.757 25.842 124.757 24.601V21.17H123.954Z" fill="#030321"/>
<path d="M128.407 25.842H129.429V21.17H128.407V20.586H130.67V25.842H131.692V26.426H128.407V25.842ZM130.743 18.98C130.743 19.418 130.378 19.783 129.94 19.783C129.502 19.783 129.137 19.418 129.137 18.98C129.137 18.542 129.502 18.177 129.94 18.177C130.378 18.177 130.743 18.542 130.743 18.98Z" fill="#030321"/>
<path d="M133.517 23.5061C133.517 21.9731 134.174 21.0241 135.269 21.0241C136.364 21.0241 137.021 21.9731 137.021 23.5061C137.021 25.0391 136.364 25.9881 135.269 25.9881C134.174 25.9881 133.517 25.0391 133.517 23.5061ZM132.057 23.5061C132.057 25.2581 133.444 26.5721 135.269 26.5721C137.021 26.5721 138.481 25.2581 138.481 23.5061C138.481 21.7541 137.094 20.4401 135.269 20.4401C133.444 20.4401 132.057 21.7541 132.057 23.5061Z" fill="#030321"/>
<path d="M138.919 25.8421H139.941V21.1701H138.919V20.5861H141.255V21.2431C141.912 20.7321 142.642 20.4401 143.372 20.4401C144.321 20.4401 144.978 21.0241 144.978 22.1191V25.8421H146V26.4261H142.788V25.8421H143.664V22.4111C143.664 21.6081 143.226 21.2431 142.642 21.2431C142.204 21.2431 141.693 21.4621 141.182 21.8271V25.8421H142.131V26.4261H138.846V25.8421H138.919Z" fill="#030321"/>
<path d="M81.3952 13.359C80.5922 14.016 79.5702 14.381 78.4022 14.381C75.9202 14.381 74.1682 12.483 74.1682 10.147C74.1682 7.59197 75.9932 5.76697 78.4752 5.76697C79.2052 5.76697 79.8622 5.91297 80.4462 6.13197L80.5192 5.69397H81.0302V8.10297H80.4462C80.2272 7.08097 79.4972 6.49697 78.4022 6.49697C76.7962 6.49697 75.7742 7.88397 75.7742 10.001C75.7742 12.264 77.0152 13.724 78.7672 13.724C79.5702 13.724 80.3732 13.432 81.3952 12.702V13.359Z" fill="#030321"/>
<path d="M82.1252 13.651H83.1472V8.97896H82.1252V8.39496H84.3882V13.651H85.3372V14.235H82.0522V13.651H82.1252ZM84.4612 6.78896C84.4612 7.22696 84.0962 7.59196 83.6582 7.59196C83.2202 7.59196 82.8552 7.22696 82.8552 6.78896C82.8552 6.35096 83.2202 5.98596 83.6582 5.98596C84.0962 6.05896 84.4612 6.42396 84.4612 6.78896Z" fill="#030321"/>
<path d="M85.9941 8.97894L88.0381 6.86194V8.46794H89.6441V9.05194H88.0381V12.4099C88.0381 13.3589 88.2571 13.7239 88.8411 13.7239C89.4251 13.7239 89.6441 13.2859 89.7901 13.2859C89.8631 13.2859 89.9361 13.4319 89.9361 13.4319C89.9361 13.5779 89.4251 14.3809 88.4031 14.3809C87.3811 14.3809 86.7971 13.7239 86.7971 12.4829V9.05194H85.9941V8.97894Z" fill="#030321"/>
<path d="M90.5203 13.651H91.5423V8.97896H90.5203V8.39496H92.7833V13.651H93.7323V14.235H90.5203V13.651ZM92.8563 6.78896C92.8563 7.22696 92.4913 7.59196 92.0533 7.59196C91.6153 7.59196 91.2503 7.22696 91.2503 6.78896C91.2503 6.35096 91.6153 5.98596 92.0533 5.98596C92.4913 6.05896 92.8563 6.42396 92.8563 6.78896Z" fill="#030321"/>
<path d="M94.4622 8.46802H99.2802V8.68702L95.9952 13.651H98.9152V12.629H99.4262V14.162H94.2432V13.943L97.5282 8.97902H94.9732V9.78202H94.4622V8.46802Z" fill="#030321"/>
<path d="M101.47 10.293C101.543 9.34402 101.908 8.83302 102.638 8.83302C103.368 8.83302 103.806 9.34402 103.952 10.293H101.47ZM105.266 10.877C105.047 9.19802 104.098 8.24902 102.711 8.24902C101.105 8.24902 100.083 9.41702 100.083 11.169C100.083 12.775 101.178 14.381 103.149 14.381C103.952 14.381 104.39 14.235 105.339 13.651L105.412 12.994C104.755 13.432 104.098 13.651 103.514 13.651C102.273 13.651 101.543 12.483 101.543 10.804H105.266V10.877Z" fill="#030321"/>
<path d="M105.923 13.651H106.945V8.97902H105.923V8.39502H108.259V9.05202C108.916 8.54102 109.646 8.24902 110.376 8.24902C111.325 8.24902 111.982 8.83302 111.982 9.92802V13.651H113.004V14.235H109.792V13.651H110.741V10.22C110.741 9.41702 110.303 8.97902 109.719 8.97902C109.281 8.97902 108.77 9.19802 108.259 9.56302V13.578H109.208V14.162H105.923V13.651Z" fill="#030321"/>
<path d="M113.734 12.41H114.026C114.245 13.286 114.902 13.797 115.559 13.797C116.143 13.797 116.581 13.505 116.581 13.067C116.581 12.191 115.194 12.191 114.245 11.169C113.88 10.804 113.661 10.366 113.661 9.92802C113.661 8.97902 114.537 8.24902 115.559 8.24902C115.997 8.24902 116.289 8.32202 116.727 8.61402V8.32202H117.165V9.85502H116.8C116.654 9.19802 116.216 8.90602 115.632 8.90602C115.121 8.90602 114.756 9.27102 114.756 9.63602C114.756 10.439 116.216 10.658 117.165 11.607C117.53 11.972 117.676 12.337 117.676 12.775C117.676 13.797 116.873 14.454 115.705 14.454C115.121 14.454 114.829 14.381 114.245 14.016L114.172 14.454H113.734V12.41Z" fill="#030321"/>
<path d="M118.114 13.651H119.136V5.69399H118.114V5.10999H120.45V9.05199C121.034 8.61399 121.837 8.24899 122.567 8.24899C123.443 8.24899 124.173 8.83299 124.173 10.001V13.651H125.195V14.235H121.91V13.651H122.859V10.293C122.859 9.56299 122.421 9.05199 121.837 9.05199C121.399 9.05199 120.961 9.27099 120.377 9.63599V13.651H121.326V14.235H118.041V13.651H118.114Z" fill="#030321"/>
<path d="M125.779 13.651H126.801V8.97896H125.779V8.39496H128.042V13.651H128.991V14.235H125.706V13.651H125.779ZM128.115 6.78896C128.115 7.22696 127.75 7.59196 127.312 7.59196C126.874 7.59196 126.509 7.22696 126.509 6.78896C126.509 6.35096 126.874 5.98596 127.312 5.98596C127.75 6.05896 128.115 6.42396 128.115 6.78896Z" fill="#030321"/>
<path d="M131.984 9.63602C132.495 9.05202 132.787 8.90602 133.298 8.90602C134.247 8.90602 134.904 9.92802 134.904 11.607C134.904 12.848 134.393 13.87 133.371 13.87C132.86 13.87 132.349 13.578 131.984 13.067V9.63602ZM129.648 17.593H132.933V17.009H131.911V13.87C132.349 14.162 132.86 14.381 133.444 14.381C135.561 14.381 136.291 12.629 136.291 11.242C136.291 9.12502 134.831 8.24902 133.663 8.24902C133.298 8.24902 133.006 8.32202 132.787 8.39502C132.495 8.46802 132.276 8.68702 131.984 8.97902V8.39502H129.648V8.97902H130.67V17.009H129.648V17.593Z" fill="#030321"/>
<path d="M51.9031 36.0619H52.5601V37.0839C53.1441 37.7409 53.6551 38.0329 54.2391 38.0329C55.0421 38.0329 55.6261 37.4489 55.6261 36.7189C55.6261 35.3319 53.7281 35.0399 52.5601 33.9449C52.0491 33.4339 51.8301 32.8499 51.8301 32.2659C51.8301 31.1709 52.7791 30.1489 54.1661 30.1489C54.7501 30.1489 55.3341 30.2949 55.7721 30.5869V30.1489H56.5021V32.4119H55.7721V31.3899C55.4071 30.9519 54.8961 30.6599 54.3121 30.6599C53.3631 30.6599 52.9981 31.2439 52.9981 31.8279C52.9981 33.1419 54.8961 33.3609 56.0641 34.5289C56.5751 35.0399 56.7941 35.5509 56.7941 36.2079C56.7941 37.5949 55.7721 38.6169 54.3121 38.6169C53.6551 38.6169 53.1441 38.3979 52.5601 38.0329V38.6899H51.9031V36.0619Z" fill="#030321"/>
<path d="M59.0572 34.602C59.1302 33.653 59.4952 33.142 60.2252 33.142C60.9552 33.142 61.3932 33.653 61.5392 34.602H59.0572ZM62.8532 35.186C62.6342 33.507 61.6852 32.558 60.2982 32.558C58.6922 32.558 57.6702 33.726 57.6702 35.478C57.6702 37.084 58.7652 38.69 60.7362 38.69C61.5392 38.69 61.9772 38.544 62.9262 37.96L62.9992 37.303C62.2692 37.741 61.6852 37.96 61.1012 37.96C59.8602 37.96 59.1302 36.792 59.1302 35.113H62.8532V35.186Z" fill="#030321"/>
<path d="M63.51 37.96H64.532V33.288H63.51V32.704H65.846V33.653C66.503 32.777 66.868 32.485 67.233 32.485C67.598 32.485 67.89 32.631 68.182 33.069C68.109 33.653 67.89 34.091 67.671 34.529C67.306 33.945 67.16 33.726 66.722 33.726C66.357 33.726 66.065 33.945 65.773 34.383V37.96H66.795V38.544H63.51V37.96Z" fill="#030321"/>
<path d="M68.6931 32.704H71.6131V33.288H70.8831L72.2701 36.573L73.4381 33.288H72.5621V32.704H74.7521V33.288H73.9491L71.9781 38.617H71.6861L69.3501 33.288H68.6201V32.704H68.6931Z" fill="#030321"/>
<path d="M75.3362 37.96H76.3582V33.288H75.3362V32.704H77.5992V37.96H78.6212V38.544H75.3362V37.96Z" fill="#030321"/>
<path d="M83.9501 34.383H83.5121C83.3661 33.507 82.7821 33.142 82.1251 33.142C81.1761 33.142 80.5921 33.799 80.5921 35.332C80.5921 37.011 81.2491 37.96 82.4171 37.96C83.3661 37.96 83.9501 37.303 84.0231 37.303C84.1691 37.303 84.2421 37.522 84.2421 37.668C84.2421 37.887 83.2931 38.763 81.9791 38.763C80.3731 38.763 79.1321 37.376 79.1321 35.551C79.1321 33.872 80.3001 32.631 81.9061 32.631C82.4171 32.631 82.7821 32.704 83.3661 32.996L83.4391 32.631H83.8771V34.383H83.9501Z" fill="#030321"/>
<path d="M86.3592 34.602C86.4322 33.653 86.7972 33.142 87.5272 33.142C88.2572 33.142 88.6952 33.653 88.8412 34.602H86.3592ZM90.2282 35.186C90.0092 33.507 89.0602 32.558 87.6732 32.558C86.0672 32.558 85.0452 33.726 85.0452 35.478C85.0452 37.084 86.1402 38.69 88.1112 38.69C88.9142 38.69 89.3522 38.544 90.3012 37.96L90.3742 37.303C89.7172 37.741 89.0602 37.96 88.4762 37.96C87.2352 37.96 86.5052 36.792 86.5052 35.113H90.2282V35.186Z" fill="#030321"/>
<path d="M91.104 36.719H91.396C91.615 37.595 92.272 38.106 92.929 38.106C93.513 38.106 93.951 37.814 93.951 37.376C93.951 36.5 92.564 36.5 91.615 35.478C91.25 35.113 91.031 34.675 91.031 34.237C91.031 33.288 91.907 32.558 92.929 32.558C93.294 32.558 93.586 32.631 94.097 32.923V32.631H94.535V34.164H94.17C94.024 33.507 93.586 33.215 93.002 33.215C92.491 33.215 92.126 33.58 92.126 33.945C92.126 34.748 93.659 34.967 94.535 35.916C94.9 36.281 95.046 36.646 95.046 37.084C95.046 38.106 94.243 38.763 93.075 38.763C92.491 38.763 92.199 38.69 91.615 38.325L91.542 38.69H91.177V36.719H91.104Z" fill="#030321"/>
<path d="M77.6722 31.0979C77.6722 31.5359 77.3072 31.9009 76.8692 31.9009C76.4312 31.9009 76.0662 31.5359 76.0662 31.0979C76.0662 30.6599 76.4312 30.2949 76.8692 30.2949C77.3072 30.3679 77.6722 30.6599 77.6722 31.0979Z" fill="#030321"/>
<path d="M35.1861 14.016C34.9671 14.089 34.6751 14.162 34.4561 14.235C35.8431 16.498 36.5731 19.126 36.5731 21.9C36.5731 30.003 30.0031 36.646 21.8271 36.646C13.7241 36.646 7.08107 30.076 7.08107 21.9C7.08107 18.98 7.95707 16.206 9.41707 13.943C9.19807 13.87 8.97907 13.797 8.68707 13.651C7.30007 16.06 6.42407 18.907 6.42407 21.9C6.42407 30.441 13.3591 37.376 21.9001 37.376C30.4411 37.376 37.3761 30.441 37.3761 21.9C37.3761 19.053 36.5731 16.352 35.1861 14.016Z" fill="#030321"/>
<path d="M13.3592 9.92795C15.7682 8.17595 18.7612 7.15395 21.9002 7.15395C25.4772 7.15395 28.7622 8.39495 31.3172 10.5119C31.6092 10.4389 31.9012 10.366 32.1932 10.293C29.4922 7.88395 25.9152 6.42395 21.9732 6.42395C18.4692 6.42395 15.1842 7.59195 12.6292 9.56295C12.7752 9.63595 12.8482 9.63595 12.9942 9.70895C13.0672 9.78195 13.2132 9.85495 13.3592 9.92795Z" fill="#030321"/>
<path d="M21.9 0C9.782 0 0 9.782 0 21.9C0 34.018 9.782 43.8 21.9 43.8C34.018 43.8 43.8 34.018 43.8 21.9C43.8 9.782 34.018 0 21.9 0ZM21.9 42.413C10.585 42.413 1.387 33.215 1.387 21.9C1.387 10.585 10.585 1.387 21.9 1.387C33.215 1.387 42.413 10.585 42.413 21.9C42.413 33.215 33.215 42.413 21.9 42.413Z" fill="#030321"/>
<path d="M16.644 17.52C16.352 17.374 16.06 17.155 15.768 16.936C14.819 16.06 14.6 15.184 14.892 14.162C15.038 13.578 15.33 13.213 15.257 12.629C15.184 12.264 14.965 11.972 14.673 11.68C14.016 11.096 13.286 10.731 12.191 10.366C11.534 10.147 9.56302 9.49001 8.68702 8.76001C8.46802 9.34401 8.90602 10.147 9.41702 10.22C8.97902 10.293 8.61402 10.512 8.39502 10.731C8.76002 11.096 9.41702 11.534 9.92802 11.534C9.63602 11.68 9.34402 12.045 9.27102 12.264C9.78202 12.483 10.512 12.702 11.096 12.702C10.877 12.921 10.658 13.14 10.512 13.359C10.877 13.505 11.68 13.797 12.41 13.87C12.118 14.016 11.753 14.454 11.534 14.746C11.972 14.965 12.848 15.038 13.432 15.111C13.067 15.33 12.629 15.768 12.41 16.133C12.848 16.352 13.578 16.571 14.162 16.498C13.87 16.79 13.651 17.155 13.505 17.52C13.943 17.593 14.454 17.593 15.038 17.52C14.673 17.958 14.527 18.542 14.527 18.98C14.965 18.98 15.622 18.834 16.06 18.615C15.987 18.98 15.987 19.418 16.133 19.783C16.279 19.71 16.498 19.637 16.79 19.564C16.644 18.761 16.644 18.031 16.644 17.52Z" fill="#030321"/>
<path d="M35.478 9.70898C34.602 10.512 33.215 10.731 31.755 11.169C30.66 11.534 30.003 11.753 28.981 12.556C28.689 12.775 28.397 13.14 28.47 13.651C28.47 14.308 28.616 14.527 28.616 15.403C28.616 16.06 28.397 16.571 28.178 16.863C27.886 17.155 27.521 17.447 27.229 17.593C27.229 18.104 27.156 18.688 27.156 19.272C27.375 19.418 27.667 19.491 27.886 19.564C28.032 19.199 28.032 18.761 27.959 18.396C28.397 18.688 28.981 18.761 29.492 18.761C29.419 18.323 29.273 17.739 28.981 17.301C29.565 17.374 30.076 17.374 30.514 17.301C30.368 16.936 30.222 16.571 29.857 16.279C30.441 16.279 31.244 16.06 31.609 15.914C31.39 15.549 30.952 15.111 30.587 14.892C31.171 14.819 32.047 14.746 32.485 14.527C32.266 14.235 31.901 13.797 31.609 13.651C32.339 13.578 33.142 13.359 33.507 13.14C33.361 12.921 33.142 12.629 32.923 12.483C33.58 12.41 34.237 12.337 34.748 12.045C34.675 11.826 34.31 11.461 34.091 11.315C35.478 11.023 35.478 10.293 35.478 9.70898Z" fill="#030321"/>
<path d="M29.2731 11.242C27.1561 9.78201 24.6011 8.90601 21.9001 8.90601C19.4181 8.90601 17.0821 9.63601 15.1111 10.877C15.6221 11.242 15.9141 11.68 15.9871 12.118C16.0601 12.483 16.0601 12.994 15.8411 13.651C15.6221 14.381 15.4761 15.111 15.9871 15.841C16.4981 16.571 17.2281 16.936 17.7391 17.009C18.4691 16.863 19.2721 16.79 20.1481 16.717C20.2211 16.352 20.5861 16.06 20.8781 15.841C21.3161 15.476 21.2431 15.184 21.0971 14.892C21.0241 14.673 20.8781 14.527 20.5861 14.454C20.3671 14.381 19.6371 14.235 19.6371 14.746C19.4911 14.6 19.4181 14.308 19.4911 14.016C19.5641 13.578 20.2941 13.505 20.4401 13.505C20.2941 13.359 20.3671 13.213 20.6591 13.14C21.0241 13.067 21.3891 12.994 21.6811 13.067C22.3381 13.067 22.4841 13.286 22.8491 13.578C23.2871 13.943 23.7981 14.089 24.0901 13.87C23.9441 14.235 23.4331 14.454 23.0681 14.381C23.2141 14.892 23.2871 15.33 23.3601 15.841C23.3601 16.06 23.4331 16.498 23.5061 16.79C24.4551 16.863 25.4041 17.009 26.2071 17.155C26.5721 17.082 26.8641 16.863 27.2291 16.498C27.5211 16.133 27.8131 15.695 27.6671 14.6C27.6671 14.308 27.4481 13.505 27.5211 13.14C27.6671 12.264 28.3241 11.753 29.2731 11.242Z" fill="#030321"/>
<path d="M20.6589 13.578C20.8049 13.651 20.8779 13.651 20.8779 13.651L20.9509 13.724L21.0239 13.797C21.0969 13.797 21.2429 13.724 21.3889 13.651C21.5349 13.578 21.7539 13.578 21.7539 13.578C21.0969 13.432 21.0239 13.651 20.6589 13.578Z" fill="#030321"/>
<path d="M21.535 23.7981L21.243 23.6521L21.097 23.2141L20.732 23.0681L20.294 22.7031L20.075 22.9951L19.71 23.0681L19.491 23.3601L19.199 23.6521L18.761 23.8711L18.469 24.3821L18.323 24.6011L18.031 24.8201L17.885 24.6741L17.739 24.8201L17.52 25.1851C17.447 24.8931 17.374 24.6741 17.301 24.2361C17.228 23.3601 17.155 22.3381 17.155 21.2431C18.542 20.9511 20.294 20.7321 21.754 20.7321V24.0171C21.681 24.0171 21.608 23.9441 21.535 23.7981Z" fill="#030321"/>
<path d="M21.754 25.4041H17.593C17.666 25.5501 17.739 25.6231 17.812 25.7691C18.104 26.2071 18.542 26.4991 19.053 26.6451C19.783 26.8641 20.221 27.0101 20.586 27.1561L21.024 27.3021C21.389 27.3751 21.608 27.5211 21.754 27.7401V25.4041Z" fill="#030321"/>
<path d="M26.1339 23.798C26.2799 23.725 26.3529 23.579 26.5719 23.506C26.5719 23.141 26.6449 22.703 26.6449 22.265C26.5719 22.265 26.5719 22.338 26.4989 22.411C26.2799 22.557 26.0609 22.776 25.6229 22.776C25.1849 22.776 24.9659 22.63 24.7469 22.484C24.6009 22.411 24.4549 22.265 24.2359 22.265C24.0169 22.265 23.7979 22.411 23.5789 22.484C23.3599 22.63 23.1409 22.776 22.7759 22.776C22.4839 22.776 22.2649 22.703 22.0459 22.557V23.725C22.1189 23.725 22.1189 23.798 22.1919 23.798C22.4109 23.944 22.5569 24.017 22.7759 24.017C22.9219 24.017 23.0679 23.944 23.2869 23.798C23.5059 23.652 23.7979 23.506 24.1629 23.506C24.5279 23.506 24.7469 23.652 24.9659 23.798C25.1849 23.944 25.3309 24.017 25.5499 24.017C25.8419 24.017 25.9879 23.944 26.1339 23.798Z" fill="#030321"/>
<path d="M22.7759 26.426C22.4839 26.426 22.2649 26.353 22.0459 26.207V27.667C22.1919 27.521 22.4109 27.375 22.7759 27.229L23.2139 27.083C23.5789 27.01 24.0169 26.864 24.7469 26.572C24.9659 26.499 25.1849 26.426 25.3309 26.28C25.0389 26.207 24.8929 26.134 24.6739 25.988C24.5279 25.915 24.3819 25.769 24.1629 25.769C23.9439 25.769 23.7249 25.915 23.5059 25.988C23.3599 26.28 23.0679 26.426 22.7759 26.426Z" fill="#030321"/>
<path d="M26.1339 21.9731C26.2799 21.8271 26.4259 21.7541 26.6449 21.6811C26.6449 21.5351 26.6449 21.3891 26.6449 21.2431C25.2579 20.9511 23.5059 20.7321 22.0459 20.7321V21.9731C22.1189 21.9731 22.1189 22.0461 22.1919 22.0461C22.4109 22.1921 22.5569 22.2651 22.7759 22.2651C22.9219 22.2651 23.0679 22.1921 23.2869 22.0461C23.5059 21.9001 23.7979 21.7541 24.1629 21.7541C24.5279 21.7541 24.7469 21.9001 24.9659 22.0461C25.1849 22.1921 25.3309 22.2651 25.5499 22.2651C25.8419 22.2651 25.9879 22.1191 26.1339 21.9731Z" fill="#030321"/>
<path d="M22.0459 24.382V25.623C22.1189 25.623 22.1189 25.696 22.1919 25.696C22.4109 25.842 22.5569 25.915 22.7759 25.915C22.9219 25.915 23.0679 25.842 23.2869 25.696C23.5059 25.55 23.7979 25.404 24.1629 25.404C24.5279 25.404 24.7469 25.55 24.9659 25.696C25.1849 25.842 25.3309 25.915 25.5499 25.915C25.7689 25.915 25.8419 25.842 25.9879 25.769C26.2799 25.404 26.4259 24.893 26.4259 24.309V24.236C26.2069 24.382 25.9879 24.601 25.5499 24.601C25.1119 24.601 24.8929 24.455 24.6739 24.309C24.5279 24.236 24.3819 24.09 24.1629 24.09C23.9439 24.09 23.7249 24.236 23.5059 24.309C23.2869 24.455 23.0679 24.601 22.7029 24.601C22.4839 24.601 22.2649 24.528 22.0459 24.382Z" fill="#030321"/>
<path d="M17.082 20.951C17.009 19.71 16.936 18.542 16.936 17.52C18.396 17.155 20.367 16.936 21.9 16.936C23.433 16.936 25.404 17.155 26.864 17.52C26.864 18.469 26.791 19.71 26.718 20.951C25.331 20.659 23.506 20.44 21.9 20.44C20.294 20.44 18.469 20.659 17.082 20.951Z" fill="#030321"/>
<path d="M18.104 18.323V18.104L17.885 17.958H18.177V17.666L18.25 17.958L18.542 17.885L18.323 18.031L18.469 18.25L18.25 18.177L18.104 18.323Z" fill="#030321"/>
<path d="M19.71 18.104L19.491 17.958L19.272 18.177L19.345 17.885L19.126 17.812H19.345L19.418 17.52L19.491 17.739H19.783L19.564 17.885L19.71 18.104Z" fill="#030321"/>
<path d="M20.8779 18.031L20.6589 17.885L20.5129 18.031L20.5859 17.812L20.3669 17.666H20.5859L20.6589 17.447L20.7319 17.666H21.0239L20.8049 17.812L20.8779 18.031Z" fill="#030321"/>
<path d="M22.1189 18.031L21.8999 17.812L21.6809 18.031L21.8269 17.739L21.6079 17.593L21.8269 17.666L21.8999 17.374L21.9729 17.666L22.2649 17.593L22.0459 17.739L22.1189 18.031Z" fill="#030321"/>
<path d="M25.5501 18.177L25.3311 18.25L25.4771 18.031L25.2581 17.885L25.5501 17.958L25.6231 17.666L25.6961 17.958H25.9151L25.6961 18.104L25.7691 18.323L25.5501 18.177Z" fill="#030321"/>
<path d="M24.2361 17.885L24.0171 17.739H24.3091L24.3821 17.52L24.4551 17.812H24.6741L24.4551 17.885L24.5281 18.177L24.3091 17.958L24.0901 18.104L24.2361 17.885Z" fill="#030321"/>
<path d="M22.9949 17.812L22.7759 17.666H23.0679L23.1409 17.447L23.2139 17.666H23.5059L23.2139 17.812L23.2869 18.031L23.1409 17.885L22.9219 18.031L22.9949 17.812Z" fill="#030321"/>
<path d="M18.25 20.294L18.323 20.075L18.031 19.929H18.323V19.637L18.469 19.856H18.688L18.542 20.002L18.688 20.221L18.396 20.148L18.25 20.294Z" fill="#030321"/>
<path d="M19.856 20.075L19.564 19.929L19.418 20.148L19.491 19.929L19.272 19.783H19.491L19.564 19.491L19.637 19.71H19.929L19.71 19.856L19.856 20.075Z" fill="#030321"/>
<path d="M20.9509 20.002L20.8049 19.856L20.5859 20.075L20.6589 19.783L20.4399 19.637H20.6589L20.7319 19.418L20.8049 19.637H21.0969L20.8779 19.783L20.9509 20.002Z" fill="#030321"/>
<path d="M22.1189 20.002L21.9729 19.856L21.7539 20.002L21.8269 19.783L21.6079 19.637H21.8999L21.9729 19.345L22.0459 19.637H22.2649L22.0459 19.783L22.1189 20.002Z" fill="#030321"/>
<path d="M25.4771 20.148L25.2581 20.294L25.3311 20.002L25.1851 19.856L25.4041 19.929L25.5501 19.637V19.929H25.8421L25.5501 20.075L25.6231 20.294L25.4771 20.148Z" fill="#030321"/>
<path d="M24.1631 19.856L24.0171 19.71L24.2361 19.783L24.3091 19.491L24.3821 19.783H24.6741L24.3821 19.929L24.4551 20.148L24.3091 20.002L24.0901 20.148L24.1631 19.856Z" fill="#030321"/>
<path d="M22.9949 19.783L22.7759 19.637H23.0679L23.1409 19.418L23.2139 19.637H23.4329L23.2139 19.783L23.2869 20.075L23.1409 19.856L22.9219 20.002L22.9949 19.783Z" fill="#030321"/>
<path d="M18.834 19.126L18.907 18.907L18.615 18.761H18.907L18.98 18.469L19.053 18.761L19.345 18.688L19.126 18.834L19.199 19.126L18.98 18.98L18.834 19.126Z" fill="#030321"/>
<path d="M17.666 19.345L17.739 19.053L17.447 18.98L17.739 18.907V18.688L17.885 18.907L18.104 18.834L17.958 19.053L18.104 19.272L17.812 19.126L17.666 19.345Z" fill="#030321"/>
<path d="M20.367 18.98L20.148 18.834L20.002 19.053L20.075 18.761L19.856 18.615H20.075L20.148 18.396L20.221 18.615H20.513L20.294 18.761L20.367 18.98Z" fill="#030321"/>
<path d="M21.5349 18.907L21.3159 18.761L21.1699 18.98L21.2429 18.688L21.0239 18.542H21.2429L21.3159 18.323L21.3889 18.542H21.6809L21.4619 18.688L21.5349 18.907Z" fill="#030321"/>
<path d="M22.7029 18.98L22.4839 18.761L22.3379 18.907L22.4109 18.688L22.1919 18.542H22.4839L22.5569 18.323V18.542H22.8489L22.6299 18.688L22.7029 18.98Z" fill="#030321"/>
<path d="M25.988 19.126L25.769 19.272L25.915 19.053L25.769 18.834L25.988 18.907L26.134 18.688V18.98H26.353L26.134 19.053L26.207 19.345L25.988 19.126Z" fill="#030321"/>
<path d="M24.7471 18.907L24.5281 18.688L24.8201 18.761L24.8931 18.469L24.9661 18.761H25.1851L24.9661 18.907L25.0391 19.126L24.8201 18.98L24.6011 19.126L24.7471 18.907Z" fill="#030321"/>
<path d="M23.5791 18.761L23.3601 18.615H23.6521L23.7251 18.396L23.7981 18.615H24.0171L23.7981 18.761L23.8711 19.053L23.6521 18.834L23.4331 18.98L23.5791 18.761Z" fill="#030321"/>
<path d="M38.106 14.016C38.69 13.724 39.42 13.87 39.566 14.308C39.712 14.746 39.347 15.33 38.763 15.549C38.179 15.841 37.449 15.695 37.303 15.257C37.157 14.892 37.522 14.308 38.106 14.016ZM39.055 16.133C39.785 15.768 40.15 14.965 39.858 14.235C39.566 13.505 38.69 13.213 37.887 13.505C37.157 13.87 36.792 14.673 37.084 15.403C37.449 16.133 38.252 16.425 39.055 16.133Z" fill="#030321"/>
<path d="M37.96 18.1041L37.668 16.9361L37.814 16.8631L37.887 17.1551L40.296 16.5711L40.223 16.2791L40.369 16.2061L40.807 17.9581H40.953L41.026 18.1771L40.369 18.3231L40.296 18.1041L40.588 18.0311L40.369 17.1551L39.42 17.4471L39.566 18.1041L39.858 18.0311L39.931 18.2501L39.128 18.4691L39.055 18.2501L39.347 18.1771L39.201 17.5201L38.106 17.8121L38.179 18.1041H37.96Z" fill="#030321"/>
<path d="M3.94192 15.038L3.79592 15.33L5.40192 15.768C5.83992 15.914 6.13192 16.133 6.20492 16.571C6.20492 16.79 6.20492 17.009 6.13192 17.228C5.91292 17.885 5.40192 18.25 4.81792 18.031L3.13892 17.52L3.06592 17.812L2.91992 17.739L3.28492 16.571L3.43092 16.644L3.35792 16.936L4.81792 17.52C5.25592 17.666 5.47492 17.593 5.62092 17.447C5.76692 17.374 5.83992 17.228 5.83992 17.155C5.98592 16.644 5.76692 16.279 5.25592 16.133L3.72292 15.695L3.64992 15.987L3.50392 15.914L3.79592 14.965L3.94192 15.038Z" fill="#030321"/>
<path d="M6.64291 15.695C6.56991 15.841 6.42391 15.914 6.27791 15.841C6.13191 15.768 6.05891 15.622 6.13191 15.476C6.20491 15.33 6.35091 15.257 6.49691 15.33C6.64291 15.33 6.71591 15.549 6.64291 15.695Z" fill="#030321"/>
<path d="M7.22707 14.454L7.08107 14.673L6.42407 14.308L6.57007 14.089L6.86207 14.235C7.08107 14.162 7.22707 14.016 7.30007 13.87C7.44607 13.651 7.37307 13.359 7.15407 13.286C7.00807 13.213 6.78907 13.213 6.35107 13.432C5.91307 13.651 5.84007 13.724 5.69407 13.724C5.54807 13.724 5.32907 13.724 5.18307 13.651C4.74507 13.432 4.67207 12.921 4.89107 12.483C4.96407 12.337 5.03707 12.264 5.18307 12.118L5.11007 12.045L5.25607 11.826L5.91307 12.191L5.76707 12.41L5.47507 12.264C5.25607 12.337 5.18307 12.483 5.11007 12.556C4.96407 12.775 5.03707 12.994 5.25607 13.067C5.40207 13.14 5.54807 13.14 5.98607 12.848C6.20507 12.702 6.35107 12.629 6.35107 12.629C6.49707 12.556 6.57007 12.556 6.71607 12.556C6.86207 12.556 7.00807 12.556 7.15407 12.702C7.59207 12.921 7.73807 13.432 7.44607 13.87C7.30007 14.089 7.15407 14.235 7.00807 14.308L7.22707 14.454Z" fill="#030321"/>
<path d="M8.32204 12.483C8.32204 12.629 8.17604 12.775 8.03004 12.775C7.88404 12.775 7.73804 12.629 7.73804 12.483C7.73804 12.337 7.88404 12.191 8.03004 12.191C8.24904 12.191 8.32204 12.337 8.32204 12.483Z" fill="#030321"/>
<path d="M15.1109 6.86201L13.2859 7.81101L13.2129 7.66501L13.5049 7.51901L12.3369 5.25601L12.0449 5.40201L11.9719 5.25601L13.5779 4.45301L13.5049 4.38001L13.7239 4.30701L14.0159 4.89101L13.7969 4.96401L13.6509 4.67201L12.8479 5.11001L13.2859 6.05901L13.8699 5.76701L13.7239 5.47501L13.9429 5.32901L14.3079 6.05901L14.0889 6.20501L13.9429 5.91301L13.2859 6.20501L13.7969 7.15401L14.6729 6.71601L14.5999 6.42401L14.8189 6.35101L15.1109 6.86201Z" fill="#030321"/>
<path d="M16.8631 6.20498L15.6951 6.56998L15.6221 6.42398L15.9141 6.35098L15.1111 3.94198L14.8191 4.01498L14.7461 3.86898L16.0601 3.43098C16.5711 3.28498 17.0091 3.43098 17.1551 3.94198C17.3011 4.37998 17.0091 4.89098 16.5711 5.10998C16.4981 5.10998 16.4251 5.10998 16.3521 5.18298L16.2791 4.96398C16.3521 4.96398 16.3521 4.96398 16.4251 4.96398C16.7171 4.89098 16.7901 4.59898 16.6441 4.23398C16.4981 3.86898 16.2791 3.72298 15.9871 3.79598L15.7681 3.86898L16.5711 6.20498L16.9361 6.05898L16.8631 6.20498Z" fill="#030321"/>
<path d="M18.323 4.59905L18.542 3.43105L19.126 4.45305L18.323 4.59905ZM20.44 5.25605H20.294L18.761 2.70105L18.469 2.77405L17.812 5.69405L17.52 5.76705V5.91305L18.396 5.76705V5.62105L18.031 5.69405L18.177 4.96405L19.199 4.81805L19.71 5.40205L19.418 5.47505V5.62105L20.44 5.40205V5.25605Z" fill="#030321"/>
<path d="M21.6809 2.77406H21.9729C22.2649 2.77406 22.4839 2.99306 22.4839 3.35806C22.4839 3.72306 22.2649 3.94206 21.9729 3.94206H21.6809V2.77406ZM23.4329 5.25606H23.2869C23.2139 5.25606 23.1409 5.18306 23.0679 5.03706L22.4839 4.08806C22.9219 3.94206 23.0679 3.72306 23.0679 3.28506C23.0679 3.06606 22.9949 2.84706 22.8489 2.70106C22.7029 2.55506 22.4839 2.48206 22.1189 2.48206H20.8049V2.70106H21.1699V5.18306H20.8049V5.40206H22.0459V5.25606H21.7539V4.16106H21.8999L22.5569 5.18306C22.7029 5.40206 22.7759 5.47506 22.9949 5.47506H23.5789L23.4329 5.25606Z" fill="#030321"/>
<path d="M25.4041 5.76706L24.0171 5.54806V5.40206L24.4551 5.47506L24.8931 3.06606L24.1631 2.92006L24.0901 3.28506L23.8711 3.21206L24.0171 2.48206L24.2361 2.55506V2.70106L26.2801 3.06606V2.92006H26.4991L26.3531 3.65006L26.1341 3.57706L26.2071 3.21206L25.4771 3.06606L25.0391 5.47506L25.4771 5.54806L25.4041 5.76706Z" fill="#030321"/>
<path d="M29.492 7.15404L28.251 6.71604L28.324 6.57004L28.689 6.71604L29.346 4.96404L27.74 6.49704L27.521 4.16104L26.864 5.91304L27.229 6.05904L27.156 6.20504L26.134 5.84004L26.207 5.69404L26.572 5.84004L27.448 3.50404L27.083 3.35804L27.156 3.21204L27.886 3.50404L28.105 5.76704L29.711 4.23404L30.514 4.52604L30.441 4.67204L30.076 4.52604L29.2 6.86204L29.565 7.00804L29.492 7.15404Z" fill="#030321"/>
<path d="M31.6089 8.54099L29.8569 7.44599L29.9299 7.29999L30.2219 7.44599L31.6089 5.32899L31.3169 5.18299L31.3899 4.96399L32.9229 5.91299L32.9959 5.83999L33.2149 5.98599L32.8499 6.56999L32.6309 6.42399L32.7769 6.13199L32.0469 5.62099L31.4629 6.56999L32.0469 6.93499L32.1929 6.71599L32.4119 6.86199L31.9739 7.59199L31.7549 7.44599L31.9009 7.15399L31.3169 6.78899L30.7329 7.66499L31.5359 8.17599L31.6819 7.88399L31.9009 8.02999L31.6089 8.54099Z" fill="#030321"/>
<path d="M12.264 6.78898C11.753 6.13198 10.877 5.98598 10.22 6.49698L9.125 7.29998L9.198 7.44598L9.49 7.22698L10.95 9.27098C11.023 9.27098 11.096 9.34398 11.169 9.34398L11.899 8.83298C12.264 8.61398 12.41 8.32198 12.483 7.95698C12.629 7.44598 12.483 7.08098 12.264 6.78898ZM11.68 8.68698L11.388 8.90598L10.001 7.00798L10.293 6.78898C10.731 6.49698 11.388 6.64298 11.753 7.15398C12.191 7.66498 12.118 8.32198 11.68 8.68698Z" fill="#030321"/>
<path d="M35.3319 7.95694L35.1859 8.10294L35.4049 8.32194L34.1639 9.70894L34.4559 7.29994L33.7989 6.71594L33.6529 6.86194L33.8719 7.08094L33.7989 7.37294L32.2659 9.05194L31.9739 8.83294L31.8279 8.97894L32.5579 9.63594L32.7039 9.48994L32.4849 9.27094L33.7989 7.88394L33.5069 10.1469C33.7989 10.0739 34.0909 10.0009 34.3829 9.92794H34.4559L35.5509 8.68694L35.8429 8.90594L35.9889 8.75994L35.3319 7.95694Z" fill="#030321"/>
<path d="M38.252 11.096L38.179 11.169L36.938 9.49L37.011 9.417L36.865 9.198L36.281 9.636L36.427 9.855L36.719 9.636L37.157 10.22L35.186 11.68H35.113C35.04 11.68 34.967 11.753 34.967 11.753L35.697 12.702L35.843 12.556L35.624 12.191L37.595 10.731L38.033 11.315L37.741 11.534L37.887 11.753L38.471 11.315L38.252 11.096Z" fill="#030321"/>
<path d="M25.5499 41.099L25.3309 41.172L25.1849 40.369L25.4039 40.296L25.4769 40.588C25.6959 40.734 25.8419 40.734 26.0609 40.661C26.3529 40.588 26.4989 40.369 26.4259 40.15C26.3529 39.931 26.2069 39.858 25.7689 39.712C25.2579 39.566 25.2579 39.493 25.1119 39.42C24.9659 39.347 24.8929 39.128 24.8199 38.982C24.7469 38.544 24.9659 38.106 25.5499 38.033C25.6959 38.033 25.8419 37.96 26.0609 38.033V37.887L26.2799 37.814L26.4259 38.544L26.2069 38.617L26.1339 38.325C25.9149 38.252 25.8419 38.252 25.6229 38.252C25.4039 38.325 25.2579 38.471 25.3309 38.69C25.4039 38.836 25.4769 38.909 25.9879 39.128C26.2069 39.201 26.3529 39.274 26.4259 39.274C26.5719 39.347 26.6449 39.42 26.7179 39.493C26.8639 39.639 26.8639 39.712 26.9369 39.931C27.0099 40.442 26.7909 40.807 26.2799 40.953C26.0609 41.026 25.8419 41.026 25.6229 40.953L25.5499 41.099Z" fill="#030321"/>
<path d="M29.93 39.712L28.032 40.442L27.959 40.296L28.251 40.15L27.302 37.814L27.01 37.96L26.937 37.814L28.616 37.157L28.543 37.011L28.762 36.938L28.981 37.595L28.762 37.668L28.616 37.376L27.74 37.741L28.105 38.69L28.762 38.471L28.689 38.179L28.908 38.106L29.2 38.909L28.981 38.982L28.835 38.69L28.178 38.909L28.543 39.931L29.419 39.566L29.273 39.274L29.492 39.201L29.93 39.712Z" fill="#030321"/>
<path d="M32.8501 37.887C32.6311 38.179 32.4121 38.325 32.1201 38.544C31.3171 39.055 30.4411 38.836 30.0031 38.106C29.5651 37.376 29.7841 36.5 30.5141 36.062C30.7331 35.916 30.9521 35.843 31.2441 35.843L31.1711 35.697L31.3901 35.551L31.8281 36.208L31.6091 36.354L31.4631 36.135C31.1711 36.135 31.0251 36.135 30.8061 36.281C30.2951 36.573 30.2221 37.23 30.5871 37.887C30.9521 38.471 31.6091 38.69 32.1201 38.398C32.3391 38.252 32.4121 38.179 32.5581 37.96L32.4121 37.668L32.6311 37.522L32.8501 37.887Z" fill="#030321"/>
<path d="M34.1639 33.434L33.8719 33.653L34.9669 34.894C35.3319 35.259 35.4049 35.624 35.2589 35.989C35.1859 36.208 35.0399 36.354 34.8939 36.5C34.3829 37.011 33.7989 37.011 33.3609 36.573L32.1929 35.259L31.9739 35.478L31.8279 35.332L32.7039 34.529L32.8499 34.675L32.6309 34.894L33.7259 36.062C34.0179 36.354 34.2369 36.5 34.4559 36.427C34.6019 36.427 34.6749 36.354 34.7479 36.208C35.1129 35.843 35.1859 35.405 34.8209 35.04L33.7259 33.872L33.4339 34.091L33.2879 33.945L34.0179 33.288L34.1639 33.434Z" fill="#030321"/>
<path d="M39.055 30.8789L38.471 31.9739L38.325 31.9009L38.471 31.6089L36.281 30.4409L36.135 30.6599L35.989 30.5869L36.573 29.4919L36.719 29.5649L36.573 29.8569L38.763 31.0249L38.909 30.7329L39.055 30.8789Z" fill="#030321"/>
<path d="M40.223 28.251L39.712 29.565L39.566 29.492L39.712 29.127L37.449 28.251L37.157 28.981L37.522 29.127L37.449 29.346L36.719 29.054L36.792 28.835L36.938 28.908L37.668 26.937L37.522 26.864L37.595 26.645L38.325 26.937L38.252 27.156L37.887 27.01L37.595 27.74L39.858 28.616L40.004 28.251H40.223Z" fill="#030321"/>
<path d="M40.953 25.039L40.734 26.207H40.588L40.661 25.915L39.42 25.623L37.96 26.28V26.499H37.814L38.033 25.331H38.179L38.106 25.623L39.128 25.185L38.325 24.455L38.252 24.82H38.106L38.325 23.798H38.471L38.398 24.09L39.42 25.039L40.734 25.258L40.807 24.966L40.953 25.039Z" fill="#030321"/>
<path d="M38.0331 32.412L37.9601 32.558C37.8871 32.631 37.8141 32.631 37.6681 32.631L36.5001 32.558C36.6461 32.12 36.5731 31.828 36.2811 31.609C36.0621 31.463 35.9161 31.39 35.6971 31.463C35.4781 31.463 35.3321 31.609 35.1131 31.901L34.3101 32.996L34.4561 33.069L34.6751 32.777L36.7191 34.31L36.5001 34.602L36.6461 34.675L37.3761 33.726L37.1571 33.58L36.9381 33.872L36.0621 33.215L36.1351 33.142L37.3761 33.215C37.6681 33.215 37.6681 33.215 37.8871 32.996L38.2521 32.558L38.0331 32.412ZM35.0401 32.412L35.1861 32.193C35.4051 31.974 35.6241 31.901 35.9161 32.12C36.2081 32.339 36.2811 32.631 36.0621 32.85L35.9161 33.069L35.0401 32.412Z" fill="#030321"/>
<path d="M3.43093 27.74L3.13893 26.572L3.28493 26.499L3.35793 26.791L4.45293 26.499L4.08793 25.112L2.99293 25.404L3.06593 25.696L2.91993 25.769L2.62793 24.601L2.77393 24.528L2.91993 24.893L5.32893 24.309L5.25593 24.017L5.40193 23.944L5.69393 25.112L5.54793 25.185V24.82L4.45293 25.112L4.81793 26.499L5.83993 26.207L5.76693 25.915L5.91293 25.842L6.20493 27.01L6.05893 27.083L5.98593 26.791L3.57693 27.375L3.64993 27.667L3.43093 27.74Z" fill="#030321"/>
<path d="M5.11002 28.397C5.69402 28.105 6.42402 28.251 6.57002 28.616C6.71602 28.981 6.35102 29.638 5.76702 29.857C5.18302 30.149 4.45302 30.003 4.30702 29.638C4.16102 29.273 4.52602 28.689 5.11002 28.397ZM6.05902 30.441C6.78902 30.076 7.15402 29.273 6.78902 28.543C6.42402 27.813 5.62102 27.521 4.81802 27.886C4.08802 28.251 3.72302 29.054 4.08802 29.784C4.45302 30.514 5.32902 30.806 6.05902 30.441Z" fill="#030321"/>
<path d="M7.15411 34.6021L6.42411 33.58L6.57011 33.434L6.78911 33.726L8.32211 32.631L6.05911 33.069L7.15411 31.025L5.69411 32.12L5.91311 32.4121L5.76711 32.485L5.18311 31.6821L5.32911 31.609L5.54811 31.901L7.59211 30.441L7.37311 30.149L7.51911 30.076L7.95711 30.733L6.93511 32.7771L9.12511 32.339L9.63611 33.069L9.49011 33.1421L9.27111 32.85L7.22711 34.31L7.44611 34.6021H7.15411Z" fill="#030321"/>
<path d="M9.41703 36.865L7.88403 35.478L8.03003 35.332L8.24903 35.551L9.92803 33.726L9.70903 33.507L9.85503 33.361L11.169 34.602L11.242 34.529L11.388 34.675L10.95 35.113L10.804 34.967L11.023 34.748L10.366 34.164L9.63603 34.894L10.147 35.332L10.366 35.113L10.512 35.259L9.92803 35.916L9.78203 35.77L10.001 35.551L9.49003 35.04L8.76003 35.843L9.49003 36.5L9.70903 36.281L9.85503 36.427L9.41703 36.865Z" fill="#030321"/>
<path d="M12.045 38.617L10.366 37.449L10.439 37.303L10.731 37.522L12.118 35.405L11.826 35.186L11.899 35.04L12.921 35.697L12.848 35.843L12.556 35.77L11.169 37.814L11.972 38.325L12.118 38.033L12.337 38.179L12.045 38.617Z" fill="#030321"/>
<path d="M13.7969 38.252L14.6729 37.449L14.5999 38.617L13.7969 38.252ZM15.1839 40.004L15.0379 39.931L15.1839 36.938L14.9649 36.792L12.7749 38.836L12.5559 38.69L12.4099 38.909L13.2129 39.274L13.2859 39.128L12.9939 38.982L13.5779 38.471L14.5269 38.909L14.4539 39.639L14.1619 39.493L14.0889 39.639L15.0379 40.077L15.1839 40.004Z" fill="#030321"/>
<path d="M18.1771 41.026L17.8851 40.953L16.9361 38.544L16.4981 40.369L16.8631 40.442L16.7901 40.588L15.8411 40.369L15.9141 40.223L16.2791 40.296L16.7901 38.033L16.7171 37.814L16.4251 37.741L16.4981 37.595L17.3741 37.814L18.2501 40.077L18.6881 38.325L18.2501 38.179L18.3231 38.033L19.2721 38.252L19.1991 38.398L18.8341 38.325L18.1771 41.026Z" fill="#030321"/>
<path d="M21.024 38.325L19.637 38.252V38.471H20.002L19.929 40.953H19.564V41.172L20.951 41.245C21.389 41.245 21.681 41.172 21.973 40.88C22.265 40.588 22.484 40.223 22.484 39.858C22.484 38.982 21.827 38.398 21.024 38.325ZM21.827 39.785C21.827 40.442 21.389 40.953 20.805 40.953H20.44L20.513 38.544H20.878C21.462 38.617 21.827 39.128 21.827 39.785Z" fill="#030321"/>
<path d="M35.843 23.725L34.748 24.09L34.967 24.163L34.602 24.382C34.675 24.163 34.675 23.944 34.675 23.725L35.259 23.214V23.506L35.916 22.63L34.894 23.068L35.113 23.141L34.675 23.506C34.675 23.214 34.748 22.995 34.748 22.703L35.332 22.046L35.405 22.338L35.916 21.389L35.04 21.9H35.332L34.894 22.411C34.894 22.265 34.894 22.046 34.894 21.9C34.894 20.586 34.675 19.345 34.383 18.177C33.799 18.25 33.215 18.031 32.923 17.958C33.653 18.396 33.945 18.907 34.018 19.418C33.434 19.564 32.631 19.345 32.193 18.98C32.631 19.345 32.923 19.929 32.923 20.586C32.339 20.586 31.755 20.294 31.317 19.929C31.609 20.221 31.901 21.024 31.828 21.535C31.317 21.462 30.733 21.17 30.368 20.732C30.66 21.316 30.806 21.827 30.733 22.338C30.222 22.265 29.857 22.119 29.346 21.681C29.565 22.265 29.638 22.776 29.565 23.214C28.981 22.995 28.543 22.776 28.251 22.192C28.397 22.703 28.543 23.36 28.397 23.725C27.886 23.579 27.594 23.287 27.302 22.776C27.594 23.287 27.521 23.944 27.448 24.309C27.229 24.236 26.937 24.09 26.791 23.944C26.791 24.017 26.791 24.163 26.791 24.236C26.791 24.601 26.718 24.966 26.572 25.258C26.645 25.331 26.718 25.404 26.718 25.404C27.01 25.696 27.375 25.988 27.594 26.061C27.448 26.061 27.302 26.207 27.156 26.207C27.375 26.426 27.74 26.499 27.959 26.718C27.74 26.718 27.74 26.864 27.521 26.864C27.959 27.229 28.324 27.229 28.543 27.229C28.616 27.229 28.908 27.302 29.127 27.229C29.346 27.229 29.565 27.302 29.711 27.375L32.047 22.63L31.755 22.703L32.485 21.827L32.266 22.922L32.12 22.703L29.784 27.448C29.857 27.521 29.857 27.594 29.857 27.667L29.93 27.594L33.726 24.601L33.58 24.528L34.602 24.09L33.945 24.966V24.674L30.149 27.667C30.222 27.667 30.368 27.74 30.368 27.74C30.441 27.813 30.441 27.886 30.368 28.105C30.295 28.251 30.295 28.324 30.149 28.324C30.149 28.324 30.076 28.324 30.003 28.324L30.076 28.397C30.076 28.47 30.149 28.543 30.003 28.689C29.857 28.835 29.784 28.908 29.638 28.835C29.565 28.835 29.565 28.762 29.565 28.762C29.565 28.835 29.565 28.835 29.565 28.908C29.565 29.054 29.492 29.127 29.346 29.127C29.127 29.2 28.981 29.2 28.908 29.054C28.762 28.835 28.835 28.616 28.908 28.543C28.908 28.616 28.908 28.689 28.908 28.762C28.908 28.835 28.981 28.981 29.127 28.981C29.2 28.981 29.346 28.908 29.419 28.908C29.492 28.835 29.492 28.762 29.419 28.689C29.419 28.616 29.419 28.616 29.346 28.543C29.419 28.543 29.492 28.616 29.565 28.689C29.638 28.762 29.711 28.762 29.784 28.689C29.857 28.616 29.93 28.543 29.93 28.47C30.003 28.324 29.857 28.251 29.711 28.178C29.857 28.178 29.93 28.251 30.076 28.251C30.222 28.251 30.295 28.032 30.295 27.959C30.295 27.886 30.222 27.813 30.149 27.813C30.076 27.813 30.003 27.813 29.93 27.813C29.93 27.813 29.93 27.813 29.93 27.886C29.93 27.959 29.857 28.032 29.784 28.105C29.711 28.105 29.638 28.105 29.711 28.105C29.784 28.032 29.857 27.813 29.711 27.667C29.638 27.594 29.492 27.521 29.273 27.521C29.054 27.521 28.762 27.521 28.616 27.521C28.47 27.521 28.397 27.667 28.397 27.74C28.324 27.886 28.324 28.105 28.032 28.032C27.74 27.886 27.302 27.886 26.791 27.667C26.864 27.813 26.864 27.959 26.937 28.105C26.499 28.032 26.353 27.74 25.988 27.594C26.061 27.74 26.061 27.886 26.134 28.032C25.769 27.959 25.477 27.667 24.966 27.521C24.966 27.521 24.966 27.521 24.893 27.521C24.747 27.594 24.528 27.594 24.382 27.667C24.747 28.032 25.039 28.543 25.185 29.127C25.185 29.127 24.966 29.127 24.601 28.981C24.674 29.273 24.747 29.638 24.747 30.003C24.747 30.003 24.455 29.93 24.09 29.711C24.09 30.076 24.09 30.441 24.017 30.806C24.017 30.806 23.725 30.66 23.287 30.295C23.214 30.66 23.141 31.025 22.995 31.39C22.995 31.39 22.703 31.171 22.411 30.733C22.265 31.098 22.119 31.463 21.9 31.828C21.9 31.828 21.608 31.463 21.389 30.806C21.097 31.244 20.805 31.463 20.805 31.463C20.659 31.098 20.586 30.733 20.513 30.368C20.148 30.733 19.783 30.879 19.783 30.879C19.71 30.514 19.71 30.149 19.71 29.784C19.345 30.003 19.053 30.076 19.053 30.076C19.053 29.711 19.126 29.346 19.199 29.054C18.834 29.2 18.615 29.2 18.615 29.2C18.761 28.616 19.126 27.959 19.418 27.667C19.272 27.594 19.126 27.594 18.98 27.521C18.98 27.521 18.98 27.521 18.907 27.521C18.396 27.667 18.104 27.959 17.739 28.032C17.812 27.886 17.812 27.74 17.885 27.594C17.447 27.74 17.374 27.959 16.936 28.105C17.009 27.959 17.009 27.813 17.082 27.667C16.644 27.886 16.133 28.032 15.841 28.032C15.549 28.105 15.549 27.667 15.476 27.594C15.403 27.521 15.184 27.521 15.111 27.521C14.965 27.521 14.673 27.521 14.527 27.521C14.308 27.521 14.162 27.594 14.089 27.667C13.943 27.74 14.016 28.032 14.089 28.105C14.162 28.178 14.089 28.178 14.016 28.105C13.87 28.032 13.87 27.959 13.87 27.886C13.797 27.886 13.724 27.886 13.651 27.886C13.578 27.886 13.505 27.959 13.505 28.032C13.505 28.105 13.505 28.324 13.651 28.397C13.797 28.397 13.797 28.324 14.016 28.324C13.943 28.397 13.724 28.47 13.797 28.616C13.797 28.689 13.87 28.762 13.943 28.835C14.016 28.908 14.089 28.908 14.162 28.835C14.235 28.762 14.308 28.762 14.381 28.689C14.308 28.762 14.308 28.762 14.308 28.835C14.308 28.908 14.308 29.054 14.308 29.054C14.381 29.127 14.527 29.127 14.6 29.127C14.746 29.127 14.746 29.054 14.819 28.981C14.819 28.908 14.819 28.835 14.819 28.762C14.892 28.835 14.965 29.054 14.819 29.273C14.746 29.346 14.6 29.419 14.381 29.273C14.235 29.2 14.162 29.2 14.162 29.054C14.162 28.981 14.162 28.981 14.235 28.908L14.162 28.981C14.089 29.054 13.943 28.981 13.797 28.835C13.651 28.689 13.724 28.616 13.724 28.543C13.724 28.47 13.797 28.47 13.797 28.47C13.724 28.47 13.651 28.47 13.651 28.47C13.505 28.47 13.505 28.397 13.432 28.251C13.359 28.105 13.359 28.032 13.432 27.886C13.505 27.813 13.724 27.74 13.87 27.813C13.87 27.74 13.87 27.594 14.016 27.521C14.089 27.448 14.381 27.302 14.673 27.375C14.819 27.375 15.111 27.375 15.257 27.375C15.33 27.375 15.987 27.229 16.425 26.937C16.206 26.937 16.133 26.791 15.987 26.791C16.206 26.572 16.644 26.499 16.79 26.28C16.644 26.28 16.498 26.134 16.352 26.134C16.717 25.915 17.009 25.769 17.228 25.55C17.228 25.55 17.301 25.404 17.374 25.404C17.228 25.112 17.155 24.747 17.155 24.382C17.155 24.309 17.155 24.236 17.155 24.09C17.082 24.163 16.863 24.309 16.571 24.382C16.425 24.017 16.498 23.36 16.644 22.849C16.352 23.36 16.06 23.725 15.549 23.871C15.403 23.506 15.476 22.849 15.695 22.338C15.33 22.922 15.038 23.214 14.381 23.36C14.308 22.922 14.381 22.265 14.6 21.754C14.162 22.192 13.724 22.338 13.213 22.411C13.213 21.9 13.286 21.389 13.578 20.805C13.213 21.243 12.556 21.462 12.045 21.535C12.118 21.097 12.41 20.44 12.629 20.075C12.118 20.44 11.607 20.659 11.096 20.732C11.169 20.221 11.388 19.637 11.826 19.126C11.315 19.491 10.585 19.71 10.074 19.637C10.22 19.053 10.585 18.469 11.023 18.177C10.731 18.25 10.22 18.323 9.63603 18.323C9.27103 19.491 9.12503 20.732 9.12503 21.973C8.83303 21.754 8.61403 21.681 8.39503 21.462C8.46803 21.754 8.46803 21.9 8.46803 22.192C8.54103 22.776 8.76003 23.141 9.12503 23.36C9.12503 23.506 9.19803 23.725 9.19803 23.871C8.90603 23.652 8.54103 23.579 8.03003 23.579C8.32203 24.601 8.76003 24.674 9.34403 24.747C9.34403 24.82 9.41703 24.893 9.41703 25.039C9.12503 24.966 8.76003 24.966 8.32203 25.039C8.61403 25.477 9.05203 25.769 9.70903 25.842C9.27103 25.842 8.90603 25.842 8.54103 26.061C9.05203 26.499 9.49003 26.645 10.001 26.572C10.001 26.645 10.074 26.718 10.074 26.718C9.70903 26.791 9.41703 27.01 9.19803 27.156C9.56303 27.302 10.001 27.375 10.366 27.302C10.147 27.448 10.001 27.74 9.85503 28.105C10.147 28.032 10.439 28.032 10.731 27.959C10.804 28.032 10.877 28.178 10.877 28.251C10.731 28.543 10.658 28.908 10.731 29.273C10.95 29.2 11.169 29.127 11.315 28.981C11.388 29.054 11.461 29.127 11.461 29.2C11.388 29.638 11.534 30.076 11.753 30.441C11.826 30.295 11.972 30.222 12.045 30.076C12.629 29.2 12.264 28.543 12.264 27.959C12.337 28.616 12.921 29.346 12.191 30.149C12.191 30.149 12.191 30.149 12.118 30.222C14.527 32.996 18.031 34.748 21.9 34.748C27.448 34.748 32.193 31.244 34.018 26.28L34.602 26.061L34.529 26.353L35.405 25.623L34.31 25.915L34.529 26.061L34.091 26.28C34.164 26.061 34.237 25.842 34.31 25.623L34.967 25.258V25.55L35.77 24.747L34.675 25.039L34.894 25.112L34.383 25.404C34.456 25.185 34.529 24.893 34.602 24.601L35.113 24.309V24.601L35.843 23.725Z" fill="#030321"/>
<path d="M29.93 27.813C30.003 27.813 30.076 27.813 30.149 27.813C30.222 27.813 30.295 27.886 30.295 27.959C30.295 28.032 30.222 28.251 30.076 28.251C29.93 28.251 29.93 28.178 29.711 28.178C29.784 28.251 30.003 28.324 29.93 28.47C29.93 28.543 29.857 28.616 29.784 28.689C29.711 28.762 29.638 28.762 29.565 28.689C29.492 28.616 29.419 28.616 29.346 28.543C29.419 28.616 29.419 28.616 29.419 28.689C29.419 28.762 29.419 28.908 29.419 28.908C29.346 28.981 29.2 28.981 29.127 28.981C28.981 28.981 28.981 28.835 28.908 28.762C28.908 28.689 28.908 28.616 28.908 28.543C28.835 28.616 28.762 28.835 28.908 29.054C28.981 29.127 29.127 29.2 29.346 29.127C29.492 29.054 29.565 29.054 29.565 28.908C29.565 28.835 29.565 28.835 29.565 28.762L29.638 28.835C29.711 28.908 29.857 28.835 30.003 28.689C30.149 28.543 30.149 28.47 30.076 28.397C30.076 28.324 30.003 28.324 30.003 28.324C30.076 28.324 30.149 28.324 30.149 28.324C30.295 28.324 30.295 28.251 30.368 28.105C30.441 27.959 30.441 27.886 30.368 27.74C30.368 27.667 30.222 27.667 30.149 27.667L33.945 24.674V24.966L34.602 24.09L33.58 24.528L33.799 24.601L30.003 27.594L29.93 27.667" fill="#030321"/>
<path d="M29.8569 27.448L32.1929 22.703L32.3389 22.922L32.5579 21.827L31.8279 22.703L32.0469 22.63L29.7109 27.375" fill="#030321"/>
<path d="M29.2729 28.032C29.3459 28.178 29.3459 28.397 29.2729 28.47C29.4919 28.397 29.565 28.178 29.565 28.105C29.492 27.959 29.3459 27.959 29.2729 28.032Z" fill="#030321"/>
<path d="M29.2 28.0321C29.054 28.0321 28.981 27.9591 28.981 27.8861C28.981 27.8131 28.908 27.7401 28.908 27.8861C28.908 27.9591 28.908 28.0321 28.981 28.1051C28.981 28.1051 29.127 28.1051 29.2 28.0321Z" fill="#030321"/>
<path d="M29.2 28.47C29.127 28.397 29.127 28.324 29.127 28.251C29.127 28.324 29.054 28.47 29.054 28.616C29.054 28.616 29.054 28.689 29.127 28.689C29.2 28.689 29.273 28.689 29.346 28.616C29.346 28.543 29.273 28.543 29.2 28.47Z" fill="#030321"/>
<path d="M32.1199 23.506H32.4119L30.9519 25.769C30.8059 26.134 30.5869 26.426 30.4409 26.791L32.4849 23.652L32.5579 23.871L32.9229 22.776L32.1199 23.506Z" fill="#030321"/>
<path d="M31.5359 25.477L34.2369 22.119L34.3099 22.338L34.7479 21.316L33.8719 21.973H34.1639L31.7549 25.039C31.5359 25.331 31.3899 25.623 31.1709 25.915C31.2439 25.769 31.3899 25.623 31.5359 25.477Z" fill="#030321"/>
<path d="M31.2439 26.426C31.4629 26.28 31.6819 26.061 31.9009 25.915L34.0909 23.871V24.163L34.6749 23.214L33.6529 23.725L33.9449 23.798L31.6819 25.842C31.6089 26.061 31.3899 26.28 31.2439 26.426Z" fill="#030321"/>
<path d="M33.6529 25.988L30.5139 27.594C30.4409 27.667 30.4409 27.667 30.3679 27.667L30.4409 27.74L33.7259 26.134L33.6529 26.426L34.5289 25.696L33.4339 25.915L33.6529 25.988Z" fill="#030321"/>
<path d="M28.981 29.273C28.908 29.273 28.908 29.2 28.835 29.2L28.251 30.3679L28.032 30.441L27.375 31.682L27.667 31.609L27.813 31.901L28.47 30.66L28.397 30.441L28.981 29.273Z" fill="#030321"/>
<path d="M31.1709 27.0829C31.3899 27.0099 31.6089 26.8639 31.9009 26.7179L34.0179 25.3309V25.6229L34.7479 24.8199L33.5799 25.1849L33.7989 25.2579L31.5359 26.7179C31.4629 26.8639 31.2439 26.9369 31.1709 27.0829Z" fill="#030321"/>
<path d="M28.689 28.981C28.689 28.908 28.689 28.835 28.689 28.762L27.959 29.565H27.74L26.645 30.66H26.718H26.937L27.01 30.879L27.886 29.784H28.032L28.689 28.981Z" fill="#030321"/>
<path d="M30.0759 27.375C30.1489 27.302 30.2949 27.229 30.4409 27.083L34.0909 23.068L34.1639 23.36L34.6749 22.338L33.7259 22.922H34.0179L30.2219 27.083C30.1489 27.229 30.0759 27.302 30.0759 27.375Z" fill="#030321"/>
<path d="M26.7911 30.076L28.1781 29.127C28.3241 28.981 28.4701 28.762 28.5431 28.689L26.8641 29.784L26.6451 29.711L26.4991 29.784L25.4041 30.441L25.6961 30.514L25.7691 30.733L26.6451 30.003L26.7911 30.076Z" fill="#030321"/>
<path d="M25.6961 30.222L26.2071 29.857L26.7181 29.492H26.8641C26.8641 29.492 28.1051 28.762 28.3971 28.543L26.7911 29.346L26.5721 29.273L25.3311 29.93L25.6231 30.003L25.6961 30.222Z" fill="#030321"/>
<path d="M13.7969 27.813C13.6509 27.813 13.3589 27.813 13.3589 27.886C13.2859 27.959 13.2859 28.032 13.3589 28.251C13.4319 28.397 13.432 28.47 13.578 28.47C13.578 28.47 13.6509 28.47 13.7239 28.47L13.651 28.543C13.651 28.616 13.5779 28.689 13.7239 28.835C13.8699 28.981 13.9429 29.054 14.0889 28.981C14.1619 28.981 14.1619 28.908 14.1619 28.908C14.1619 28.981 14.1619 28.981 14.0889 29.054C14.0889 29.2 14.162 29.273 14.308 29.273C14.527 29.346 14.673 29.346 14.746 29.273C14.892 29.054 14.819 28.835 14.746 28.762C14.746 28.835 14.746 28.908 14.746 28.981C14.746 29.054 14.6729 29.2 14.5269 29.127C14.4539 29.127 14.3079 29.054 14.2349 29.054C14.1619 28.981 14.1619 28.908 14.2349 28.835C14.2349 28.762 14.235 28.762 14.308 28.689C14.235 28.689 14.1619 28.762 14.0889 28.835C14.0159 28.908 13.9429 28.908 13.8699 28.835C13.7969 28.762 13.7239 28.689 13.7239 28.616C13.6509 28.47 13.87 28.397 13.943 28.324C13.797 28.324 13.724 28.397 13.578 28.397C13.432 28.397 13.4319 28.178 13.4319 28.032C13.4319 27.959 13.505 27.959 13.578 27.886C13.651 27.886 13.7239 27.886 13.7969 27.886" fill="#030321"/>
<path d="M10.512 26.2799C10.585 26.2799 10.585 26.2799 10.512 26.2799C10.074 26.0609 9.855 25.9879 9.271 26.0609C9.855 26.1339 10.22 26.2069 10.512 26.2799Z" fill="#030321"/>
<path d="M10.804 29.054C10.877 28.689 11.096 28.251 11.461 27.959C11.753 27.74 11.826 27.667 11.68 27.886C11.315 28.178 10.95 28.762 10.804 29.054Z" fill="#030321"/>
<path d="M11.6071 30.076C11.4611 29.711 11.6071 29.127 11.7531 28.762C11.8261 28.47 12.1181 28.105 12.1911 28.105C11.8991 28.543 11.5341 29.711 11.6071 30.076Z" fill="#030321"/>
<path d="M10.1873 25.4046C10.3059 25.3805 10.3824 25.2649 10.3583 25.1463C10.3343 25.0278 10.2186 24.9512 10.1001 24.9753C9.98159 24.9994 9.90502 25.115 9.9291 25.2335C9.95318 25.3521 10.0688 25.4286 10.1873 25.4046Z" fill="#030321"/>
<path d="M12.5559 25.477C12.5559 25.112 12.4829 24.747 12.5559 24.309C11.8259 24.82 11.5339 25.769 11.8989 26.426H11.8259C11.6799 26.426 11.6069 26.572 11.6069 26.718C11.6069 26.864 11.7529 26.937 11.8989 26.937C12.0449 26.937 12.1179 26.791 12.1179 26.645C12.1179 26.572 12.0449 26.499 11.9719 26.499C11.8259 25.915 11.9719 25.185 12.2639 24.893C12.1909 25.258 11.9719 25.988 12.1179 26.718C12.2639 26.572 12.3369 26.426 12.4099 26.353C12.4099 26.499 12.4829 26.572 12.4829 26.718C12.4829 26.134 12.7019 25.623 13.2859 25.185C12.8479 25.696 12.6289 26.353 12.5559 26.864C12.8479 26.499 13.5779 26.353 13.6509 24.82C13.2129 24.82 12.7749 25.112 12.5559 25.477Z" fill="#030321"/>
<path d="M12.8369 27.4433C12.995 27.4114 13.0973 27.2575 13.0655 27.0994C13.0336 26.9413 12.8796 26.8389 12.7216 26.8708C12.5635 26.9026 12.4611 27.0566 12.493 27.2147C12.5248 27.3728 12.6788 27.4751 12.8369 27.4433Z" fill="#030321"/>
<path d="M12.764 28.2428C12.9221 28.211 13.0245 28.057 12.9927 27.8989C12.9609 27.7408 12.8069 27.6384 12.6488 27.6702C12.4907 27.702 12.3883 27.856 12.4201 28.0141C12.4519 28.1722 12.6059 28.2746 12.764 28.2428Z" fill="#030321"/>
<path d="M11.388 23.944C10.877 24.382 10.731 24.966 10.731 25.477H10.658C10.512 25.477 10.439 25.623 10.512 25.696C10.512 25.842 10.658 25.915 10.731 25.842H10.804C10.877 25.988 10.95 26.134 11.023 26.207C10.95 26.061 10.95 25.842 10.95 25.696V25.623C10.95 25.185 11.023 24.747 11.242 24.455C11.169 24.893 11.023 25.842 11.169 26.353C11.315 25.769 12.118 25.477 11.388 23.944Z" fill="#030321"/>
<path d="M13.3969 27.6661C13.5155 27.6421 13.5922 27.5266 13.5682 27.408C13.5442 27.2894 13.4287 27.2128 13.3101 27.2367C13.1916 27.2607 13.1149 27.3763 13.1389 27.4948C13.1628 27.6134 13.2784 27.69 13.3969 27.6661Z" fill="#030321"/>
<path d="M12.3072 27.6572C12.4257 27.6332 12.5023 27.5176 12.4783 27.3991C12.4544 27.2806 12.3388 27.2039 12.2203 27.2279C12.1017 27.2519 12.0251 27.3675 12.0491 27.486C12.0731 27.6045 12.1886 27.6812 12.3072 27.6572Z" fill="#030321"/>
<path d="M9.78202 24.747C9.78202 24.674 9.70902 24.601 9.63602 24.601C9.34402 24.236 8.97902 23.871 8.32202 23.798C8.68702 23.944 9.19802 24.309 9.56302 24.601C9.49002 24.601 9.41702 24.747 9.41702 24.82C9.41702 24.893 9.49002 24.966 9.63602 24.966C9.78202 24.966 9.85502 24.893 9.78202 24.747Z" fill="#030321"/>
<path d="M9.78202 23.579C9.78202 23.433 9.63602 23.36 9.49002 23.433C9.34402 22.849 9.19802 22.411 8.54102 21.973C8.83302 22.411 9.27102 22.995 9.41702 23.433C9.34402 23.506 9.27102 23.579 9.27102 23.652C9.27102 23.798 9.41702 23.871 9.56302 23.798C9.78202 23.798 9.85502 23.652 9.78202 23.579Z" fill="#030321"/>
<path d="M10.439 25.7691C10.439 25.6961 10.366 25.6231 10.22 25.6231C10.147 25.6231 10.147 25.6231 10.074 25.6961C9.49001 25.1851 9.12501 25.1851 8.83301 25.1851C9.05201 25.2581 9.70901 25.4041 10.074 25.7691C10.074 25.7691 10.074 25.8421 10.074 25.9151C10.074 25.9881 10.147 26.0611 10.293 26.0611C10.439 25.9881 10.512 25.9151 10.439 25.7691Z" fill="#030321"/>
<path d="M10.7774 26.7806C10.896 26.7568 10.9729 26.6414 10.9491 26.5228C10.9253 26.4042 10.8099 26.3273 10.6913 26.3511C10.5727 26.3749 10.4958 26.4903 10.5196 26.6089C10.5434 26.7275 10.6588 26.8043 10.7774 26.7806Z" fill="#030321"/>
<path d="M11.315 26.937C11.315 26.864 11.242 26.791 11.096 26.791C11.023 26.791 11.023 26.864 10.95 26.864C10.439 26.791 9.92799 26.864 9.41699 27.156C9.92799 27.01 10.439 26.937 10.877 26.937V27.01C10.877 27.083 10.95 27.156 11.096 27.156C11.242 27.156 11.315 27.01 11.315 26.937Z" fill="#030321"/>
<path d="M11.826 27.229C11.826 27.083 11.68 27.01 11.534 27.083C11.388 27.083 11.315 27.229 11.388 27.375C11.023 27.375 10.366 27.448 10.001 27.886C10.366 27.667 11.023 27.448 11.388 27.375C11.388 27.521 11.534 27.594 11.68 27.521C11.753 27.521 11.899 27.375 11.826 27.229Z" fill="#030321"/>
<path d="M10.8769 22.703C10.0739 23.068 9.6359 24.09 10.0739 24.893C10.5119 24.309 11.2419 24.236 10.8769 22.703ZM10.0739 24.82C10.0009 24.382 10.2199 23.287 10.5849 23.068C10.3659 23.652 10.2929 24.09 10.0739 24.82Z" fill="#030321"/>
<path d="M10.074 21.17C9.782 21.243 9.417 21.681 9.271 22.119C9.344 22.192 9.417 22.265 9.417 22.338C9.49 21.973 9.709 21.535 9.928 21.389C9.782 21.608 9.636 22.119 9.49 22.484C9.563 22.703 9.636 22.922 9.636 23.141C10.147 22.703 10.293 21.9 10.074 21.17Z" fill="#030321"/>
<path d="M15.1111 28.397C16.1331 29.2 16.7901 30.295 16.9361 31.171C16.7901 31.098 16.571 30.952 16.425 31.025C16.279 30.076 15.7681 29.346 15.0381 28.689C14.9651 28.543 15.0381 28.47 15.1111 28.397Z" fill="#030321"/>
<path d="M14.0891 28.105C14.1621 28.032 14.3081 28.032 14.4541 28.032C14.3811 28.178 14.3811 28.397 14.4541 28.47C14.1621 28.47 14.0891 28.251 14.0891 28.105Z" fill="#030321"/>
<path d="M14.4541 28.105C14.6001 28.105 14.6731 28.032 14.6731 27.959C14.6731 27.886 14.7461 27.813 14.7461 27.959C14.7461 28.032 14.7461 28.105 14.6731 28.178C14.6731 28.178 14.6001 28.178 14.4541 28.105Z" fill="#030321"/>
<path d="M14.5271 28.324C14.5271 28.397 14.4541 28.47 14.4541 28.543C14.3811 28.616 14.3811 28.616 14.3081 28.689C14.3811 28.762 14.4541 28.762 14.5271 28.762C14.6001 28.762 14.6001 28.762 14.6001 28.689C14.6001 28.616 14.6001 28.397 14.5271 28.324Z" fill="#030321"/>
</g>
<defs>
<clipPath id="clip0_3803_18520">
<rect width="146" height="43.8" fill="white"/>
</clipPath>
</defs>
</svg>
