<svg width="297" height="369" viewBox="0 0 297 369" fill="none" xmlns="http://www.w3.org/2000/svg">
<g clip-path="url(#clip0_3862_28340)">
<rect width="297" height="369" fill="#EEEEEE"/>
<path opacity="0.7" fill-rule="evenodd" clip-rule="evenodd" d="M234.829 136.318C234.829 183.991 196.183 222.637 148.51 222.637C100.838 222.637 62.1921 183.991 62.1921 136.318C62.1921 88.646 100.838 50 148.51 50C196.183 50 234.829 88.646 234.829 136.318ZM196.807 228.44C197.555 228.045 198.385 227.837 199.237 227.836C259.86 227.846 309 276.992 309 337.617V369.835H-12V337.617C-12 276.986 37.1494 227.836 97.7802 227.836C98.633 227.836 99.465 228.044 100.214 228.44C114.649 236.031 131.08 240.316 148.51 240.316C165.94 240.316 182.372 236.011 196.807 228.44ZM199.237 227.836C199.238 227.836 199.239 227.836 199.241 227.836H199.22C199.225 227.836 199.231 227.836 199.237 227.836Z" fill="#363C4A"/>
</g>
<defs>
<clipPath id="clip0_3862_28340">
<rect width="297" height="369" fill="white"/>
</clipPath>
</defs>
</svg>
