<svg xmlns="http://www.w3.org/2000/svg" width="49" height="30" viewBox="0 0 49 30" fill="none">
  <g filter="url(#filter0_d_3266_24870)">
    <path d="M14.865 2.13086L18.7558 15.4424L22.6465 2.13086H33.1907V3.45385L29.2203 10.3387C30.6151 10.7895 31.6702 11.6087 32.3856 12.7964C33.1009 13.9841 33.4596 15.3798 33.4596 16.9809C33.4596 18.9613 32.9368 20.6262 31.8904 21.9764C30.8441 23.3266 29.4891 24.001 27.8261 24.001C26.5738 24.001 25.4822 23.5999 24.5534 22.7997C23.6246 21.9995 22.935 20.9145 22.4878 19.5459L24.6872 18.6281C25.0094 19.4562 25.4342 20.1089 25.9618 20.5861C26.4694 21.0558 27.1366 21.3117 27.8261 21.3013C28.5772 21.3013 29.2122 20.8784 29.7309 20.0327C30.2497 19.187 30.5091 18.1699 30.5091 16.9815C30.5091 15.6674 30.2322 14.6496 29.6783 13.9304C29.0339 13.0846 28.0233 12.6618 26.6454 12.6618H25.5714V11.366L29.327 4.83123H24.7946L24.5365 5.27313L19.0226 24.0017H18.7544L14.73 10.4475L10.7055 24.0017H10.4373L4 2.13086H6.81674L10.7075 15.4424L13.3358 6.47171L12.0483 2.13086H14.865Z" fill="#F6F6F6"/>
    <path d="M44.3765 2.00612L44.8331 4.79827L43.212 7.90859C43.212 7.90859 42.5919 6.58968 41.5618 5.85884C40.6938 5.24357 40.1284 5.10964 39.2449 5.2932C38.1101 5.52911 36.822 6.89561 36.2593 8.58028C35.5872 10.596 35.5804 11.5716 35.5568 12.4677C35.519 13.9042 35.7439 14.7533 35.7439 14.7533C35.7439 14.7533 34.7645 12.9273 34.7726 10.2527C34.7793 8.3437 35.0765 6.61279 35.9547 4.90433C36.7267 3.40865 37.8744 2.50105 38.893 2.38887C39.9467 2.2801 40.7843 2.79679 41.4213 3.34339C42.0968 3.92398 42.7722 5.19258 42.7722 5.19258L44.3637 2L44.3765 2.00612ZM44.5751 17.8045C44.5751 17.8045 43.8611 19.0962 43.4167 19.5837C42.9722 20.0711 42.1758 20.9434 41.193 21.3853C40.2102 21.8272 39.6948 21.9033 38.7234 21.8095C37.7521 21.7157 36.8503 21.1501 36.5349 20.9142C36.2194 20.6782 35.4109 19.9828 34.9543 19.3355C34.4977 18.6883 33.7837 17.3912 33.7837 17.3912L34.4308 19.2404C34.574 19.5572 35.0144 20.528 35.6466 21.3724C36.2289 22.161 37.3624 23.5166 39.0821 23.8226C40.8019 24.1285 41.9846 23.3514 42.2771 23.1631C42.5696 22.9748 43.1863 22.4561 43.5767 22.0345C43.9841 21.596 44.3698 21.0365 44.59 20.7007C44.7453 20.4559 45 19.9583 45 19.9583L44.5947 17.8032L44.5751 17.8045Z" fill="#F6F6F6"/>
  </g>
  <defs>
    <filter id="filter0_d_3266_24870" x="0" y="0" width="49" height="30.0015" filterUnits="userSpaceOnUse" color-interpolation-filters="sRGB">
      <feFlood flood-opacity="0" result="BackgroundImageFix"/>
      <feColorMatrix in="SourceAlpha" type="matrix" values="0 0 0 0 0 0 0 0 0 0 0 0 0 0 0 0 0 0 127 0" result="hardAlpha"/>
      <feOffset dy="2"/>
      <feGaussianBlur stdDeviation="2"/>
      <feComposite in2="hardAlpha" operator="out"/>
      <feColorMatrix type="matrix" values="0 0 0 0 0.0470588 0 0 0 0 0.25098 0 0 0 0 0.352941 0 0 0 0.5 0"/>
      <feBlend mode="normal" in2="BackgroundImageFix" result="effect1_dropShadow_3266_24870"/>
      <feBlend mode="normal" in="SourceGraphic" in2="effect1_dropShadow_3266_24870" result="shape"/>
    </filter>
  </defs>
</svg>
