<svg width="82" height="44" viewBox="0 0 82 44" fill="none" xmlns="http://www.w3.org/2000/svg">
<path d="M21.7301 0.261719L29.5116 26.8847L37.2931 0.261719H58.3815V2.9077L50.4406 16.6774C53.2303 17.5789 55.3405 19.2174 56.7712 21.5928C58.2018 23.9682 58.9192 26.7596 58.9192 29.9617C58.9192 33.9226 57.8736 37.2525 55.7809 39.9528C53.6883 42.6532 50.9783 44.002 47.6522 44.002C45.1476 44.002 42.9644 43.1998 41.1069 41.5994C39.2493 39.9991 37.87 37.829 36.9756 35.0919L41.3743 33.2563C42.0188 34.9124 42.8685 36.2177 43.9236 37.1723C44.9389 38.1116 46.2733 38.6235 47.6522 38.6027C49.1545 38.6027 50.4244 37.7569 51.4619 36.0655C52.4995 34.374 53.0182 32.3399 53.0182 29.9631C53.0182 27.3348 52.4643 25.2993 51.3566 23.8607C50.0677 22.1693 48.0467 21.3235 45.2908 21.3235H43.1427V18.7319L50.6541 5.66246H41.5891L41.0731 6.54627L30.0452 44.0034H29.5089L21.4599 16.895L13.4109 44.0034H12.8746L0 0.261719H5.63348L13.415 26.8847L18.6715 8.94343L16.0966 0.261719H21.7301Z" fill="#F6F6F6"/>
<path d="M80.7531 0.0122371L81.6664 5.59654L78.4241 11.8172C78.4241 11.8172 77.1839 9.17936 75.1237 7.71768C73.3877 6.48715 72.257 6.21929 70.4899 6.58641C68.2203 7.05822 65.644 9.79123 64.5187 13.1606C63.1745 17.1921 63.161 19.1433 63.1137 20.9354C63.038 23.8084 63.4879 25.5067 63.4879 25.5067C63.4879 25.5067 61.529 21.8545 61.5452 16.5054C61.5588 12.6874 62.1532 9.22559 63.9094 5.80866C65.4536 2.81731 67.7488 1.0021 69.7861 0.77775C71.8936 0.560197 73.5687 1.59357 74.8427 2.68678C76.1936 3.84796 77.5446 6.38517 77.5446 6.38517L80.7275 0L80.7531 0.0122371ZM81.1503 31.609C81.1503 31.609 79.7223 34.1925 78.8334 35.1674C77.9445 36.1423 76.3517 37.8868 74.3861 38.7706C72.4204 39.6544 71.3897 39.8067 69.447 39.6191C67.5043 39.4314 65.7008 38.3001 65.0699 37.8283C64.439 37.3565 62.8219 35.9655 61.9086 34.6711C60.9954 33.3767 59.5674 30.7823 59.5674 30.7823L60.8617 34.4807C61.1481 35.1144 62.0289 37.056 63.2934 38.7448C64.4579 40.322 66.7248 43.0333 70.1643 43.6451C73.6039 44.257 75.9694 42.7029 76.5544 42.3262C77.1393 41.9496 78.3727 40.9121 79.1536 40.0691C79.9682 39.1921 80.7396 38.0731 81.18 37.4014C81.4907 36.9119 82.0001 35.9166 82.0001 35.9166L81.1895 31.6063L81.1503 31.609Z" fill="#F6F6F6"/>
</svg>
