<svg width="116" height="28" viewBox="0 0 116 28" fill="none" xmlns="http://www.w3.org/2000/svg">
<g clip-path="url(#clip0_921_3890)">
<path d="M39.4416 21.547H41.3037L40.6653 22.475C40.842 21.875 41.0548 21.172 41.3037 20.368C41.5517 19.564 41.8177 18.738 42.1018 17.89C42.3849 17.042 42.669 16.23 42.953 15.452L45.9324 7.18396H47.928L41.8097 23.084H38.9367L32.7922 7.18396H34.8401L37.8997 15.452C38.1828 16.23 38.4669 17.051 38.751 17.917C39.0341 18.783 39.2921 19.617 39.5229 20.421C39.7528 21.225 39.9305 21.91 40.055 22.475L39.4426 21.547H39.4416Z" fill="#343B45"/>
<path d="M53.7272 23.375C52.4503 23.375 51.3642 23.123 50.4687 22.62C49.5733 22.116 48.8897 21.384 48.4199 20.42C47.9501 19.457 47.7152 18.305 47.7152 16.962C47.7152 15.619 47.9592 14.436 48.447 13.464C48.9349 12.493 49.6215 11.751 50.5089 11.238C51.3953 10.726 52.4413 10.47 53.6479 10.47C54.8545 10.47 55.8774 10.704 56.6674 11.172C57.4564 11.64 58.0457 12.294 58.4362 13.133C58.8257 13.972 59.0214 14.966 59.0214 16.114V16.684C59.0214 16.922 59.0033 17.157 58.9682 17.386H48.9128V16.114H57.8248L57.3189 16.591C57.336 15.09 57.0659 13.928 56.5078 13.106C55.9487 12.285 54.978 11.874 53.5947 11.874C52.2114 11.874 51.2578 12.298 50.5751 13.146C49.8925 13.994 49.5512 15.257 49.5512 16.935C49.5512 18.49 49.8925 19.7 50.5751 20.566C51.2578 21.432 52.3088 21.864 53.7272 21.864C54.5423 21.864 55.1858 21.741 55.6556 21.493C56.1253 21.246 56.4847 20.915 56.7327 20.499C56.9806 20.084 57.1754 19.62 57.3179 19.108L58.914 19.558C58.7182 20.353 58.4131 21.033 57.9965 21.599C57.5799 22.165 57.0258 22.602 56.3341 22.911C55.6425 23.22 54.7732 23.375 53.7272 23.375Z" fill="#343B45"/>
<path d="M62.6382 13.782L63.357 13.808L62.7717 15.557C62.8952 14.674 63.0859 13.919 63.3439 13.291C63.6009 12.664 63.9201 12.143 64.3016 11.728C64.683 11.313 65.1217 11.004 65.6186 10.801C66.1145 10.598 66.6646 10.496 67.2679 10.496H67.4275V12.484H67.2679C66.2741 12.484 65.459 12.643 64.8206 12.961C64.1821 13.279 63.7123 13.778 63.4112 14.458C63.109 15.138 62.9594 16.044 62.9594 17.174V23.083H61.1505V10.761H62.853V15.425L62.6402 13.782H62.6382Z" fill="#343B45"/>
<path d="M71.5503 7.66095H69.3157V5.69995H71.5503V7.66095ZM71.3374 23.084H69.5014V10.762H71.3374V23.084Z" fill="#343B45"/>
<path d="M73.7045 16.962C73.7045 14.772 74.108 13.142 74.9151 12.073C75.7222 11.004 76.8706 10.47 78.3603 10.47C79.3179 10.47 80.116 10.687 80.7544 11.119C81.3928 11.552 81.9028 12.113 82.2842 12.802C82.6657 13.491 82.9357 14.233 83.0953 15.028L82.9618 16.114C82.9618 14.966 82.6115 14.016 81.9108 13.265C81.2101 12.514 80.2746 12.139 79.1041 12.139C77.9336 12.139 76.976 12.51 76.3907 13.252C75.8055 13.994 75.5124 15.231 75.5124 16.962C75.5124 18.693 75.8055 19.908 76.3907 20.659C76.976 21.41 77.8804 21.785 79.1041 21.785C79.8841 21.785 80.5627 21.613 81.1389 21.268C81.7151 20.923 82.1628 20.451 82.482 19.85C82.8012 19.25 82.9608 18.578 82.9608 17.836L83.1204 18.207C83.0843 18.879 82.9478 19.523 82.7079 20.141C82.4689 20.76 82.1317 21.312 81.697 21.797C81.2623 22.283 80.7524 22.667 80.1672 22.95C79.5819 23.232 78.9254 23.374 78.1986 23.374C76.7973 23.374 75.6981 22.844 74.9 21.784C74.102 20.724 73.7025 19.117 73.7025 16.961L73.7045 16.962ZM83.3342 15.187H82.9347L82.5362 13.65H83.4407L83.3342 15.187ZM83.4668 20.169H82.5623L82.9347 18.977H83.4668V20.169ZM82.9618 23.084V5.32898H84.7978V23.084H82.9618Z" fill="#343B45"/>
<path d="M90.064 7.66095H87.8294V5.69995H90.064V7.66095ZM89.8511 23.084H88.0151V10.762H89.8511V23.084Z" fill="#343B45"/>
<path d="M95.8099 23.3489C95.0289 23.3489 94.3553 23.2379 93.7882 23.0179C93.22 22.7969 92.7813 22.4349 92.4712 21.9309C92.161 21.4269 92.0054 20.7779 92.0054 19.9829C92.0054 18.9759 92.3597 18.1369 93.0694 17.4659C93.7781 16.7949 94.8783 16.4589 96.368 16.4589H100.97V17.6249H96.6069C95.6844 17.6249 94.9747 17.8099 94.4788 18.1809C93.9819 18.5519 93.734 19.1089 93.734 19.8509C93.734 20.2219 93.8183 20.5619 93.9869 20.8709C94.1556 21.1799 94.4347 21.4229 94.8251 21.5999C95.2146 21.7769 95.7386 21.8649 96.3941 21.8649C97.2273 21.8649 97.9591 21.7239 98.5885 21.4409C99.2179 21.1589 99.7098 20.7649 100.065 20.2619C100.42 19.7579 100.597 19.1889 100.597 18.5529V14.9759C100.597 14.0219 100.371 13.2889 99.9186 12.7759C99.4669 12.2639 98.6728 12.0079 97.5375 12.0079C96.6682 12.0079 95.9765 12.2109 95.4626 12.6169C94.9476 13.0239 94.5581 13.5619 94.2921 14.2339L92.5625 13.5979C92.7924 12.9799 93.1387 12.4369 93.5995 11.9679C94.0602 11.4999 94.6274 11.1329 95.302 10.8679C95.9755 10.6029 96.7294 10.4709 97.5636 10.4709C98.6979 10.4709 99.6205 10.6389 100.33 10.9739C101.039 11.3099 101.563 11.8129 101.899 12.4849C102.235 13.1569 102.405 13.9779 102.405 14.9489V23.0849H100.756V19.5069L101.049 20.3819H100.144L100.623 19.6669C100.446 20.3919 100.144 21.0319 99.7188 21.5879C99.2932 22.1449 98.7562 22.5779 98.1097 22.8869C97.4622 23.1959 96.6953 23.3509 95.8089 23.3509L95.8099 23.3489Z" fill="#343B45"/>
<path d="M106.743 13.809H107.568L107.062 14.63C107.275 13.906 107.616 13.23 108.086 12.603C108.556 11.976 109.137 11.464 109.828 11.066C110.52 10.669 111.292 10.47 112.143 10.47C112.941 10.47 113.633 10.633 114.218 10.96C114.803 11.287 115.246 11.764 115.548 12.391C115.849 13.018 116 13.791 116 14.71V23.084H114.164V15.108C114.164 14.472 114.08 13.933 113.911 13.491C113.742 13.05 113.459 12.714 113.06 12.484C112.661 12.255 112.142 12.139 111.504 12.139C110.653 12.139 109.895 12.316 109.229 12.669C108.565 13.023 108.037 13.508 107.646 14.126C107.256 14.745 107.061 15.442 107.061 16.22V23.083H105.252V10.761H107.008V15.478L106.742 13.808L106.743 13.809Z" fill="#343B45"/>
<path d="M11.1094 18.677L7.55887 28C7.32999 27.822 7.0971 27.637 6.86622 27.444L10.3174 18.378L11.1094 18.677ZM9.20515 17.669L4.11773 24.841C4.31147 25.056 4.51022 25.266 4.70898 25.469L9.8988 18.156L9.20616 17.669H9.20515ZM8.30572 16.708L1.98157 22.047C2.13014 22.287 2.28473 22.524 2.44835 22.756L8.85482 17.351L8.30572 16.709V16.708ZM7.67732 15.551L0.541066 18.99C0.6284 19.259 0.724768 19.524 0.829167 19.785L8.04773 16.309L7.67732 15.551ZM7.36011 14.277L0.00200767 15.747C0.00401533 16.034 0.0190728 16.318 0.0471802 16.599L7.52574 15.104L7.3591 14.276L7.36011 14.277ZM0 12.565V13.407L7.32497 13.805L7.37216 12.963L0 12.565ZM0 9.262V10.144L7.45648 12.498L7.71245 11.695L0 9.262ZM0 5.339V6.332L7.91322 11.265L8.36294 10.551L0 5.339ZM2.5126 2.5L1.56899 2.735L8.66308 10.186L9.27843 9.605L2.5126 2.5ZM6.30709 1.556L5.45584 1.768L9.6619 9.325L10.4047 8.917L6.30709 1.556ZM9.6368 0.729L8.81466 0.932L10.8454 8.744L11.6645 8.532L9.6368 0.729ZM12.9786 0.104L12.561 0L12.1313 0.106L12.1363 8.471H12.9836L12.9786 0.104ZM15.4771 0.726L13.4554 8.53L14.2775 8.74L16.3013 0.928L15.4771 0.725V0.726ZM18.8098 1.554L14.7202 8.916L15.46 9.324L19.6591 1.764L18.8098 1.554ZM22.6013 2.498L15.8445 9.603L16.4599 10.184L23.5419 2.732L22.6013 2.497V2.498ZM16.761 10.549L17.2127 11.263L25.126 6.317V5.324L16.76 10.549H16.761ZM17.4115 11.69L17.6695 12.495L25.126 10.133V9.249L17.4115 11.69ZM17.7538 12.96L17.801 13.802L25.126 13.397V12.552L17.7538 12.96ZM17.7669 14.274L17.6032 15.099L25.0798 16.586C25.1099 16.307 25.1219 16.023 25.1239 15.736L17.7669 14.273V14.274ZM17.4506 15.549L17.0802 16.308L24.3008 19.776C24.4052 19.514 24.5016 19.247 24.5889 18.978L17.4496 15.549H17.4506ZM16.8232 16.703L16.2742 17.348L22.6856 22.748C22.8473 22.516 23.0028 22.279 23.1524 22.036L16.8232 16.702V16.703ZM15.9238 17.666L15.2332 18.153L20.425 25.458C20.6258 25.255 20.8245 25.045 21.0163 24.831L15.9238 17.667V17.666ZM14.8136 18.375L14.0215 18.674L17.5771 27.993C17.806 27.815 18.0369 27.63 18.2698 27.437L14.8136 18.375Z" fill="#006DDB"/>
</g>
<defs>
<clipPath id="clip0_921_3890">
<rect width="116" height="28" fill="white"/>
</clipPath>
</defs>
</svg>
