<?xml version="1.0" encoding="utf-8"?>
<!-- Generator: Adobe Illustrator 25.0.1, SVG Export Plug-In . SVG Version: 6.00 Build 0)  -->
<svg version="1.0" id="Layer_1" xmlns="http://www.w3.org/2000/svg" xmlns:xlink="http://www.w3.org/1999/xlink" x="0px" y="0px"
	 viewBox="0 0 332 212" xml:space="preserve" fill="currentColor" className="h-4 w-4">
<g>
	<path d="M238.3,120.9c-0.2-3.8-3.6-6.7-7.5-6.7h-21.2l0,0l-5.8-14.7l0,0h13.1c3.8,0,7.3-2.8,7.5-6.7c0.2-4-3-7.3-6.9-7.3h-19.2l0,0
		l-24-60.5c-1-2.6-3.6-4.4-6.5-4.4c-2.8,0-5.4,1.8-6.5,4.4l-23,60.4l0,0h-18.8c-3.8,0-7.3,2.8-7.5,6.7c-0.2,4,3,7.3,6.9,7.3h13.7
		l0,0L127,114l0,0h-21c-3.8,0-7.3,2.8-7.5,6.7c-0.2,4,3,7.3,6.9,7.3h16.1l0,0l-18.8,48.8c-1.4,3.6,0.4,7.7,4,9.1
		c0.8,0.4,1.6,0.4,2.4,0.4c2.8,0,5.4-1.6,6.5-4.4l20.8-53.8l0,0h63.3l0,0l21.6,54.4c1,2.8,3.6,4.4,6.5,4.4c0.8,0,1.8-0.2,2.6-0.4
		c3.6-1.4,5.2-5.4,3.8-9.1l-19.6-49.2l0,0h15.9C235.2,128.1,238.5,124.9,238.3,120.9z M168.1,47.1l15.1,38.3l0,0h-29.8l0,0
		L168.1,47.1C167.9,47.1,168.1,47.1,168.1,47.1z M142.1,114.2l5.6-14.7l0,0h40.7l0,0l5.8,14.7l0,0H142.1L142.1,114.2z"/>
</g>
</svg>
